<ttFont>
    <TTGlyph name=".notdef" xMin="0" yMin="0" xMax="500" yMax="700">
      <contour>
        <pt x="0" y="700" on="1"/>
        <pt x="500" y="700" on="1"/>
        <pt x="500" y="0" on="1"/>
        <pt x="0" y="0" on="1"/>
      </contour>
      <contour>
        <pt x="420" y="650" on="1"/>
        <pt x="80" y="650" on="1"/>
        <pt x="250" y="395" on="1"/>
      </contour>
      <contour>
        <pt x="220" y="350" on="1"/>
        <pt x="50" y="605" on="1"/>
        <pt x="50" y="95" on="1"/>
      </contour>
      <contour>
        <pt x="450" y="605" on="1"/>
        <pt x="280" y="350" on="1"/>
        <pt x="450" y="95" on="1"/>
      </contour>
      <contour>
        <pt x="420" y="50" on="1"/>
        <pt x="250" y="305" on="1"/>
        <pt x="80" y="50" on="1"/>
      </contour>
    </TTGlyph>
    <TTGlyph name=".ttfautohint" xMin="0" yMin="0" xMax="0" yMax="0">
      <contour>
        <pt x="0" y="0" on="1"/>
      </contour>
    </TTGlyph>
    <TTGlyph name="A" xMin="4" yMin="0" xMax="699" yMax="686">
      <contour>
        <pt x="271" y="686" on="1"/>
        <pt x="432" y="686" on="1"/>
        <pt x="699" y="0" on="1"/>
        <pt x="561" y="0" on="1"/>
        <pt x="505" y="149" on="1"/>
        <pt x="191" y="149" on="1"/>
        <pt x="136" y="0" on="1"/>
        <pt x="4" y="0" on="1"/>
      </contour>
      <contour>
        <pt x="464" y="257" on="1"/>
        <pt x="394" y="445" on="1"/>
        <pt x="378" y="485" on="0"/>
        <pt x="360" y="547" on="1"/>
        <pt x="357" y="556" on="0"/>
        <pt x="352" y="571" on="0"/>
        <pt x="350" y="576" on="1"/>
        <pt x="345" y="576" on="1"/>
        <pt x="335" y="545" on="1"/>
        <pt x="301" y="445" on="1"/>
        <pt x="231" y="257" on="1"/>
      </contour>
    </TTGlyph>
    <TTGlyph name="AE" xMin="-4" yMin="0" xMax="945" yMax="686">
      <contour>
        <pt x="333" y="686" on="1"/>
        <pt x="939" y="686" on="1"/>
        <pt x="939" y="577" on="1"/>
        <pt x="532" y="577" on="1"/>
        <pt x="579" y="405" on="1"/>
        <pt x="895" y="405" on="1"/>
        <pt x="895" y="296" on="1"/>
        <pt x="609" y="296" on="1"/>
        <pt x="659" y="109" on="1"/>
        <pt x="945" y="109" on="1"/>
        <pt x="945" y="0" on="1"/>
        <pt x="559" y="0" on="1"/>
        <pt x="519" y="149" on="1"/>
        <pt x="198" y="149" on="1"/>
        <pt x="127" y="0" on="1"/>
        <pt x="-4" y="0" on="1"/>
      </contour>
      <contour>
        <pt x="491" y="257" on="1"/>
        <pt x="406" y="577" on="1"/>
        <pt x="401" y="577" on="1"/>
        <pt x="249" y="257" on="1"/>
      </contour>
    </TTGlyph>
    <TTGlyph name="AEacute" xMin="-4" yMin="0" xMax="945" yMax="868">
      <component glyphName=".ttfautohint" x="0" y="0" flags="0x0"/>
      <component glyphName="AE" x="0" y="0" flags="0x0"/>
      <component glyphName="acute" x="377" y="145" flags="0x4"/>
    </TTGlyph>
    <TTGlyph name="Aacute" xMin="4" yMin="0" xMax="699" yMax="868">
      <component glyphName=".ttfautohint" x="4" y="0" flags="0x0"/>
      <component glyphName="A" x="0" y="0" flags="0x0"/>
      <component glyphName="acute" x="229" y="145" flags="0x4"/>
    </TTGlyph>
    <TTGlyph name="Abreve" xMin="4" yMin="0" xMax="699" yMax="868">
      <component glyphName=".ttfautohint" x="4" y="0" flags="0x0"/>
      <component glyphName="A" x="0" y="0" flags="0x0"/>
      <component glyphName="breve" x="185" y="145" flags="0x4"/>
    </TTGlyph>
    <TTGlyph name="Acircumflex" xMin="4" yMin="0" xMax="699" yMax="868">
      <component glyphName=".ttfautohint" x="4" y="0" flags="0x0"/>
      <component glyphName="A" x="0" y="0" flags="0x0"/>
      <component glyphName="circumflex" x="185" y="145" flags="0x4"/>
    </TTGlyph>
    <TTGlyph name="Adieresis" xMin="4" yMin="0" xMax="699" yMax="868">
      <component glyphName=".ttfautohint" x="4" y="0" flags="0x0"/>
      <component glyphName="A" x="0" y="0" flags="0x0"/>
      <component glyphName="dieresis" x="186" y="145" flags="0x4"/>
    </TTGlyph>
    <TTGlyph name="Agrave" xMin="4" yMin="0" xMax="699" yMax="868">
      <component glyphName=".ttfautohint" x="4" y="0" flags="0x0"/>
      <component glyphName="A" x="0" y="0" flags="0x0"/>
      <component glyphName="grave" x="121" y="145" flags="0x4"/>
    </TTGlyph>
    <TTGlyph name="Amacron" xMin="4" yMin="0" xMax="699" yMax="844">
      <component glyphName=".ttfautohint" x="4" y="0" flags="0x0"/>
      <component glyphName="A" x="0" y="0" flags="0x0"/>
      <component glyphName="macron" x="185" y="145" flags="0x4"/>
    </TTGlyph>
    <TTGlyph name="Aogonek" xMin="4" yMin="-182" xMax="700" yMax="686">
      <contour>
        <pt x="577" y="-182" on="0"/>
        <pt x="516" y="-140" on="0"/>
        <pt x="516" y="-93" on="1"/>
        <pt x="516" y="-64" on="0"/>
        <pt x="540" y="-20" on="0"/>
        <pt x="561" y="0" on="1"/>
        <pt x="505" y="149" on="1"/>
        <pt x="191" y="149" on="1"/>
        <pt x="136" y="0" on="1"/>
        <pt x="4" y="0" on="1"/>
        <pt x="271" y="686" on="1"/>
        <pt x="432" y="686" on="1"/>
        <pt x="699" y="0" on="1"/>
        <pt x="642" y="0" on="1"/>
        <pt x="611" y="-33" on="0"/>
        <pt x="611" y="-65" on="1"/>
        <pt x="611" y="-114" on="0"/>
        <pt x="665" y="-114" on="1"/>
        <pt x="700" y="-114" on="1"/>
        <pt x="700" y="-168" on="1"/>
        <pt x="660" y="-182" on="0"/>
        <pt x="624" y="-182" on="1"/>
      </contour>
      <contour>
        <pt x="464" y="257" on="1"/>
        <pt x="394" y="445" on="1"/>
        <pt x="378" y="485" on="0"/>
        <pt x="360" y="547" on="1"/>
        <pt x="357" y="556" on="0"/>
        <pt x="352" y="571" on="0"/>
        <pt x="350" y="576" on="1"/>
        <pt x="345" y="576" on="1"/>
        <pt x="335" y="545" on="1"/>
        <pt x="301" y="445" on="1"/>
        <pt x="231" y="257" on="1"/>
      </contour>
    </TTGlyph>
    <TTGlyph name="Aring" xMin="4" yMin="0" xMax="699" yMax="903">
      <component glyphName=".ttfautohint" x="4" y="0" flags="0x0"/>
      <component glyphName="A" x="0" y="0" flags="0x0"/>
      <component glyphName="ring" x="185" y="145" flags="0x4"/>
    </TTGlyph>
    <TTGlyph name="Aringacute" xMin="4" yMin="0" xMax="699" yMax="993">
      <contour>
        <pt x="381" y="993" on="1"/>
        <pt x="502" y="993" on="1"/>
        <pt x="503" y="990" on="1"/>
        <pt x="395" y="861" on="1"/>
        <pt x="300" y="861" on="1"/>
      </contour>
      <contour>
        <pt x="269" y="681" on="1"/>
        <pt x="252" y="704" on="0"/>
        <pt x="252" y="736" on="1"/>
        <pt x="252" y="779" on="0"/>
        <pt x="306" y="836" on="0"/>
        <pt x="351" y="836" on="1"/>
        <pt x="396" y="836" on="0"/>
        <pt x="451" y="779" on="0"/>
        <pt x="451" y="736" on="1"/>
        <pt x="451" y="707" on="0"/>
        <pt x="434" y="681" on="1"/>
        <pt x="699" y="0" on="1"/>
        <pt x="561" y="0" on="1"/>
        <pt x="505" y="149" on="1"/>
        <pt x="191" y="149" on="1"/>
        <pt x="136" y="0" on="1"/>
        <pt x="4" y="0" on="1"/>
      </contour>
      <contour>
        <pt x="372" y="689" on="0"/>
        <pt x="398" y="716" on="0"/>
        <pt x="398" y="736" on="1"/>
        <pt x="398" y="756" on="0"/>
        <pt x="372" y="783" on="0"/>
        <pt x="351" y="783" on="1"/>
        <pt x="330" y="783" on="0"/>
        <pt x="305" y="757" on="0"/>
        <pt x="305" y="736" on="1"/>
        <pt x="305" y="716" on="0"/>
        <pt x="331" y="689" on="0"/>
        <pt x="352" y="689" on="1"/>
      </contour>
      <contour>
        <pt x="464" y="257" on="1"/>
        <pt x="394" y="445" on="1"/>
        <pt x="378" y="485" on="0"/>
        <pt x="360" y="547" on="1"/>
        <pt x="357" y="556" on="0"/>
        <pt x="352" y="571" on="0"/>
        <pt x="350" y="576" on="1"/>
        <pt x="345" y="576" on="1"/>
        <pt x="335" y="545" on="1"/>
        <pt x="301" y="445" on="1"/>
        <pt x="231" y="257" on="1"/>
      </contour>
    </TTGlyph>
    <TTGlyph name="Atilde" xMin="4" yMin="0" xMax="699" yMax="868">
      <component glyphName=".ttfautohint" x="4" y="0" flags="0x0"/>
      <component glyphName="A" x="0" y="0" flags="0x0"/>
      <component glyphName="tilde" x="185" y="145" flags="0x4"/>
    </TTGlyph>
    <TTGlyph name="B" xMin="71" yMin="0" xMax="653" yMax="686">
      <contour>
        <pt x="71" y="686" on="1"/>
        <pt x="443" y="686" on="1"/>
        <pt x="498" y="686" on="0"/>
        <pt x="585" y="644" on="0"/>
        <pt x="634" y="567" on="0"/>
        <pt x="634" y="517" on="1"/>
        <pt x="634" y="460" on="0"/>
        <pt x="571" y="376" on="0"/>
        <pt x="522" y="360" on="1"/>
        <pt x="522" y="356" on="1"/>
        <pt x="580" y="344" on="0"/>
        <pt x="653" y="254" on="0"/>
        <pt x="653" y="189" on="1"/>
        <pt x="653" y="96" on="0"/>
        <pt x="536" y="0" on="0"/>
        <pt x="443" y="0" on="1"/>
        <pt x="71" y="0" on="1"/>
      </contour>
      <contour>
        <pt x="409" y="405" on="1"/>
        <pt x="453" y="405" on="0"/>
        <pt x="503" y="453" on="0"/>
        <pt x="503" y="490" on="1"/>
        <pt x="503" y="533" on="0"/>
        <pt x="457" y="577" on="0"/>
        <pt x="417" y="577" on="1"/>
        <pt x="199" y="577" on="1"/>
        <pt x="199" y="405" on="1"/>
      </contour>
      <contour>
        <pt x="426" y="109" on="1"/>
        <pt x="470" y="109" on="0"/>
        <pt x="522" y="156" on="0"/>
        <pt x="522" y="203" on="1"/>
        <pt x="522" y="248" on="0"/>
        <pt x="470" y="298" on="0"/>
        <pt x="419" y="298" on="1"/>
        <pt x="199" y="298" on="1"/>
        <pt x="199" y="109" on="1"/>
      </contour>
    </TTGlyph>
    <TTGlyph name="C" xMin="44" yMin="-12" xMax="679" yMax="698">
      <contour>
        <pt x="214" y="-12" on="0"/>
        <pt x="44" y="162" on="0"/>
        <pt x="44" y="343" on="1"/>
        <pt x="44" y="521" on="0"/>
        <pt x="216" y="698" on="0"/>
        <pt x="376" y="698" on="1"/>
        <pt x="464" y="698" on="0"/>
        <pt x="600" y="639" on="0"/>
        <pt x="679" y="520" on="0"/>
        <pt x="679" y="433" on="1"/>
        <pt x="548" y="433" on="1"/>
        <pt x="548" y="508" on="0"/>
        <pt x="455" y="590" on="0"/>
        <pt x="378" y="590" on="1"/>
        <pt x="275" y="590" on="0"/>
        <pt x="175" y="472" on="0"/>
        <pt x="175" y="353" on="1"/>
        <pt x="175" y="333" on="1"/>
        <pt x="175" y="213" on="0"/>
        <pt x="274" y="96" on="0"/>
        <pt x="378" y="96" on="1"/>
        <pt x="459" y="96" on="0"/>
        <pt x="553" y="177" on="0"/>
        <pt x="553" y="251" on="1"/>
        <pt x="679" y="251" on="1"/>
        <pt x="679" y="122" on="0"/>
        <pt x="512" y="-12" on="0"/>
        <pt x="376" y="-12" on="1"/>
      </contour>
    </TTGlyph>
    <TTGlyph name="Cacute" xMin="44" yMin="-12" xMax="679" yMax="868">
      <component glyphName=".ttfautohint" x="44" y="0" flags="0x0"/>
      <component glyphName="C" x="0" y="0" flags="0x0"/>
      <component glyphName="acute" x="238" y="145" flags="0x4"/>
    </TTGlyph>
    <TTGlyph name="Cacute.loclPLK" xMin="44" yMin="-12" xMax="679" yMax="867">
      <component glyphName=".ttfautohint" x="44" y="0" flags="0x0"/>
      <component glyphName="C" x="0" y="0" flags="0x0"/>
      <component glyphName="acute.loclPLK" x="218" y="145" flags="0x4"/>
    </TTGlyph>
    <TTGlyph name="Ccaron" xMin="44" yMin="-12" xMax="679" yMax="868">
      <component glyphName=".ttfautohint" x="44" y="0" flags="0x0"/>
      <component glyphName="C" x="0" y="0" flags="0x0"/>
      <component glyphName="caron" x="194" y="145" flags="0x4"/>
    </TTGlyph>
    <TTGlyph name="Ccedilla" xMin="44" yMin="-182" xMax="679" yMax="698">
      <contour>
        <pt x="459" y="96" on="0"/>
        <pt x="553" y="177" on="0"/>
        <pt x="553" y="251" on="1"/>
        <pt x="679" y="251" on="1"/>
        <pt x="679" y="130" on="0"/>
        <pt x="532" y="-3" on="0"/>
        <pt x="409" y="-11" on="1"/>
        <pt x="405" y="-34" on="1"/>
        <pt x="448" y="-36" on="0"/>
        <pt x="501" y="-69" on="0"/>
        <pt x="501" y="-101" on="1"/>
        <pt x="501" y="-146" on="0"/>
        <pt x="422" y="-182" on="0"/>
        <pt x="371" y="-182" on="1"/>
        <pt x="317" y="-182" on="0"/>
        <pt x="271" y="-174" on="1"/>
        <pt x="271" y="-125" on="1"/>
        <pt x="363" y="-125" on="1"/>
        <pt x="385" y="-125" on="0"/>
        <pt x="406" y="-115" on="0"/>
        <pt x="406" y="-101" on="1"/>
        <pt x="406" y="-88" on="0"/>
        <pt x="388" y="-77" on="0"/>
        <pt x="365" y="-77" on="1"/>
        <pt x="321" y="-77" on="1"/>
        <pt x="331" y="-10" on="1"/>
        <pt x="44" y="14" on="0"/>
        <pt x="44" y="343" on="1"/>
        <pt x="44" y="521" on="0"/>
        <pt x="216" y="698" on="0"/>
        <pt x="376" y="698" on="1"/>
        <pt x="464" y="698" on="0"/>
        <pt x="600" y="639" on="0"/>
        <pt x="679" y="520" on="0"/>
        <pt x="679" y="433" on="1"/>
        <pt x="548" y="433" on="1"/>
        <pt x="548" y="508" on="0"/>
        <pt x="455" y="590" on="0"/>
        <pt x="378" y="590" on="1"/>
        <pt x="275" y="590" on="0"/>
        <pt x="175" y="472" on="0"/>
        <pt x="175" y="353" on="1"/>
        <pt x="175" y="333" on="1"/>
        <pt x="175" y="213" on="0"/>
        <pt x="274" y="96" on="0"/>
        <pt x="378" y="96" on="1"/>
      </contour>
    </TTGlyph>
    <TTGlyph name="Ccircumflex" xMin="44" yMin="-12" xMax="679" yMax="868">
      <component glyphName=".ttfautohint" x="44" y="0" flags="0x0"/>
      <component glyphName="C" x="0" y="0" flags="0x0"/>
      <component glyphName="circumflex" x="194" y="145" flags="0x4"/>
    </TTGlyph>
    <TTGlyph name="Cdotaccent" xMin="44" yMin="-12" xMax="679" yMax="869">
      <component glyphName=".ttfautohint" x="44" y="0" flags="0x0"/>
      <component glyphName="C" x="0" y="0" flags="0x0"/>
      <component glyphName="dotaccent" x="193" y="145" flags="0x4"/>
    </TTGlyph>
    <TTGlyph name="D" xMin="71" yMin="0" xMax="678" yMax="686">
      <contour>
        <pt x="71" y="686" on="1"/>
        <pt x="345" y="686" on="1"/>
        <pt x="504" y="686" on="0"/>
        <pt x="678" y="515" on="0"/>
        <pt x="678" y="343" on="1"/>
        <pt x="678" y="171" on="0"/>
        <pt x="504" y="0" on="0"/>
        <pt x="345" y="0" on="1"/>
        <pt x="71" y="0" on="1"/>
      </contour>
      <contour>
        <pt x="345" y="109" on="1"/>
        <pt x="443" y="109" on="0"/>
        <pt x="546" y="221" on="0"/>
        <pt x="547" y="333" on="1"/>
        <pt x="547" y="353" on="1"/>
        <pt x="547" y="464" on="0"/>
        <pt x="443" y="577" on="0"/>
        <pt x="345" y="577" on="1"/>
        <pt x="199" y="577" on="1"/>
        <pt x="199" y="109" on="1"/>
      </contour>
    </TTGlyph>
    <TTGlyph name="Dcaron" xMin="71" yMin="0" xMax="678" yMax="868">
      <component glyphName=".ttfautohint" x="71" y="0" flags="0x0"/>
      <component glyphName="D" x="0" y="0" flags="0x0"/>
      <component glyphName="caron" x="194" y="145" flags="0x4"/>
    </TTGlyph>
    <TTGlyph name="Dcroat" xMin="4" yMin="0" xMax="678" yMax="686">
      <component glyphName=".ttfautohint" x="4" y="0" flags="0x0"/>
      <component glyphName="Eth" x="0" y="0" flags="0x0"/>
    </TTGlyph>
    <TTGlyph name="E" xMin="71" yMin="0" xMax="612" yMax="686">
      <contour>
        <pt x="71" y="686" on="1"/>
        <pt x="606" y="686" on="1"/>
        <pt x="606" y="577" on="1"/>
        <pt x="199" y="577" on="1"/>
        <pt x="199" y="405" on="1"/>
        <pt x="562" y="405" on="1"/>
        <pt x="562" y="296" on="1"/>
        <pt x="199" y="296" on="1"/>
        <pt x="199" y="109" on="1"/>
        <pt x="612" y="109" on="1"/>
        <pt x="612" y="0" on="1"/>
        <pt x="71" y="0" on="1"/>
      </contour>
    </TTGlyph>
    <TTGlyph name="Eacute" xMin="71" yMin="0" xMax="612" yMax="868">
      <component glyphName=".ttfautohint" x="71" y="0" flags="0x0"/>
      <component glyphName="E" x="0" y="0" flags="0x0"/>
      <component glyphName="acute" x="211" y="145" flags="0x4"/>
    </TTGlyph>
    <TTGlyph name="Ebreve" xMin="71" yMin="0" xMax="612" yMax="868">
      <component glyphName=".ttfautohint" x="71" y="0" flags="0x0"/>
      <component glyphName="E" x="0" y="0" flags="0x0"/>
      <component glyphName="breve" x="167" y="145" flags="0x4"/>
    </TTGlyph>
    <TTGlyph name="Ecaron" xMin="71" yMin="0" xMax="612" yMax="868">
      <component glyphName=".ttfautohint" x="71" y="0" flags="0x0"/>
      <component glyphName="E" x="0" y="0" flags="0x0"/>
      <component glyphName="caron" x="167" y="145" flags="0x4"/>
    </TTGlyph>
    <TTGlyph name="Ecircumflex" xMin="71" yMin="0" xMax="612" yMax="868">
      <component glyphName=".ttfautohint" x="71" y="0" flags="0x0"/>
      <component glyphName="E" x="0" y="0" flags="0x0"/>
      <component glyphName="circumflex" x="167" y="145" flags="0x4"/>
    </TTGlyph>
    <TTGlyph name="Edieresis" xMin="71" yMin="0" xMax="612" yMax="868">
      <component glyphName=".ttfautohint" x="71" y="0" flags="0x0"/>
      <component glyphName="E" x="0" y="0" flags="0x0"/>
      <component glyphName="dieresis" x="168" y="145" flags="0x4"/>
    </TTGlyph>
    <TTGlyph name="Edotaccent" xMin="71" yMin="0" xMax="612" yMax="869">
      <component glyphName=".ttfautohint" x="71" y="0" flags="0x0"/>
      <component glyphName="E" x="0" y="0" flags="0x0"/>
      <component glyphName="dotaccent" x="166" y="145" flags="0x4"/>
    </TTGlyph>
    <TTGlyph name="Egrave" xMin="71" yMin="0" xMax="612" yMax="868">
      <component glyphName=".ttfautohint" x="71" y="0" flags="0x0"/>
      <component glyphName="E" x="0" y="0" flags="0x0"/>
      <component glyphName="grave" x="103" y="145" flags="0x4"/>
    </TTGlyph>
    <TTGlyph name="Emacron" xMin="71" yMin="0" xMax="612" yMax="844">
      <component glyphName=".ttfautohint" x="71" y="0" flags="0x0"/>
      <component glyphName="E" x="0" y="0" flags="0x0"/>
      <component glyphName="macron" x="167" y="145" flags="0x4"/>
    </TTGlyph>
    <TTGlyph name="Eng" xMin="71" yMin="-182" xMax="651" yMax="686">
      <contour>
        <pt x="501" y="-182" on="0"/>
        <pt x="451" y="-173" on="0"/>
        <pt x="435" y="-167" on="1"/>
        <pt x="435" y="-85" on="1"/>
        <pt x="483" y="-85" on="1"/>
        <pt x="528" y="-85" on="0"/>
        <pt x="528" y="-40" on="1"/>
        <pt x="528" y="0" on="1"/>
        <pt x="232" y="412" on="1"/>
        <pt x="221" y="426" on="0"/>
        <pt x="200" y="462" on="0"/>
        <pt x="197" y="466" on="1"/>
        <pt x="192" y="464" on="1"/>
        <pt x="193" y="456" on="0"/>
        <pt x="195" y="424" on="0"/>
        <pt x="195" y="409" on="1"/>
        <pt x="194" y="0" on="1"/>
        <pt x="71" y="0" on="1"/>
        <pt x="71" y="686" on="1"/>
        <pt x="193" y="686" on="1"/>
        <pt x="491" y="279" on="1"/>
        <pt x="496" y="272" on="0"/>
        <pt x="512" y="245" on="1"/>
        <pt x="522" y="227" on="0"/>
        <pt x="525" y="224" on="1"/>
        <pt x="530" y="226" on="1"/>
        <pt x="528" y="280" on="1"/>
        <pt x="528" y="686" on="1"/>
        <pt x="651" y="686" on="1"/>
        <pt x="651" y="-48" on="1"/>
        <pt x="651" y="-105" on="0"/>
        <pt x="591" y="-182" on="0"/>
        <pt x="523" y="-182" on="1"/>
      </contour>
    </TTGlyph>
    <TTGlyph name="Eogonek" xMin="71" yMin="-182" xMax="612" yMax="686">
      <contour>
        <pt x="502" y="-182" on="0"/>
        <pt x="440" y="-142" on="0"/>
        <pt x="440" y="-98" on="1"/>
        <pt x="440" y="-66" on="0"/>
        <pt x="477" y="-19" on="0"/>
        <pt x="510" y="0" on="1"/>
        <pt x="71" y="0" on="1"/>
        <pt x="71" y="686" on="1"/>
        <pt x="606" y="686" on="1"/>
        <pt x="606" y="577" on="1"/>
        <pt x="199" y="577" on="1"/>
        <pt x="199" y="405" on="1"/>
        <pt x="562" y="405" on="1"/>
        <pt x="562" y="296" on="1"/>
        <pt x="199" y="296" on="1"/>
        <pt x="199" y="109" on="1"/>
        <pt x="612" y="109" on="1"/>
        <pt x="612" y="0" on="1"/>
        <pt x="583" y="-8" on="0"/>
        <pt x="536" y="-51" on="0"/>
        <pt x="536" y="-73" on="1"/>
        <pt x="536" y="-90" on="0"/>
        <pt x="561" y="-114" on="0"/>
        <pt x="586" y="-114" on="1"/>
        <pt x="612" y="-114" on="1"/>
        <pt x="612" y="-168" on="1"/>
        <pt x="575" y="-182" on="0"/>
        <pt x="543" y="-182" on="1"/>
      </contour>
    </TTGlyph>
    <TTGlyph name="Eth" xMin="4" yMin="0" xMax="678" yMax="686">
      <contour>
        <pt x="504" y="686" on="0"/>
        <pt x="678" y="515" on="0"/>
        <pt x="678" y="343" on="1"/>
        <pt x="678" y="171" on="0"/>
        <pt x="504" y="0" on="0"/>
        <pt x="345" y="0" on="1"/>
        <pt x="71" y="0" on="1"/>
        <pt x="71" y="316" on="1"/>
        <pt x="4" y="316" on="1"/>
        <pt x="4" y="394" on="1"/>
        <pt x="71" y="394" on="1"/>
        <pt x="71" y="686" on="1"/>
        <pt x="345" y="686" on="1"/>
      </contour>
      <contour>
        <pt x="547" y="353" on="1"/>
        <pt x="547" y="464" on="0"/>
        <pt x="443" y="577" on="0"/>
        <pt x="345" y="577" on="1"/>
        <pt x="199" y="577" on="1"/>
        <pt x="199" y="394" on="1"/>
        <pt x="350" y="394" on="1"/>
        <pt x="350" y="316" on="1"/>
        <pt x="199" y="316" on="1"/>
        <pt x="199" y="109" on="1"/>
        <pt x="345" y="109" on="1"/>
        <pt x="443" y="109" on="0"/>
        <pt x="546" y="221" on="0"/>
        <pt x="547" y="333" on="1"/>
      </contour>
    </TTGlyph>
    <TTGlyph name="Euro" xMin="13" yMin="-12" xMax="522" yMax="698">
      <contour>
        <pt x="290" y="-12" on="0"/>
        <pt x="116" y="118" on="0"/>
        <pt x="87" y="233" on="1"/>
        <pt x="13" y="233" on="1"/>
        <pt x="13" y="308" on="1"/>
        <pt x="75" y="308" on="1"/>
        <pt x="74" y="319" on="0"/>
        <pt x="74" y="343" on="1"/>
        <pt x="74" y="366" on="0"/>
        <pt x="75" y="378" on="1"/>
        <pt x="13" y="378" on="1"/>
        <pt x="13" y="453" on="1"/>
        <pt x="87" y="453" on="1"/>
        <pt x="116" y="567" on="0"/>
        <pt x="290" y="698" on="0"/>
        <pt x="415" y="698" on="1"/>
        <pt x="465" y="698" on="0"/>
        <pt x="522" y="683" on="1"/>
        <pt x="522" y="586" on="1"/>
        <pt x="480" y="600" on="0"/>
        <pt x="437" y="600" on="1"/>
        <pt x="359" y="600" on="0"/>
        <pt x="241" y="523" on="0"/>
        <pt x="216" y="453" on="1"/>
        <pt x="450" y="453" on="1"/>
        <pt x="450" y="378" on="1"/>
        <pt x="198" y="378" on="1"/>
        <pt x="197" y="367" on="0"/>
        <pt x="197" y="343" on="1"/>
        <pt x="197" y="319" on="0"/>
        <pt x="198" y="308" on="1"/>
        <pt x="450" y="308" on="1"/>
        <pt x="450" y="233" on="1"/>
        <pt x="216" y="233" on="1"/>
        <pt x="241" y="163" on="0"/>
        <pt x="359" y="86" on="0"/>
        <pt x="437" y="86" on="1"/>
        <pt x="480" y="86" on="0"/>
        <pt x="522" y="100" on="1"/>
        <pt x="522" y="3" on="1"/>
        <pt x="471" y="-12" on="0"/>
        <pt x="415" y="-12" on="1"/>
      </contour>
    </TTGlyph>
    <TTGlyph name="F" xMin="71" yMin="0" xMax="564" yMax="686">
      <contour>
        <pt x="71" y="686" on="1"/>
        <pt x="564" y="686" on="1"/>
        <pt x="564" y="577" on="1"/>
        <pt x="199" y="577" on="1"/>
        <pt x="199" y="391" on="1"/>
        <pt x="528" y="391" on="1"/>
        <pt x="528" y="282" on="1"/>
        <pt x="199" y="282" on="1"/>
        <pt x="199" y="0" on="1"/>
        <pt x="71" y="0" on="1"/>
      </contour>
    </TTGlyph>
    <TTGlyph name="G" xMin="44" yMin="-12" xMax="714" yMax="698">
      <contour>
        <pt x="366" y="367" on="1"/>
        <pt x="714" y="367" on="1"/>
        <pt x="714" y="0" on="1"/>
        <pt x="623" y="0" on="1"/>
        <pt x="612" y="76" on="1"/>
        <pt x="567" y="31" on="0"/>
        <pt x="455" y="-12" on="0"/>
        <pt x="379" y="-12" on="1"/>
        <pt x="216" y="-12" on="0"/>
        <pt x="44" y="163" on="0"/>
        <pt x="44" y="343" on="1"/>
        <pt x="44" y="521" on="0"/>
        <pt x="225" y="698" on="0"/>
        <pt x="394" y="698" on="1"/>
        <pt x="484" y="698" on="0"/>
        <pt x="629" y="643" on="0"/>
        <pt x="714" y="533" on="0"/>
        <pt x="714" y="452" on="1"/>
        <pt x="582" y="452" on="1"/>
        <pt x="582" y="517" on="0"/>
        <pt x="476" y="590" on="0"/>
        <pt x="397" y="590" on="1"/>
        <pt x="285" y="590" on="0"/>
        <pt x="175" y="472" on="0"/>
        <pt x="175" y="353" on="1"/>
        <pt x="175" y="333" on="1"/>
        <pt x="176" y="210" on="0"/>
        <pt x="279" y="96" on="0"/>
        <pt x="385" y="96" on="1"/>
        <pt x="479" y="96" on="0"/>
        <pt x="586" y="182" on="0"/>
        <pt x="586" y="260" on="1"/>
        <pt x="586" y="261" on="1"/>
        <pt x="366" y="261" on="1"/>
      </contour>
    </TTGlyph>
    <TTGlyph name="G_tilde.loclGUA" xMin="44" yMin="-12" xMax="714" yMax="868">
      <component glyphName=".ttfautohint" x="44" y="0" flags="0x0"/>
      <component glyphName="G" x="0" y="0" flags="0x0"/>
      <component glyphName="tilde" x="222" y="145" flags="0x4"/>
    </TTGlyph>
    <TTGlyph name="Gbreve" xMin="44" yMin="-12" xMax="714" yMax="868">
      <component glyphName=".ttfautohint" x="44" y="0" flags="0x0"/>
      <component glyphName="G" x="0" y="0" flags="0x0"/>
      <component glyphName="breve" x="222" y="145" flags="0x4"/>
    </TTGlyph>
    <TTGlyph name="Gcaron" xMin="44" yMin="-12" xMax="714" yMax="868">
      <component glyphName=".ttfautohint" x="44" y="0" flags="0x0"/>
      <component glyphName="G" x="0" y="0" flags="0x0"/>
      <component glyphName="caron" x="222" y="145" flags="0x4"/>
    </TTGlyph>
    <TTGlyph name="Gcircumflex" xMin="44" yMin="-12" xMax="714" yMax="868">
      <component glyphName=".ttfautohint" x="44" y="0" flags="0x0"/>
      <component glyphName="G" x="0" y="0" flags="0x0"/>
      <component glyphName="circumflex" x="222" y="145" flags="0x4"/>
    </TTGlyph>
    <TTGlyph name="Gcommaaccent" xMin="44" yMin="-230" xMax="714" yMax="698">
      <component glyphName=".ttfautohint" x="44" y="0" flags="0x0"/>
      <component glyphName="G" x="0" y="0" flags="0x0"/>
      <component glyphName="uni0326" x="536" y="0" flags="0x0"/>
    </TTGlyph>
    <TTGlyph name="Gdotaccent" xMin="44" yMin="-12" xMax="714" yMax="869">
      <component glyphName=".ttfautohint" x="44" y="0" flags="0x0"/>
      <component glyphName="G" x="0" y="0" flags="0x0"/>
      <component glyphName="dotaccent" x="221" y="145" flags="0x4"/>
    </TTGlyph>
    <TTGlyph name="H" xMin="71" yMin="0" xMax="651" yMax="686">
      <contour>
        <pt x="71" y="686" on="1"/>
        <pt x="199" y="686" on="1"/>
        <pt x="199" y="406" on="1"/>
        <pt x="523" y="406" on="1"/>
        <pt x="523" y="686" on="1"/>
        <pt x="651" y="686" on="1"/>
        <pt x="651" y="0" on="1"/>
        <pt x="523" y="0" on="1"/>
        <pt x="523" y="296" on="1"/>
        <pt x="199" y="296" on="1"/>
        <pt x="199" y="0" on="1"/>
        <pt x="71" y="0" on="1"/>
      </contour>
    </TTGlyph>
    <TTGlyph name="Hbar" xMin="8" yMin="0" xMax="714" yMax="686">
      <contour>
        <pt x="71" y="514" on="1"/>
        <pt x="8" y="514" on="1"/>
        <pt x="8" y="598" on="1"/>
        <pt x="71" y="598" on="1"/>
        <pt x="71" y="686" on="1"/>
        <pt x="199" y="686" on="1"/>
        <pt x="199" y="598" on="1"/>
        <pt x="523" y="598" on="1"/>
        <pt x="523" y="686" on="1"/>
        <pt x="651" y="686" on="1"/>
        <pt x="651" y="598" on="1"/>
        <pt x="714" y="598" on="1"/>
        <pt x="714" y="514" on="1"/>
        <pt x="651" y="514" on="1"/>
        <pt x="651" y="0" on="1"/>
        <pt x="523" y="0" on="1"/>
        <pt x="523" y="296" on="1"/>
        <pt x="199" y="296" on="1"/>
        <pt x="199" y="0" on="1"/>
        <pt x="71" y="0" on="1"/>
      </contour>
      <contour>
        <pt x="523" y="406" on="1"/>
        <pt x="523" y="514" on="1"/>
        <pt x="199" y="514" on="1"/>
        <pt x="199" y="406" on="1"/>
      </contour>
    </TTGlyph>
    <TTGlyph name="Hcircumflex" xMin="71" yMin="0" xMax="651" yMax="868">
      <component glyphName=".ttfautohint" x="71" y="0" flags="0x0"/>
      <component glyphName="H" x="0" y="0" flags="0x0"/>
      <component glyphName="circumflex" x="194" y="145" flags="0x4"/>
    </TTGlyph>
    <TTGlyph name="I" xMin="76" yMin="0" xMax="203" yMax="686">
      <contour>
        <pt x="76" y="686" on="1"/>
        <pt x="203" y="686" on="1"/>
        <pt x="203" y="0" on="1"/>
        <pt x="76" y="0" on="1"/>
      </contour>
    </TTGlyph>
    <TTGlyph name="IJ" xMin="76" yMin="-12" xMax="748" yMax="686">
      <component glyphName=".ttfautohint" x="76" y="0" flags="0x0"/>
      <component glyphName="I" x="0" y="0" flags="0x0"/>
      <component glyphName="J" x="278" y="0" flags="0x0"/>
    </TTGlyph>
    <TTGlyph name="Iacute" xMin="76" yMin="0" xMax="294" yMax="868">
      <component glyphName=".ttfautohint" x="76" y="0" flags="0x0"/>
      <component glyphName="I" x="0" y="0" flags="0x0"/>
      <component glyphName="acute" x="16" y="145" flags="0x4"/>
    </TTGlyph>
    <TTGlyph name="Iacute_J.loclNLD" xMin="76" yMin="-12" xMax="839" yMax="868">
      <component glyphName=".ttfautohint" x="76" y="0" flags="0x0"/>
      <component glyphName="I" x="0" y="0" flags="0x0"/>
      <component glyphName="acute" x="16" y="145" flags="0x4"/>
      <component glyphName="J" x="278" y="0" flags="0x0"/>
      <component glyphName="acute" x="561" y="145" flags="0x4"/>
    </TTGlyph>
    <TTGlyph name="Ibreve" xMin="-17" yMin="0" xMax="294" yMax="868">
      <component glyphName=".ttfautohint" x="0" y="0" flags="0x0"/>
      <component glyphName="I" x="0" y="0" flags="0x0"/>
      <component glyphName="breve" x="-28" y="145" flags="0x4"/>
    </TTGlyph>
    <TTGlyph name="Icircumflex" xMin="-21" yMin="0" xMax="298" yMax="868">
      <component glyphName=".ttfautohint" x="0" y="0" flags="0x0"/>
      <component glyphName="I" x="0" y="0" flags="0x0"/>
      <component glyphName="circumflex" x="-28" y="145" flags="0x4"/>
    </TTGlyph>
    <TTGlyph name="Idieresis" xMin="-15" yMin="0" xMax="295" yMax="868">
      <component glyphName=".ttfautohint" x="0" y="0" flags="0x0"/>
      <component glyphName="I" x="0" y="0" flags="0x0"/>
      <component glyphName="dieresis" x="-27" y="145" flags="0x4"/>
    </TTGlyph>
    <TTGlyph name="Idotaccent" xMin="76" yMin="0" xMax="203" yMax="869">
      <component glyphName=".ttfautohint" x="76" y="0" flags="0x0"/>
      <component glyphName="I" x="0" y="0" flags="0x0"/>
      <component glyphName="dotaccent" x="-29" y="145" flags="0x4"/>
    </TTGlyph>
    <TTGlyph name="Igrave" xMin="-17" yMin="0" xMax="203" yMax="868">
      <component glyphName=".ttfautohint" x="0" y="0" flags="0x0"/>
      <component glyphName="I" x="0" y="0" flags="0x0"/>
      <component glyphName="grave" x="-92" y="145" flags="0x4"/>
    </TTGlyph>
    <TTGlyph name="Imacron" xMin="-14" yMin="0" xMax="291" yMax="844">
      <component glyphName=".ttfautohint" x="0" y="0" flags="0x0"/>
      <component glyphName="I" x="0" y="0" flags="0x0"/>
      <component glyphName="macron" x="-28" y="145" flags="0x4"/>
    </TTGlyph>
    <TTGlyph name="Iogonek" xMin="38" yMin="-190" xMax="210" yMax="686">
      <contour>
        <pt x="210" y="-122" on="1"/>
        <pt x="210" y="-176" on="1"/>
        <pt x="173" y="-190" on="0"/>
        <pt x="142" y="-190" on="1"/>
        <pt x="99" y="-190" on="0"/>
        <pt x="38" y="-148" on="0"/>
        <pt x="38" y="-101" on="1"/>
        <pt x="38" y="-69" on="0"/>
        <pt x="64" y="-22" on="0"/>
        <pt x="87" y="0" on="1"/>
        <pt x="76" y="0" on="1"/>
        <pt x="76" y="686" on="1"/>
        <pt x="203" y="686" on="1"/>
        <pt x="203" y="0" on="1"/>
        <pt x="167" y="0" on="1"/>
        <pt x="154" y="-14" on="0"/>
        <pt x="133" y="-51" on="0"/>
        <pt x="133" y="-70" on="1"/>
        <pt x="133" y="-92" on="0"/>
        <pt x="158" y="-122" on="0"/>
        <pt x="183" y="-122" on="1"/>
      </contour>
    </TTGlyph>
    <TTGlyph name="Itilde" xMin="-28" yMin="0" xMax="305" yMax="868">
      <component glyphName=".ttfautohint" x="0" y="0" flags="0x0"/>
      <component glyphName="I" x="0" y="0" flags="0x0"/>
      <component glyphName="tilde" x="-28" y="145" flags="0x4"/>
    </TTGlyph>
    <TTGlyph name="J" xMin="26" yMin="-12" xMax="470" yMax="686">
      <contour>
        <pt x="142" y="-12" on="0"/>
        <pt x="26" y="91" on="0"/>
        <pt x="26" y="190" on="1"/>
        <pt x="26" y="226" on="1"/>
        <pt x="153" y="226" on="1"/>
        <pt x="153" y="189" on="1"/>
        <pt x="153" y="144" on="0"/>
        <pt x="202" y="96" on="0"/>
        <pt x="249" y="96" on="1"/>
        <pt x="294" y="96" on="0"/>
        <pt x="341" y="147" on="0"/>
        <pt x="341" y="195" on="1"/>
        <pt x="341" y="686" on="1"/>
        <pt x="470" y="686" on="1"/>
        <pt x="470" y="195" on="1"/>
        <pt x="470" y="93" on="0"/>
        <pt x="356" y="-12" on="0"/>
        <pt x="249" y="-12" on="1"/>
      </contour>
    </TTGlyph>
    <TTGlyph name="Jcircumflex" xMin="26" yMin="-12" xMax="565" yMax="868">
      <component glyphName=".ttfautohint" x="26" y="0" flags="0x0"/>
      <component glyphName="J" x="0" y="0" flags="0x0"/>
      <component glyphName="circumflex" x="239" y="145" flags="0x4"/>
    </TTGlyph>
    <TTGlyph name="K" xMin="71" yMin="0" xMax="693" yMax="686">
      <contour>
        <pt x="71" y="686" on="1"/>
        <pt x="199" y="686" on="1"/>
        <pt x="199" y="339" on="1"/>
        <pt x="532" y="686" on="1"/>
        <pt x="688" y="686" on="1"/>
        <pt x="422" y="409" on="1"/>
        <pt x="693" y="0" on="1"/>
        <pt x="542" y="0" on="1"/>
        <pt x="336" y="319" on="1"/>
        <pt x="199" y="199" on="1"/>
        <pt x="199" y="0" on="1"/>
        <pt x="71" y="0" on="1"/>
      </contour>
    </TTGlyph>
    <TTGlyph name="Kcommaaccent" xMin="71" yMin="-230" xMax="693" yMax="686">
      <component glyphName=".ttfautohint" x="71" y="0" flags="0x0"/>
      <component glyphName="K" x="0" y="0" flags="0x0"/>
      <component glyphName="uni0326" x="499" y="0" flags="0x0"/>
    </TTGlyph>
    <TTGlyph name="L" xMin="71" yMin="0" xMax="563" yMax="686">
      <contour>
        <pt x="71" y="686" on="1"/>
        <pt x="199" y="686" on="1"/>
        <pt x="199" y="111" on="1"/>
        <pt x="563" y="111" on="1"/>
        <pt x="563" y="0" on="1"/>
        <pt x="71" y="0" on="1"/>
      </contour>
    </TTGlyph>
    <TTGlyph name="Lacute" xMin="71" yMin="0" xMax="563" yMax="868">
      <component glyphName=".ttfautohint" x="71" y="0" flags="0x0"/>
      <component glyphName="L" x="0" y="0" flags="0x0"/>
      <component glyphName="acute" x="12" y="145" flags="0x4"/>
    </TTGlyph>
    <TTGlyph name="Lcaron" xMin="71" yMin="0" xMax="563" yMax="686">
      <contour>
        <pt x="71" y="686" on="1"/>
        <pt x="199" y="686" on="1"/>
        <pt x="199" y="111" on="1"/>
        <pt x="563" y="111" on="1"/>
        <pt x="563" y="0" on="1"/>
        <pt x="71" y="0" on="1"/>
      </contour>
      <contour>
        <pt x="390" y="571" on="1"/>
        <pt x="342" y="571" on="1"/>
        <pt x="342" y="686" on="1"/>
        <pt x="462" y="686" on="1"/>
        <pt x="462" y="582" on="1"/>
        <pt x="404" y="459" on="1"/>
        <pt x="342" y="459" on="1"/>
      </contour>
    </TTGlyph>
    <TTGlyph name="Lcommaaccent" xMin="71" yMin="-230" xMax="563" yMax="686">
      <component glyphName=".ttfautohint" x="71" y="0" flags="0x0"/>
      <component glyphName="L" x="0" y="0" flags="0x0"/>
      <component glyphName="uni0326" x="464" y="0" flags="0x0"/>
    </TTGlyph>
    <TTGlyph name="Ldot" xMin="71" yMin="0" xMax="563" yMax="686">
      <component glyphName=".ttfautohint" x="71" y="0" flags="0x0"/>
      <component glyphName="L" x="0" y="0" flags="0x0"/>
      <component glyphName="periodcentered" x="243" y="105" flags="0x4"/>
    </TTGlyph>
    <TTGlyph name="Lslash" xMin="2" yMin="0" xMax="563" yMax="686">
      <contour>
        <pt x="71" y="253" on="1"/>
        <pt x="2" y="207" on="1"/>
        <pt x="2" y="302" on="1"/>
        <pt x="71" y="347" on="1"/>
        <pt x="71" y="686" on="1"/>
        <pt x="199" y="686" on="1"/>
        <pt x="199" y="432" on="1"/>
        <pt x="349" y="531" on="1"/>
        <pt x="349" y="436" on="1"/>
        <pt x="199" y="337" on="1"/>
        <pt x="199" y="111" on="1"/>
        <pt x="563" y="111" on="1"/>
        <pt x="563" y="0" on="1"/>
        <pt x="71" y="0" on="1"/>
      </contour>
    </TTGlyph>
    <TTGlyph name="M" xMin="71" yMin="0" xMax="762" yMax="686">
      <contour>
        <pt x="71" y="686" on="1"/>
        <pt x="268" y="686" on="1"/>
        <pt x="387" y="277" on="1"/>
        <pt x="395" y="250" on="0"/>
        <pt x="416" y="155" on="0"/>
        <pt x="419" y="140" on="1"/>
        <pt x="424" y="140" on="1"/>
        <pt x="427" y="156" on="0"/>
        <pt x="445" y="253" on="0"/>
        <pt x="452" y="277" on="1"/>
        <pt x="572" y="686" on="1"/>
        <pt x="762" y="686" on="1"/>
        <pt x="762" y="0" on="1"/>
        <pt x="634" y="0" on="1"/>
        <pt x="634" y="443" on="1"/>
        <pt x="634" y="472" on="0"/>
        <pt x="638" y="545" on="0"/>
        <pt x="639" y="559" on="1"/>
        <pt x="633" y="559" on="1"/>
        <pt x="625" y="525" on="0"/>
        <pt x="613" y="483" on="1"/>
        <pt x="472" y="0" on="1"/>
        <pt x="354" y="0" on="1"/>
        <pt x="214" y="483" on="1"/>
        <pt x="207" y="506" on="0"/>
        <pt x="200" y="535" on="1"/>
        <pt x="194" y="559" on="1"/>
        <pt x="189" y="559" on="1"/>
        <pt x="190" y="545" on="0"/>
        <pt x="193" y="473" on="0"/>
        <pt x="193" y="443" on="1"/>
        <pt x="193" y="0" on="1"/>
        <pt x="71" y="0" on="1"/>
      </contour>
    </TTGlyph>
    <TTGlyph name="N" xMin="71" yMin="0" xMax="651" yMax="686">
      <contour>
        <pt x="71" y="686" on="1"/>
        <pt x="193" y="686" on="1"/>
        <pt x="491" y="277" on="1"/>
        <pt x="503" y="259" on="0"/>
        <pt x="521" y="228" on="0"/>
        <pt x="525" y="222" on="1"/>
        <pt x="530" y="224" on="1"/>
        <pt x="528" y="278" on="1"/>
        <pt x="528" y="686" on="1"/>
        <pt x="651" y="686" on="1"/>
        <pt x="651" y="0" on="1"/>
        <pt x="531" y="0" on="1"/>
        <pt x="231" y="413" on="1"/>
        <pt x="220" y="428" on="0"/>
        <pt x="200" y="465" on="0"/>
        <pt x="197" y="469" on="1"/>
        <pt x="192" y="466" on="1"/>
        <pt x="192" y="461" on="0"/>
        <pt x="194" y="431" on="0"/>
        <pt x="194" y="411" on="1"/>
        <pt x="194" y="0" on="1"/>
        <pt x="71" y="0" on="1"/>
      </contour>
    </TTGlyph>
    <TTGlyph name="Nacute" xMin="71" yMin="0" xMax="651" yMax="868">
      <component glyphName=".ttfautohint" x="71" y="0" flags="0x0"/>
      <component glyphName="N" x="0" y="0" flags="0x0"/>
      <component glyphName="acute" x="238" y="145" flags="0x4"/>
    </TTGlyph>
    <TTGlyph name="Nacute.loclPLK" xMin="71" yMin="0" xMax="651" yMax="867">
      <component glyphName=".ttfautohint" x="71" y="0" flags="0x0"/>
      <component glyphName="N" x="0" y="0" flags="0x0"/>
      <component glyphName="acute.loclPLK" x="218" y="145" flags="0x4"/>
    </TTGlyph>
    <TTGlyph name="Ncaron" xMin="71" yMin="0" xMax="651" yMax="868">
      <component glyphName=".ttfautohint" x="71" y="0" flags="0x0"/>
      <component glyphName="N" x="0" y="0" flags="0x0"/>
      <component glyphName="caron" x="194" y="145" flags="0x4"/>
    </TTGlyph>
    <TTGlyph name="Ncommaaccent" xMin="71" yMin="-230" xMax="651" yMax="686">
      <component glyphName=".ttfautohint" x="71" y="0" flags="0x0"/>
      <component glyphName="N" x="0" y="0" flags="0x0"/>
      <component glyphName="uni0326" x="508" y="0" flags="0x0"/>
    </TTGlyph>
    <TTGlyph name="Ntilde" xMin="71" yMin="0" xMax="651" yMax="868">
      <component glyphName=".ttfautohint" x="71" y="0" flags="0x0"/>
      <component glyphName="N" x="0" y="0" flags="0x0"/>
      <component glyphName="tilde" x="194" y="145" flags="0x4"/>
    </TTGlyph>
    <TTGlyph name="O" xMin="44" yMin="-12" xMax="735" yMax="698">
      <contour>
        <pt x="224" y="-12" on="0"/>
        <pt x="44" y="166" on="0"/>
        <pt x="44" y="343" on="1"/>
        <pt x="44" y="520" on="0"/>
        <pt x="224" y="698" on="0"/>
        <pt x="389" y="698" on="1"/>
        <pt x="554" y="698" on="0"/>
        <pt x="735" y="520" on="0"/>
        <pt x="735" y="343" on="1"/>
        <pt x="735" y="166" on="0"/>
        <pt x="554" y="-12" on="0"/>
        <pt x="389" y="-12" on="1"/>
      </contour>
      <contour>
        <pt x="495" y="96" on="0"/>
        <pt x="604" y="215" on="0"/>
        <pt x="604" y="332" on="1"/>
        <pt x="604" y="353" on="1"/>
        <pt x="604" y="470" on="0"/>
        <pt x="494" y="590" on="0"/>
        <pt x="389" y="590" on="1"/>
        <pt x="285" y="590" on="0"/>
        <pt x="175" y="470" on="0"/>
        <pt x="175" y="353" on="1"/>
        <pt x="175" y="332" on="1"/>
        <pt x="175" y="215" on="0"/>
        <pt x="284" y="96" on="0"/>
        <pt x="389" y="96" on="1"/>
      </contour>
    </TTGlyph>
    <TTGlyph name="OE" xMin="44" yMin="-12" xMax="945" yMax="698">
      <contour>
        <pt x="187" y="-12" on="0"/>
        <pt x="44" y="170" on="0"/>
        <pt x="44" y="343" on="1"/>
        <pt x="44" y="516" on="0"/>
        <pt x="187" y="698" on="0"/>
        <pt x="316" y="698" on="1"/>
        <pt x="428" y="698" on="0"/>
        <pt x="496" y="624" on="1"/>
        <pt x="496" y="686" on="1"/>
        <pt x="939" y="686" on="1"/>
        <pt x="939" y="578" on="1"/>
        <pt x="624" y="578" on="1"/>
        <pt x="624" y="405" on="1"/>
        <pt x="891" y="405" on="1"/>
        <pt x="891" y="297" on="1"/>
        <pt x="624" y="297" on="1"/>
        <pt x="624" y="108" on="1"/>
        <pt x="945" y="108" on="1"/>
        <pt x="945" y="0" on="1"/>
        <pt x="496" y="0" on="1"/>
        <pt x="496" y="61" on="1"/>
        <pt x="424" y="-12" on="0"/>
        <pt x="316" y="-12" on="1"/>
      </contour>
      <contour>
        <pt x="416" y="96" on="0"/>
        <pt x="496" y="212" on="0"/>
        <pt x="496" y="343" on="1"/>
        <pt x="496" y="474" on="0"/>
        <pt x="416" y="590" on="0"/>
        <pt x="340" y="590" on="1"/>
        <pt x="255" y="590" on="0"/>
        <pt x="175" y="471" on="0"/>
        <pt x="175" y="343" on="1"/>
        <pt x="175" y="215" on="0"/>
        <pt x="255" y="96" on="0"/>
        <pt x="340" y="96" on="1"/>
      </contour>
    </TTGlyph>
    <TTGlyph name="Oacute" xMin="44" yMin="-12" xMax="735" yMax="868">
      <component glyphName=".ttfautohint" x="44" y="0" flags="0x0"/>
      <component glyphName="O" x="0" y="0" flags="0x0"/>
      <component glyphName="acute" x="266" y="145" flags="0x4"/>
    </TTGlyph>
    <TTGlyph name="Oacute.loclPLK" xMin="44" yMin="-12" xMax="735" yMax="867">
      <component glyphName=".ttfautohint" x="44" y="0" flags="0x0"/>
      <component glyphName="O" x="0" y="0" flags="0x0"/>
      <component glyphName="acute.loclPLK" x="246" y="145" flags="0x4"/>
    </TTGlyph>
    <TTGlyph name="Obreve" xMin="44" yMin="-12" xMax="735" yMax="868">
      <component glyphName=".ttfautohint" x="44" y="0" flags="0x0"/>
      <component glyphName="O" x="0" y="0" flags="0x0"/>
      <component glyphName="breve" x="222" y="145" flags="0x4"/>
    </TTGlyph>
    <TTGlyph name="Ocircumflex" xMin="44" yMin="-12" xMax="735" yMax="868">
      <component glyphName=".ttfautohint" x="44" y="0" flags="0x0"/>
      <component glyphName="O" x="0" y="0" flags="0x0"/>
      <component glyphName="circumflex" x="222" y="145" flags="0x4"/>
    </TTGlyph>
    <TTGlyph name="Odieresis" xMin="44" yMin="-12" xMax="735" yMax="868">
      <component glyphName=".ttfautohint" x="44" y="0" flags="0x0"/>
      <component glyphName="O" x="0" y="0" flags="0x0"/>
      <component glyphName="dieresis" x="223" y="145" flags="0x4"/>
    </TTGlyph>
    <TTGlyph name="Ograve" xMin="44" yMin="-12" xMax="735" yMax="868">
      <component glyphName=".ttfautohint" x="44" y="0" flags="0x0"/>
      <component glyphName="O" x="0" y="0" flags="0x0"/>
      <component glyphName="grave" x="158" y="145" flags="0x4"/>
    </TTGlyph>
    <TTGlyph name="Ohorn" xMin="44" yMin="-12" xMax="790" yMax="828">
      <contour>
        <pt x="790" y="828" on="1"/>
        <pt x="790" y="774" on="1"/>
        <pt x="790" y="699" on="0"/>
        <pt x="731" y="604" on="0"/>
        <pt x="670" y="580" on="1"/>
        <pt x="735" y="490" on="0"/>
        <pt x="735" y="343" on="1"/>
        <pt x="735" y="166" on="0"/>
        <pt x="554" y="-12" on="0"/>
        <pt x="389" y="-12" on="1"/>
        <pt x="224" y="-12" on="0"/>
        <pt x="44" y="166" on="0"/>
        <pt x="44" y="343" on="1"/>
        <pt x="44" y="520" on="0"/>
        <pt x="224" y="698" on="0"/>
        <pt x="389" y="698" on="1"/>
        <pt x="535" y="698" on="0"/>
        <pt x="621" y="630" on="1"/>
        <pt x="690" y="648" on="0"/>
        <pt x="709" y="701" on="1"/>
        <pt x="645" y="701" on="1"/>
        <pt x="645" y="828" on="1"/>
      </contour>
      <contour>
        <pt x="604" y="353" on="1"/>
        <pt x="604" y="470" on="0"/>
        <pt x="494" y="590" on="0"/>
        <pt x="389" y="590" on="1"/>
        <pt x="285" y="590" on="0"/>
        <pt x="175" y="470" on="0"/>
        <pt x="175" y="353" on="1"/>
        <pt x="175" y="332" on="1"/>
        <pt x="175" y="215" on="0"/>
        <pt x="284" y="96" on="0"/>
        <pt x="389" y="96" on="1"/>
        <pt x="495" y="96" on="0"/>
        <pt x="604" y="215" on="0"/>
        <pt x="604" y="332" on="1"/>
      </contour>
    </TTGlyph>
    <TTGlyph name="Ohungarumlaut" xMin="44" yMin="-12" xMax="735" yMax="868">
      <component glyphName=".ttfautohint" x="44" y="0" flags="0x0"/>
      <component glyphName="O" x="0" y="0" flags="0x0"/>
      <component glyphName="hungarumlaut" x="246" y="145" flags="0x4"/>
    </TTGlyph>
    <TTGlyph name="Omacron" xMin="44" yMin="-12" xMax="735" yMax="844">
      <component glyphName=".ttfautohint" x="44" y="0" flags="0x0"/>
      <component glyphName="O" x="0" y="0" flags="0x0"/>
      <component glyphName="macron" x="222" y="145" flags="0x4"/>
    </TTGlyph>
    <TTGlyph name="Oslash" xMin="44" yMin="-49" xMax="735" yMax="735">
      <contour>
        <pt x="139" y="72" on="1"/>
        <pt x="44" y="162" on="0"/>
        <pt x="44" y="343" on="1"/>
        <pt x="44" y="520" on="0"/>
        <pt x="224" y="698" on="0"/>
        <pt x="389" y="698" on="1"/>
        <pt x="503" y="698" on="0"/>
        <pt x="582" y="655" on="1"/>
        <pt x="641" y="735" on="1"/>
        <pt x="732" y="735" on="1"/>
        <pt x="640" y="613" on="1"/>
        <pt x="735" y="524" on="0"/>
        <pt x="735" y="343" on="1"/>
        <pt x="735" y="166" on="0"/>
        <pt x="554" y="-12" on="0"/>
        <pt x="389" y="-12" on="1"/>
        <pt x="274" y="-12" on="0"/>
        <pt x="198" y="29" on="1"/>
        <pt x="139" y="-49" on="1"/>
        <pt x="47" y="-49" on="1"/>
      </contour>
      <contour>
        <pt x="510" y="561" on="1"/>
        <pt x="460" y="590" on="0"/>
        <pt x="389" y="590" on="1"/>
        <pt x="284" y="590" on="0"/>
        <pt x="175" y="471" on="0"/>
        <pt x="175" y="354" on="1"/>
        <pt x="175" y="333" on="1"/>
        <pt x="175" y="232" on="0"/>
        <pt x="215" y="174" on="1"/>
      </contour>
      <contour>
        <pt x="495" y="96" on="0"/>
        <pt x="604" y="215" on="0"/>
        <pt x="604" y="332" on="1"/>
        <pt x="604" y="353" on="1"/>
        <pt x="604" y="453" on="0"/>
        <pt x="563" y="512" on="1"/>
        <pt x="270" y="124" on="1"/>
        <pt x="317" y="96" on="0"/>
        <pt x="389" y="96" on="1"/>
      </contour>
    </TTGlyph>
    <TTGlyph name="Oslashacute" xMin="44" yMin="-49" xMax="735" yMax="868">
      <component glyphName=".ttfautohint" x="44" y="0" flags="0x0"/>
      <component glyphName="Oslash" x="0" y="0" flags="0x0"/>
      <component glyphName="acute" x="266" y="145" flags="0x4"/>
    </TTGlyph>
    <TTGlyph name="Otilde" xMin="44" yMin="-12" xMax="735" yMax="868">
      <component glyphName=".ttfautohint" x="44" y="0" flags="0x0"/>
      <component glyphName="O" x="0" y="0" flags="0x0"/>
      <component glyphName="tilde" x="222" y="145" flags="0x4"/>
    </TTGlyph>
    <TTGlyph name="P" xMin="71" yMin="0" xMax="625" yMax="686">
      <contour>
        <pt x="71" y="686" on="1"/>
        <pt x="401" y="686" on="1"/>
        <pt x="511" y="686" on="0"/>
        <pt x="625" y="570" on="0"/>
        <pt x="625" y="467" on="1"/>
        <pt x="625" y="364" on="0"/>
        <pt x="506" y="245" on="0"/>
        <pt x="394" y="245" on="1"/>
        <pt x="199" y="245" on="1"/>
        <pt x="199" y="0" on="1"/>
        <pt x="71" y="0" on="1"/>
      </contour>
      <contour>
        <pt x="390" y="354" on="1"/>
        <pt x="440" y="354" on="0"/>
        <pt x="496" y="414" on="0"/>
        <pt x="496" y="467" on="1"/>
        <pt x="496" y="519" on="0"/>
        <pt x="442" y="577" on="0"/>
        <pt x="390" y="577" on="1"/>
        <pt x="199" y="577" on="1"/>
        <pt x="199" y="354" on="1"/>
      </contour>
    </TTGlyph>
    <TTGlyph name="Q" xMin="44" yMin="-130" xMax="735" yMax="698">
      <contour>
        <pt x="423" y="-11" on="1"/>
        <pt x="412" y="-12" on="0"/>
        <pt x="389" y="-12" on="1"/>
        <pt x="224" y="-12" on="0"/>
        <pt x="44" y="166" on="0"/>
        <pt x="44" y="343" on="1"/>
        <pt x="44" y="520" on="0"/>
        <pt x="224" y="698" on="0"/>
        <pt x="389" y="698" on="1"/>
        <pt x="554" y="698" on="0"/>
        <pt x="735" y="520" on="0"/>
        <pt x="735" y="343" on="1"/>
        <pt x="735" y="218" on="0"/>
        <pt x="643" y="55" on="0"/>
        <pt x="556" y="18" on="1"/>
        <pt x="709" y="-130" on="1"/>
        <pt x="538" y="-130" on="1"/>
      </contour>
      <contour>
        <pt x="495" y="96" on="0"/>
        <pt x="604" y="215" on="0"/>
        <pt x="604" y="332" on="1"/>
        <pt x="604" y="353" on="1"/>
        <pt x="604" y="470" on="0"/>
        <pt x="494" y="590" on="0"/>
        <pt x="389" y="590" on="1"/>
        <pt x="285" y="590" on="0"/>
        <pt x="175" y="470" on="0"/>
        <pt x="175" y="353" on="1"/>
        <pt x="175" y="332" on="1"/>
        <pt x="175" y="215" on="0"/>
        <pt x="284" y="96" on="0"/>
        <pt x="389" y="96" on="1"/>
      </contour>
    </TTGlyph>
    <TTGlyph name="R" xMin="71" yMin="0" xMax="682" yMax="686">
      <contour>
        <pt x="71" y="686" on="1"/>
        <pt x="433" y="686" on="1"/>
        <pt x="544" y="686" on="0"/>
        <pt x="657" y="576" on="0"/>
        <pt x="657" y="478" on="1"/>
        <pt x="657" y="408" on="0"/>
        <pt x="595" y="309" on="0"/>
        <pt x="535" y="285" on="1"/>
        <pt x="682" y="0" on="1"/>
        <pt x="542" y="0" on="1"/>
        <pt x="412" y="265" on="1"/>
        <pt x="199" y="265" on="1"/>
        <pt x="199" y="0" on="1"/>
        <pt x="71" y="0" on="1"/>
      </contour>
      <contour>
        <pt x="423" y="373" on="1"/>
        <pt x="472" y="373" on="0"/>
        <pt x="528" y="429" on="0"/>
        <pt x="528" y="478" on="1"/>
        <pt x="528" y="525" on="0"/>
        <pt x="474" y="577" on="0"/>
        <pt x="423" y="577" on="1"/>
        <pt x="199" y="577" on="1"/>
        <pt x="199" y="373" on="1"/>
      </contour>
    </TTGlyph>
    <TTGlyph name="Racute" xMin="71" yMin="0" xMax="682" yMax="868">
      <component glyphName=".ttfautohint" x="71" y="0" flags="0x0"/>
      <component glyphName="R" x="0" y="0" flags="0x0"/>
      <component glyphName="acute" x="238" y="145" flags="0x4"/>
    </TTGlyph>
    <TTGlyph name="Rcaron" xMin="71" yMin="0" xMax="682" yMax="868">
      <component glyphName=".ttfautohint" x="71" y="0" flags="0x0"/>
      <component glyphName="R" x="0" y="0" flags="0x0"/>
      <component glyphName="caron" x="194" y="145" flags="0x4"/>
    </TTGlyph>
    <TTGlyph name="Rcommaaccent" xMin="71" yMin="-230" xMax="682" yMax="686">
      <component glyphName=".ttfautohint" x="71" y="0" flags="0x0"/>
      <component glyphName="R" x="0" y="0" flags="0x0"/>
      <component glyphName="uni0326" x="508" y="0" flags="0x0"/>
    </TTGlyph>
    <TTGlyph name="S" xMin="44" yMin="-12" xMax="621" yMax="698">
      <contour>
        <pt x="252" y="-12" on="0"/>
        <pt x="122" y="34" on="0"/>
        <pt x="44" y="129" on="0"/>
        <pt x="44" y="199" on="1"/>
        <pt x="45" y="220" on="1"/>
        <pt x="174" y="220" on="1"/>
        <pt x="173" y="202" on="1"/>
        <pt x="173" y="152" on="0"/>
        <pt x="259" y="96" on="0"/>
        <pt x="334" y="96" on="1"/>
        <pt x="414" y="96" on="0"/>
        <pt x="492" y="142" on="0"/>
        <pt x="492" y="183" on="1"/>
        <pt x="492" y="215" on="0"/>
        <pt x="446" y="257" on="0"/>
        <pt x="378" y="282" on="0"/>
        <pt x="316" y="299" on="1"/>
        <pt x="234" y="321" on="0"/>
        <pt x="133" y="362" on="0"/>
        <pt x="61" y="443" on="0"/>
        <pt x="61" y="509" on="1"/>
        <pt x="61" y="601" on="0"/>
        <pt x="213" y="698" on="0"/>
        <pt x="336" y="698" on="1"/>
        <pt x="454" y="698" on="0"/>
        <pt x="603" y="599" on="0"/>
        <pt x="603" y="499" on="1"/>
        <pt x="603" y="487" on="1"/>
        <pt x="477" y="487" on="1"/>
        <pt x="477" y="498" on="1"/>
        <pt x="477" y="541" on="0"/>
        <pt x="400" y="590" on="0"/>
        <pt x="335" y="590" on="1"/>
        <pt x="267" y="590" on="0"/>
        <pt x="190" y="550" on="0"/>
        <pt x="190" y="514" on="1"/>
        <pt x="190" y="487" on="0"/>
        <pt x="234" y="450" on="0"/>
        <pt x="301" y="427" on="0"/>
        <pt x="358" y="412" on="1"/>
        <pt x="441" y="390" on="0"/>
        <pt x="546" y="348" on="0"/>
        <pt x="621" y="266" on="0"/>
        <pt x="621" y="201" on="1"/>
        <pt x="621" y="91" on="0"/>
        <pt x="465" y="-12" on="0"/>
        <pt x="331" y="-12" on="1"/>
      </contour>
    </TTGlyph>
    <TTGlyph name="Sacute" xMin="44" yMin="-12" xMax="621" yMax="868">
      <component glyphName=".ttfautohint" x="44" y="0" flags="0x0"/>
      <component glyphName="S" x="0" y="0" flags="0x0"/>
      <component glyphName="acute" x="211" y="145" flags="0x4"/>
    </TTGlyph>
    <TTGlyph name="Sacute.loclPLK" xMin="44" yMin="-12" xMax="621" yMax="867">
      <component glyphName=".ttfautohint" x="44" y="0" flags="0x0"/>
      <component glyphName="S" x="0" y="0" flags="0x0"/>
      <component glyphName="acute.loclPLK" x="191" y="145" flags="0x4"/>
    </TTGlyph>
    <TTGlyph name="Scaron" xMin="44" yMin="-12" xMax="621" yMax="868">
      <component glyphName=".ttfautohint" x="44" y="0" flags="0x0"/>
      <component glyphName="S" x="0" y="0" flags="0x0"/>
      <component glyphName="caron" x="167" y="145" flags="0x4"/>
    </TTGlyph>
    <TTGlyph name="Scedilla" xMin="44" yMin="-182" xMax="621" yMax="698">
      <contour>
        <pt x="281" y="-182" on="0"/>
        <pt x="235" y="-174" on="1"/>
        <pt x="235" y="-125" on="1"/>
        <pt x="328" y="-125" on="1"/>
        <pt x="350" y="-125" on="0"/>
        <pt x="371" y="-115" on="0"/>
        <pt x="371" y="-101" on="1"/>
        <pt x="371" y="-88" on="0"/>
        <pt x="353" y="-77" on="0"/>
        <pt x="330" y="-77" on="1"/>
        <pt x="286" y="-77" on="1"/>
        <pt x="297" y="-10" on="1"/>
        <pt x="186" y="-4" on="0"/>
        <pt x="44" y="103" on="0"/>
        <pt x="44" y="199" on="1"/>
        <pt x="45" y="220" on="1"/>
        <pt x="174" y="220" on="1"/>
        <pt x="173" y="202" on="1"/>
        <pt x="173" y="152" on="0"/>
        <pt x="259" y="96" on="0"/>
        <pt x="334" y="96" on="1"/>
        <pt x="414" y="96" on="0"/>
        <pt x="492" y="142" on="0"/>
        <pt x="492" y="183" on="1"/>
        <pt x="492" y="215" on="0"/>
        <pt x="446" y="257" on="0"/>
        <pt x="378" y="282" on="0"/>
        <pt x="316" y="299" on="1"/>
        <pt x="234" y="321" on="0"/>
        <pt x="133" y="362" on="0"/>
        <pt x="61" y="443" on="0"/>
        <pt x="61" y="509" on="1"/>
        <pt x="61" y="601" on="0"/>
        <pt x="213" y="698" on="0"/>
        <pt x="336" y="698" on="1"/>
        <pt x="454" y="698" on="0"/>
        <pt x="603" y="599" on="0"/>
        <pt x="603" y="499" on="1"/>
        <pt x="603" y="487" on="1"/>
        <pt x="477" y="487" on="1"/>
        <pt x="477" y="498" on="1"/>
        <pt x="477" y="541" on="0"/>
        <pt x="400" y="590" on="0"/>
        <pt x="335" y="590" on="1"/>
        <pt x="267" y="590" on="0"/>
        <pt x="190" y="550" on="0"/>
        <pt x="190" y="514" on="1"/>
        <pt x="190" y="487" on="0"/>
        <pt x="234" y="450" on="0"/>
        <pt x="301" y="427" on="0"/>
        <pt x="358" y="412" on="1"/>
        <pt x="441" y="390" on="0"/>
        <pt x="546" y="348" on="0"/>
        <pt x="621" y="266" on="0"/>
        <pt x="621" y="201" on="1"/>
        <pt x="621" y="100" on="0"/>
        <pt x="489" y="-3" on="0"/>
        <pt x="374" y="-10" on="1"/>
        <pt x="370" y="-34" on="1"/>
        <pt x="413" y="-36" on="0"/>
        <pt x="466" y="-69" on="0"/>
        <pt x="466" y="-101" on="1"/>
        <pt x="466" y="-146" on="0"/>
        <pt x="387" y="-182" on="0"/>
        <pt x="336" y="-182" on="1"/>
      </contour>
    </TTGlyph>
    <TTGlyph name="Scircumflex" xMin="44" yMin="-12" xMax="621" yMax="868">
      <component glyphName=".ttfautohint" x="44" y="0" flags="0x0"/>
      <component glyphName="S" x="0" y="0" flags="0x0"/>
      <component glyphName="circumflex" x="167" y="145" flags="0x4"/>
    </TTGlyph>
    <TTGlyph name="Scommaaccent" xMin="44" yMin="-230" xMax="621" yMax="698">
      <component glyphName=".ttfautohint" x="44" y="0" flags="0x0"/>
      <component glyphName="S" x="0" y="0" flags="0x0"/>
      <component glyphName="uni0326" x="481" y="0" flags="0x0"/>
    </TTGlyph>
    <TTGlyph name="T" xMin="21" yMin="0" xMax="590" yMax="686">
      <contour>
        <pt x="242" y="576" on="1"/>
        <pt x="21" y="576" on="1"/>
        <pt x="21" y="686" on="1"/>
        <pt x="590" y="686" on="1"/>
        <pt x="590" y="576" on="1"/>
        <pt x="369" y="576" on="1"/>
        <pt x="369" y="0" on="1"/>
        <pt x="242" y="0" on="1"/>
      </contour>
    </TTGlyph>
    <TTGlyph name="Tbar" xMin="21" yMin="0" xMax="590" yMax="686">
      <contour>
        <pt x="242" y="362" on="1"/>
        <pt x="147" y="362" on="1"/>
        <pt x="147" y="446" on="1"/>
        <pt x="242" y="446" on="1"/>
        <pt x="242" y="576" on="1"/>
        <pt x="21" y="576" on="1"/>
        <pt x="21" y="686" on="1"/>
        <pt x="590" y="686" on="1"/>
        <pt x="590" y="576" on="1"/>
        <pt x="369" y="576" on="1"/>
        <pt x="369" y="446" on="1"/>
        <pt x="464" y="446" on="1"/>
        <pt x="464" y="362" on="1"/>
        <pt x="369" y="362" on="1"/>
        <pt x="369" y="0" on="1"/>
        <pt x="242" y="0" on="1"/>
      </contour>
    </TTGlyph>
    <TTGlyph name="Tcaron" xMin="21" yMin="0" xMax="590" yMax="868">
      <component glyphName=".ttfautohint" x="21" y="0" flags="0x0"/>
      <component glyphName="T" x="0" y="0" flags="0x0"/>
      <component glyphName="caron" x="139" y="145" flags="0x4"/>
    </TTGlyph>
    <TTGlyph name="Thorn" xMin="71" yMin="0" xMax="625" yMax="686">
      <contour>
        <pt x="71" y="686" on="1"/>
        <pt x="199" y="686" on="1"/>
        <pt x="199" y="575" on="1"/>
        <pt x="401" y="575" on="1"/>
        <pt x="511" y="575" on="0"/>
        <pt x="625" y="458" on="0"/>
        <pt x="625" y="356" on="1"/>
        <pt x="625" y="253" on="0"/>
        <pt x="506" y="134" on="0"/>
        <pt x="394" y="134" on="1"/>
        <pt x="199" y="134" on="1"/>
        <pt x="199" y="0" on="1"/>
        <pt x="71" y="0" on="1"/>
      </contour>
      <contour>
        <pt x="390" y="243" on="1"/>
        <pt x="440" y="243" on="0"/>
        <pt x="496" y="303" on="0"/>
        <pt x="496" y="356" on="1"/>
        <pt x="496" y="408" on="0"/>
        <pt x="442" y="466" on="0"/>
        <pt x="390" y="466" on="1"/>
        <pt x="199" y="466" on="1"/>
        <pt x="199" y="243" on="1"/>
      </contour>
    </TTGlyph>
    <TTGlyph name="U" xMin="71" yMin="-12" xMax="651" yMax="686">
      <contour>
        <pt x="222" y="-12" on="0"/>
        <pt x="71" y="122" on="0"/>
        <pt x="71" y="254" on="1"/>
        <pt x="71" y="686" on="1"/>
        <pt x="199" y="686" on="1"/>
        <pt x="199" y="257" on="1"/>
        <pt x="199" y="178" on="0"/>
        <pt x="283" y="96" on="0"/>
        <pt x="360" y="96" on="1"/>
        <pt x="437" y="96" on="0"/>
        <pt x="523" y="178" on="0"/>
        <pt x="523" y="257" on="1"/>
        <pt x="523" y="686" on="1"/>
        <pt x="651" y="686" on="1"/>
        <pt x="651" y="254" on="1"/>
        <pt x="651" y="122" on="0"/>
        <pt x="499" y="-12" on="0"/>
        <pt x="360" y="-12" on="1"/>
      </contour>
    </TTGlyph>
    <TTGlyph name="Uacute" xMin="71" yMin="-12" xMax="651" yMax="868">
      <component glyphName=".ttfautohint" x="71" y="0" flags="0x0"/>
      <component glyphName="U" x="0" y="0" flags="0x0"/>
      <component glyphName="acute" x="238" y="145" flags="0x4"/>
    </TTGlyph>
    <TTGlyph name="Ubreve" xMin="71" yMin="-12" xMax="651" yMax="868">
      <component glyphName=".ttfautohint" x="71" y="0" flags="0x0"/>
      <component glyphName="U" x="0" y="0" flags="0x0"/>
      <component glyphName="breve" x="194" y="145" flags="0x4"/>
    </TTGlyph>
    <TTGlyph name="Ucircumflex" xMin="71" yMin="-12" xMax="651" yMax="868">
      <component glyphName=".ttfautohint" x="71" y="0" flags="0x0"/>
      <component glyphName="U" x="0" y="0" flags="0x0"/>
      <component glyphName="circumflex" x="194" y="145" flags="0x4"/>
    </TTGlyph>
    <TTGlyph name="Udieresis" xMin="71" yMin="-12" xMax="651" yMax="868">
      <component glyphName=".ttfautohint" x="71" y="0" flags="0x0"/>
      <component glyphName="U" x="0" y="0" flags="0x0"/>
      <component glyphName="dieresis" x="195" y="145" flags="0x4"/>
    </TTGlyph>
    <TTGlyph name="Ugrave" xMin="71" yMin="-12" xMax="651" yMax="868">
      <component glyphName=".ttfautohint" x="71" y="0" flags="0x0"/>
      <component glyphName="U" x="0" y="0" flags="0x0"/>
      <component glyphName="grave" x="130" y="145" flags="0x4"/>
    </TTGlyph>
    <TTGlyph name="Uhorn" xMin="71" yMin="-12" xMax="758" yMax="868">
      <contour>
        <pt x="758" y="868" on="1"/>
        <pt x="758" y="814" on="1"/>
        <pt x="758" y="743" on="0"/>
        <pt x="705" y="651" on="0"/>
        <pt x="651" y="625" on="1"/>
        <pt x="651" y="254" on="1"/>
        <pt x="651" y="122" on="0"/>
        <pt x="499" y="-12" on="0"/>
        <pt x="360" y="-12" on="1"/>
        <pt x="222" y="-12" on="0"/>
        <pt x="71" y="122" on="0"/>
        <pt x="71" y="254" on="1"/>
        <pt x="71" y="686" on="1"/>
        <pt x="199" y="686" on="1"/>
        <pt x="199" y="257" on="1"/>
        <pt x="199" y="178" on="0"/>
        <pt x="283" y="96" on="0"/>
        <pt x="360" y="96" on="1"/>
        <pt x="437" y="96" on="0"/>
        <pt x="523" y="178" on="0"/>
        <pt x="523" y="257" on="1"/>
        <pt x="523" y="686" on="1"/>
        <pt x="630" y="686" on="1"/>
        <pt x="663" y="705" on="0"/>
        <pt x="677" y="741" on="1"/>
        <pt x="613" y="741" on="1"/>
        <pt x="613" y="868" on="1"/>
      </contour>
    </TTGlyph>
    <TTGlyph name="Uhungarumlaut" xMin="71" yMin="-12" xMax="651" yMax="868">
      <component glyphName=".ttfautohint" x="71" y="0" flags="0x0"/>
      <component glyphName="U" x="0" y="0" flags="0x0"/>
      <component glyphName="hungarumlaut" x="218" y="145" flags="0x4"/>
    </TTGlyph>
    <TTGlyph name="Umacron" xMin="71" yMin="-12" xMax="651" yMax="844">
      <component glyphName=".ttfautohint" x="71" y="0" flags="0x0"/>
      <component glyphName="U" x="0" y="0" flags="0x0"/>
      <component glyphName="macron" x="194" y="145" flags="0x4"/>
    </TTGlyph>
    <TTGlyph name="Uogonek" xMin="71" yMin="-182" xMax="651" yMax="686">
      <contour>
        <pt x="391" y="-182" on="0"/>
        <pt x="330" y="-140" on="0"/>
        <pt x="330" y="-93" on="1"/>
        <pt x="330" y="-50" on="0"/>
        <pt x="359" y="-12" on="1"/>
        <pt x="221" y="-12" on="0"/>
        <pt x="71" y="122" on="0"/>
        <pt x="71" y="254" on="1"/>
        <pt x="71" y="686" on="1"/>
        <pt x="199" y="686" on="1"/>
        <pt x="199" y="257" on="1"/>
        <pt x="199" y="178" on="0"/>
        <pt x="283" y="96" on="0"/>
        <pt x="360" y="96" on="1"/>
        <pt x="437" y="96" on="0"/>
        <pt x="523" y="178" on="0"/>
        <pt x="523" y="257" on="1"/>
        <pt x="523" y="686" on="1"/>
        <pt x="651" y="686" on="1"/>
        <pt x="651" y="254" on="1"/>
        <pt x="651" y="145" on="0"/>
        <pt x="547" y="16" on="0"/>
        <pt x="450" y="-3" on="1"/>
        <pt x="426" y="-33" on="0"/>
        <pt x="426" y="-62" on="1"/>
        <pt x="426" y="-85" on="0"/>
        <pt x="450" y="-114" on="0"/>
        <pt x="476" y="-114" on="1"/>
        <pt x="502" y="-114" on="1"/>
        <pt x="502" y="-168" on="1"/>
        <pt x="466" y="-182" on="0"/>
        <pt x="435" y="-182" on="1"/>
      </contour>
    </TTGlyph>
    <TTGlyph name="Uring" xMin="71" yMin="-12" xMax="651" yMax="903">
      <component glyphName=".ttfautohint" x="71" y="0" flags="0x0"/>
      <component glyphName="U" x="0" y="0" flags="0x0"/>
      <component glyphName="ring" x="194" y="145" flags="0x4"/>
    </TTGlyph>
    <TTGlyph name="Utilde" xMin="71" yMin="-12" xMax="651" yMax="868">
      <component glyphName=".ttfautohint" x="71" y="0" flags="0x0"/>
      <component glyphName="U" x="0" y="0" flags="0x0"/>
      <component glyphName="tilde" x="194" y="145" flags="0x4"/>
    </TTGlyph>
    <TTGlyph name="V" xMin="8" yMin="0" xMax="658" yMax="686">
      <contour>
        <pt x="8" y="686" on="1"/>
        <pt x="146" y="686" on="1"/>
        <pt x="293" y="267" on="1"/>
        <pt x="302" y="243" on="0"/>
        <pt x="320" y="188" on="1"/>
        <pt x="333" y="147" on="0"/>
        <pt x="335" y="143" on="1"/>
        <pt x="340" y="143" on="1"/>
        <pt x="366" y="229" on="0"/>
        <pt x="380" y="268" on="1"/>
        <pt x="526" y="686" on="1"/>
        <pt x="658" y="686" on="1"/>
        <pt x="408" y="0" on="1"/>
        <pt x="259" y="0" on="1"/>
      </contour>
    </TTGlyph>
    <TTGlyph name="W" xMin="5" yMin="0" xMax="939" yMax="686">
      <contour>
        <pt x="5" y="686" on="1"/>
        <pt x="141" y="686" on="1"/>
        <pt x="254" y="242" on="1"/>
        <pt x="258" y="225" on="0"/>
        <pt x="271" y="155" on="0"/>
        <pt x="273" y="143" on="1"/>
        <pt x="278" y="143" on="1"/>
        <pt x="280" y="155" on="0"/>
        <pt x="290" y="217" on="0"/>
        <pt x="295" y="242" on="1"/>
        <pt x="398" y="686" on="1"/>
        <pt x="560" y="686" on="1"/>
        <pt x="663" y="242" on="1"/>
        <pt x="669" y="214" on="0"/>
        <pt x="679" y="154" on="0"/>
        <pt x="681" y="143" on="1"/>
        <pt x="686" y="143" on="1"/>
        <pt x="688" y="154" on="0"/>
        <pt x="701" y="223" on="0"/>
        <pt x="706" y="242" on="1"/>
        <pt x="818" y="686" on="1"/>
        <pt x="939" y="686" on="1"/>
        <pt x="751" y="0" on="1"/>
        <pt x="603" y="0" on="1"/>
        <pt x="492" y="452" on="1"/>
        <pt x="486" y="476" on="0"/>
        <pt x="475" y="543" on="0"/>
        <pt x="473" y="554" on="1"/>
        <pt x="469" y="554" on="1"/>
        <pt x="467" y="543" on="0"/>
        <pt x="457" y="481" on="0"/>
        <pt x="451" y="452" on="1"/>
        <pt x="341" y="0" on="1"/>
        <pt x="193" y="0" on="1"/>
      </contour>
    </TTGlyph>
    <TTGlyph name="Wacute" xMin="5" yMin="0" xMax="939" yMax="868">
      <component glyphName=".ttfautohint" x="5" y="0" flags="0x0"/>
      <component glyphName="W" x="0" y="0" flags="0x0"/>
      <component glyphName="acute" x="349" y="145" flags="0x4"/>
    </TTGlyph>
    <TTGlyph name="Wcircumflex" xMin="5" yMin="0" xMax="939" yMax="868">
      <component glyphName=".ttfautohint" x="5" y="0" flags="0x0"/>
      <component glyphName="W" x="0" y="0" flags="0x0"/>
      <component glyphName="circumflex" x="305" y="145" flags="0x4"/>
    </TTGlyph>
    <TTGlyph name="Wdieresis" xMin="5" yMin="0" xMax="939" yMax="868">
      <component glyphName=".ttfautohint" x="5" y="0" flags="0x0"/>
      <component glyphName="W" x="0" y="0" flags="0x0"/>
      <component glyphName="dieresis" x="306" y="145" flags="0x4"/>
    </TTGlyph>
    <TTGlyph name="Wgrave" xMin="5" yMin="0" xMax="939" yMax="868">
      <component glyphName=".ttfautohint" x="5" y="0" flags="0x0"/>
      <component glyphName="W" x="0" y="0" flags="0x0"/>
      <component glyphName="grave" x="241" y="145" flags="0x4"/>
    </TTGlyph>
    <TTGlyph name="X" xMin="2" yMin="0" xMax="665" yMax="686">
      <contour>
        <pt x="250" y="360" on="1"/>
        <pt x="24" y="686" on="1"/>
        <pt x="180" y="686" on="1"/>
        <pt x="334" y="456" on="1"/>
        <pt x="340" y="456" on="1"/>
        <pt x="494" y="686" on="1"/>
        <pt x="641" y="686" on="1"/>
        <pt x="415" y="361" on="1"/>
        <pt x="665" y="0" on="1"/>
        <pt x="510" y="0" on="1"/>
        <pt x="331" y="266" on="1"/>
        <pt x="325" y="266" on="1"/>
        <pt x="149" y="0" on="1"/>
        <pt x="2" y="0" on="1"/>
      </contour>
    </TTGlyph>
    <TTGlyph name="Y" xMin="6" yMin="0" xMax="662" yMax="686">
      <contour>
        <pt x="271" y="279" on="1"/>
        <pt x="6" y="686" on="1"/>
        <pt x="153" y="686" on="1"/>
        <pt x="336" y="394" on="1"/>
        <pt x="341" y="394" on="1"/>
        <pt x="521" y="686" on="1"/>
        <pt x="662" y="686" on="1"/>
        <pt x="398" y="279" on="1"/>
        <pt x="398" y="0" on="1"/>
        <pt x="271" y="0" on="1"/>
      </contour>
    </TTGlyph>
    <TTGlyph name="Y.loclGUA" xMin="71" yMin="-12" xMax="596" yMax="686">
      <contour>
        <pt x="205" y="-12" on="0"/>
        <pt x="71" y="75" on="0"/>
        <pt x="71" y="161" on="1"/>
        <pt x="71" y="168" on="1"/>
        <pt x="199" y="168" on="1"/>
        <pt x="199" y="133" on="0"/>
        <pt x="266" y="96" on="0"/>
        <pt x="324" y="96" on="1"/>
        <pt x="393" y="96" on="0"/>
        <pt x="468" y="167" on="0"/>
        <pt x="468" y="238" on="1"/>
        <pt x="468" y="290" on="1"/>
        <pt x="463" y="290" on="1"/>
        <pt x="411" y="205" on="0"/>
        <pt x="288" y="205" on="1"/>
        <pt x="182" y="205" on="0"/>
        <pt x="71" y="324" on="0"/>
        <pt x="71" y="437" on="1"/>
        <pt x="71" y="686" on="1"/>
        <pt x="199" y="686" on="1"/>
        <pt x="199" y="434" on="1"/>
        <pt x="199" y="375" on="0"/>
        <pt x="261" y="313" on="0"/>
        <pt x="318" y="313" on="1"/>
        <pt x="389" y="313" on="0"/>
        <pt x="468" y="409" on="0"/>
        <pt x="468" y="500" on="1"/>
        <pt x="468" y="686" on="1"/>
        <pt x="596" y="686" on="1"/>
        <pt x="596" y="254" on="1"/>
        <pt x="596" y="121" on="0"/>
        <pt x="455" y="-12" on="0"/>
        <pt x="324" y="-12" on="1"/>
      </contour>
    </TTGlyph>
    <TTGlyph name="Yacute" xMin="6" yMin="0" xMax="662" yMax="868">
      <component glyphName=".ttfautohint" x="6" y="0" flags="0x0"/>
      <component glyphName="Y" x="0" y="0" flags="0x0"/>
      <component glyphName="acute" x="211" y="145" flags="0x4"/>
    </TTGlyph>
    <TTGlyph name="Yacute.loclGUA" xMin="71" yMin="-12" xMax="596" yMax="868">
      <component glyphName=".ttfautohint" x="71" y="0" flags="0x0"/>
      <component glyphName="Y.loclGUA" x="0" y="0" flags="0x0"/>
      <component glyphName="acute" x="211" y="145" flags="0x4"/>
    </TTGlyph>
    <TTGlyph name="Ycircumflex" xMin="6" yMin="0" xMax="662" yMax="868">
      <component glyphName=".ttfautohint" x="6" y="0" flags="0x0"/>
      <component glyphName="Y" x="0" y="0" flags="0x0"/>
      <component glyphName="circumflex" x="167" y="145" flags="0x4"/>
    </TTGlyph>
    <TTGlyph name="Ycircumflex.loclGUA" xMin="71" yMin="-12" xMax="596" yMax="868">
      <component glyphName=".ttfautohint" x="71" y="0" flags="0x0"/>
      <component glyphName="Y.loclGUA" x="0" y="0" flags="0x0"/>
      <component glyphName="circumflex" x="167" y="145" flags="0x4"/>
    </TTGlyph>
    <TTGlyph name="Ydieresis" xMin="6" yMin="0" xMax="662" yMax="868">
      <component glyphName=".ttfautohint" x="6" y="0" flags="0x0"/>
      <component glyphName="Y" x="0" y="0" flags="0x0"/>
      <component glyphName="dieresis" x="168" y="145" flags="0x4"/>
    </TTGlyph>
    <TTGlyph name="Ydieresis.loclGUA" xMin="71" yMin="-12" xMax="596" yMax="868">
      <component glyphName=".ttfautohint" x="71" y="0" flags="0x0"/>
      <component glyphName="Y.loclGUA" x="0" y="0" flags="0x0"/>
      <component glyphName="dieresis" x="168" y="145" flags="0x4"/>
    </TTGlyph>
    <TTGlyph name="Ygrave" xMin="6" yMin="0" xMax="662" yMax="868">
      <component glyphName=".ttfautohint" x="6" y="0" flags="0x0"/>
      <component glyphName="Y" x="0" y="0" flags="0x0"/>
      <component glyphName="grave" x="103" y="145" flags="0x4"/>
    </TTGlyph>
    <TTGlyph name="Ygrave.loclGUA" xMin="71" yMin="-12" xMax="596" yMax="868">
      <component glyphName=".ttfautohint" x="71" y="0" flags="0x0"/>
      <component glyphName="Y.loclGUA" x="0" y="0" flags="0x0"/>
      <component glyphName="grave" x="103" y="145" flags="0x4"/>
    </TTGlyph>
    <TTGlyph name="Z" xMin="19" yMin="0" xMax="587" yMax="686">
      <contour>
        <pt x="19" y="61" on="1"/>
        <pt x="389" y="577" on="1"/>
        <pt x="45" y="577" on="1"/>
        <pt x="45" y="686" on="1"/>
        <pt x="578" y="686" on="1"/>
        <pt x="578" y="624" on="1"/>
        <pt x="209" y="109" on="1"/>
        <pt x="587" y="109" on="1"/>
        <pt x="587" y="0" on="1"/>
        <pt x="19" y="0" on="1"/>
      </contour>
    </TTGlyph>
    <TTGlyph name="Zacute" xMin="19" yMin="0" xMax="587" yMax="868">
      <component glyphName=".ttfautohint" x="19" y="0" flags="0x0"/>
      <component glyphName="Z" x="0" y="0" flags="0x0"/>
      <component glyphName="acute" x="183" y="145" flags="0x4"/>
    </TTGlyph>
    <TTGlyph name="Zacute.loclPLK" xMin="19" yMin="0" xMax="587" yMax="867">
      <component glyphName=".ttfautohint" x="19" y="0" flags="0x0"/>
      <component glyphName="Z" x="0" y="0" flags="0x0"/>
      <component glyphName="acute.loclPLK" x="163" y="145" flags="0x4"/>
    </TTGlyph>
    <TTGlyph name="Zcaron" xMin="19" yMin="0" xMax="587" yMax="868">
      <component glyphName=".ttfautohint" x="19" y="0" flags="0x0"/>
      <component glyphName="Z" x="0" y="0" flags="0x0"/>
      <component glyphName="caron" x="139" y="145" flags="0x4"/>
    </TTGlyph>
    <TTGlyph name="Zdotaccent" xMin="19" yMin="0" xMax="587" yMax="869">
      <component glyphName=".ttfautohint" x="19" y="0" flags="0x0"/>
      <component glyphName="Z" x="0" y="0" flags="0x0"/>
      <component glyphName="dotaccent" x="138" y="145" flags="0x4"/>
    </TTGlyph>
    <TTGlyph name="a" xMin="31" yMin="-12" xMax="548" yMax="538">
      <contour>
        <pt x="134" y="-12" on="0"/>
        <pt x="31" y="51" on="0"/>
        <pt x="31" y="136" on="1"/>
        <pt x="31" y="237" on="0"/>
        <pt x="203" y="319" on="0"/>
        <pt x="361" y="319" on="1"/>
        <pt x="361" y="363" on="1"/>
        <pt x="361" y="401" on="0"/>
        <pt x="322" y="443" on="0"/>
        <pt x="271" y="443" on="1"/>
        <pt x="218" y="443" on="0"/>
        <pt x="174" y="409" on="0"/>
        <pt x="174" y="384" on="1"/>
        <pt x="174" y="370" on="1"/>
        <pt x="58" y="370" on="1"/>
        <pt x="57" y="376" on="0"/>
        <pt x="57" y="392" on="1"/>
        <pt x="57" y="460" on="0"/>
        <pt x="174" y="538" on="0"/>
        <pt x="271" y="538" on="1"/>
        <pt x="376" y="538" on="0"/>
        <pt x="481" y="452" on="0"/>
        <pt x="481" y="372" on="1"/>
        <pt x="481" y="121" on="1"/>
        <pt x="481" y="103" on="0"/>
        <pt x="501" y="86" on="0"/>
        <pt x="516" y="86" on="1"/>
        <pt x="548" y="86" on="1"/>
        <pt x="548" y="4" on="1"/>
        <pt x="516" y="-11" on="0"/>
        <pt x="473" y="-11" on="1"/>
        <pt x="434" y="-11" on="0"/>
        <pt x="382" y="27" on="0"/>
        <pt x="373" y="60" on="1"/>
        <pt x="366" y="60" on="1"/>
        <pt x="307" y="-12" on="0"/>
        <pt x="198" y="-12" on="1"/>
      </contour>
      <contour>
        <pt x="293" y="84" on="0"/>
        <pt x="361" y="152" on="0"/>
        <pt x="361" y="210" on="1"/>
        <pt x="361" y="234" on="1"/>
        <pt x="264" y="234" on="0"/>
        <pt x="154" y="197" on="0"/>
        <pt x="154" y="148" on="1"/>
        <pt x="154" y="84" on="0"/>
        <pt x="234" y="84" on="1"/>
      </contour>
    </TTGlyph>
    <TTGlyph name="aacute" xMin="31" yMin="-12" xMax="548" yMax="723">
      <component glyphName=".ttfautohint" x="31" y="0" flags="0x0"/>
      <component glyphName="a" x="0" y="0" flags="0x0"/>
      <component glyphName="acute" x="155" y="0" flags="0x0"/>
    </TTGlyph>
    <TTGlyph name="abreve" xMin="31" yMin="-12" xMax="548" yMax="723">
      <component glyphName=".ttfautohint" x="31" y="0" flags="0x0"/>
      <component glyphName="a" x="0" y="0" flags="0x0"/>
      <component glyphName="breve" x="111" y="0" flags="0x0"/>
    </TTGlyph>
    <TTGlyph name="acircumflex" xMin="31" yMin="-12" xMax="548" yMax="723">
      <component glyphName=".ttfautohint" x="31" y="0" flags="0x0"/>
      <component glyphName="a" x="0" y="0" flags="0x0"/>
      <component glyphName="circumflex" x="111" y="0" flags="0x0"/>
    </TTGlyph>
    <TTGlyph name="acute" xMin="75" yMin="591" xMax="278" yMax="723">
      <contour>
        <pt x="156" y="723" on="1"/>
        <pt x="277" y="723" on="1"/>
        <pt x="278" y="720" on="1"/>
        <pt x="170" y="591" on="1"/>
        <pt x="75" y="591" on="1"/>
      </contour>
    </TTGlyph>
    <TTGlyph name="acute.loclPLK" xMin="95" yMin="591" xMax="238" yMax="722">
      <contour>
        <pt x="123" y="722" on="1"/>
        <pt x="237" y="722" on="1"/>
        <pt x="238" y="721" on="1"/>
        <pt x="190" y="591" on="1"/>
        <pt x="95" y="591" on="1"/>
      </contour>
    </TTGlyph>
    <TTGlyph name="adieresis" xMin="31" yMin="-12" xMax="548" yMax="723">
      <component glyphName=".ttfautohint" x="31" y="0" flags="0x0"/>
      <component glyphName="a" x="0" y="0" flags="0x0"/>
      <component glyphName="dieresis" x="112" y="0" flags="0x0"/>
    </TTGlyph>
    <TTGlyph name="ae" xMin="31" yMin="-12" xMax="853" yMax="538">
      <contour>
        <pt x="153" y="-12" on="0"/>
        <pt x="31" y="51" on="0"/>
        <pt x="31" y="136" on="1"/>
        <pt x="31" y="237" on="0"/>
        <pt x="211" y="319" on="0"/>
        <pt x="377" y="319" on="1"/>
        <pt x="377" y="363" on="1"/>
        <pt x="377" y="401" on="0"/>
        <pt x="335" y="443" on="0"/>
        <pt x="277" y="443" on="1"/>
        <pt x="222" y="443" on="0"/>
        <pt x="174" y="409" on="0"/>
        <pt x="174" y="384" on="1"/>
        <pt x="174" y="370" on="1"/>
        <pt x="58" y="370" on="1"/>
        <pt x="57" y="376" on="0"/>
        <pt x="57" y="392" on="1"/>
        <pt x="57" y="460" on="0"/>
        <pt x="178" y="538" on="0"/>
        <pt x="277" y="538" on="1"/>
        <pt x="396" y="538" on="0"/>
        <pt x="452" y="479" on="1"/>
        <pt x="514" y="538" on="0"/>
        <pt x="624" y="538" on="1"/>
        <pt x="738" y="538" on="0"/>
        <pt x="853" y="408" on="0"/>
        <pt x="853" y="270" on="1"/>
        <pt x="853" y="234" on="1"/>
        <pt x="497" y="234" on="1"/>
        <pt x="500" y="156" on="0"/>
        <pt x="560" y="83" on="0"/>
        <pt x="625" y="83" on="1"/>
        <pt x="674" y="83" on="0"/>
        <pt x="735" y="134" on="0"/>
        <pt x="735" y="184" on="1"/>
        <pt x="853" y="184" on="1"/>
        <pt x="853" y="88" on="0"/>
        <pt x="726" y="-12" on="0"/>
        <pt x="624" y="-12" on="1"/>
        <pt x="490" y="-12" on="0"/>
        <pt x="431" y="63" on="1"/>
        <pt x="358" y="-12" on="0"/>
        <pt x="228" y="-12" on="1"/>
      </contour>
      <contour>
        <pt x="728" y="319" on="1"/>
        <pt x="728" y="443" on="0"/>
        <pt x="624" y="443" on="1"/>
        <pt x="565" y="443" on="0"/>
        <pt x="506" y="383" on="0"/>
        <pt x="499" y="319" on="1"/>
      </contour>
      <contour>
        <pt x="305" y="84" on="0"/>
        <pt x="377" y="151" on="0"/>
        <pt x="377" y="210" on="1"/>
        <pt x="377" y="234" on="1"/>
        <pt x="273" y="234" on="0"/>
        <pt x="154" y="196" on="0"/>
        <pt x="154" y="148" on="1"/>
        <pt x="154" y="84" on="0"/>
        <pt x="241" y="84" on="1"/>
      </contour>
    </TTGlyph>
    <TTGlyph name="aeacute" xMin="31" yMin="-12" xMax="853" yMax="723">
      <component glyphName=".ttfautohint" x="31" y="0" flags="0x0"/>
      <component glyphName="ae" x="0" y="0" flags="0x0"/>
      <component glyphName="acute" x="322" y="0" flags="0x0"/>
    </TTGlyph>
    <TTGlyph name="agrave" xMin="31" yMin="-12" xMax="548" yMax="723">
      <component glyphName=".ttfautohint" x="31" y="0" flags="0x0"/>
      <component glyphName="a" x="0" y="0" flags="0x0"/>
      <component glyphName="grave" x="47" y="0" flags="0x0"/>
    </TTGlyph>
    <TTGlyph name="amacron" xMin="31" yMin="-12" xMax="548" yMax="699">
      <component glyphName=".ttfautohint" x="31" y="0" flags="0x0"/>
      <component glyphName="a" x="0" y="0" flags="0x0"/>
      <component glyphName="macron" x="111" y="0" flags="0x0"/>
    </TTGlyph>
    <TTGlyph name="ampersand" xMin="43" yMin="-12" xMax="676" yMax="698">
      <contour>
        <pt x="236" y="-12" on="0"/>
        <pt x="112" y="35" on="0"/>
        <pt x="43" y="124" on="0"/>
        <pt x="43" y="184" on="1"/>
        <pt x="43" y="251" on="0"/>
        <pt x="115" y="334" on="0"/>
        <pt x="177" y="352" on="1"/>
        <pt x="177" y="356" on="1"/>
        <pt x="120" y="380" on="0"/>
        <pt x="59" y="451" on="0"/>
        <pt x="59" y="510" on="1"/>
        <pt x="59" y="600" on="0"/>
        <pt x="204" y="698" on="0"/>
        <pt x="326" y="698" on="1"/>
        <pt x="402" y="698" on="0"/>
        <pt x="520" y="651" on="0"/>
        <pt x="585" y="566" on="0"/>
        <pt x="585" y="510" on="1"/>
        <pt x="585" y="485" on="1"/>
        <pt x="465" y="485" on="1"/>
        <pt x="465" y="501" on="1"/>
        <pt x="465" y="550" on="0"/>
        <pt x="392" y="599" on="0"/>
        <pt x="324" y="599" on="1"/>
        <pt x="256" y="599" on="0"/>
        <pt x="181" y="547" on="0"/>
        <pt x="181" y="497" on="1"/>
        <pt x="181" y="450" on="0"/>
        <pt x="251" y="397" on="0"/>
        <pt x="302" y="397" on="1"/>
        <pt x="368" y="397" on="1"/>
        <pt x="368" y="299" on="1"/>
        <pt x="304" y="299" on="1"/>
        <pt x="167" y="299" on="0"/>
        <pt x="167" y="195" on="1"/>
        <pt x="167" y="140" on="0"/>
        <pt x="246" y="87" on="0"/>
        <pt x="319" y="87" on="1"/>
        <pt x="392" y="87" on="0"/>
        <pt x="465" y="144" on="0"/>
        <pt x="465" y="198" on="1"/>
        <pt x="465" y="397" on="1"/>
        <pt x="676" y="397" on="1"/>
        <pt x="676" y="299" on="1"/>
        <pt x="585" y="299" on="1"/>
        <pt x="585" y="201" on="1"/>
        <pt x="585" y="102" on="0"/>
        <pt x="445" y="-12" on="0"/>
        <pt x="315" y="-12" on="1"/>
      </contour>
    </TTGlyph>
    <TTGlyph name="ampersand.alt" xMin="55" yMin="-14" xMax="688" yMax="698">
      <contour>
        <pt x="539" y="0" on="1"/>
        <pt x="494" y="49" on="1"/>
        <pt x="452" y="18" on="0"/>
        <pt x="350" y="-14" on="0"/>
        <pt x="296" y="-14" on="1"/>
        <pt x="228" y="-14" on="0"/>
        <pt x="119" y="33" on="0"/>
        <pt x="55" y="123" on="0"/>
        <pt x="55" y="185" on="1"/>
        <pt x="55" y="251" on="0"/>
        <pt x="133" y="352" on="0"/>
        <pt x="195" y="381" on="1"/>
        <pt x="146" y="442" on="0"/>
        <pt x="146" y="514" on="1"/>
        <pt x="146" y="571" on="0"/>
        <pt x="198" y="655" on="0"/>
        <pt x="286" y="698" on="0"/>
        <pt x="338" y="698" on="1"/>
        <pt x="386" y="698" on="0"/>
        <pt x="466" y="662" on="0"/>
        <pt x="514" y="591" on="0"/>
        <pt x="514" y="542" on="1"/>
        <pt x="514" y="482" on="0"/>
        <pt x="435" y="379" on="0"/>
        <pt x="369" y="348" on="1"/>
        <pt x="495" y="211" on="1"/>
        <pt x="524" y="271" on="0"/>
        <pt x="525" y="351" on="1"/>
        <pt x="636" y="351" on="1"/>
        <pt x="633" y="220" on="0"/>
        <pt x="571" y="128" on="1"/>
        <pt x="688" y="0" on="1"/>
      </contour>
      <contour>
        <pt x="302" y="603" on="0"/>
        <pt x="260" y="560" on="0"/>
        <pt x="260" y="521" on="1"/>
        <pt x="260" y="462" on="0"/>
        <pt x="306" y="416" on="1"/>
        <pt x="402" y="456" on="0"/>
        <pt x="402" y="529" on="1"/>
        <pt x="402" y="564" on="0"/>
        <pt x="362" y="603" on="0"/>
        <pt x="333" y="603" on="1"/>
      </contour>
      <contour>
        <pt x="374" y="83" on="0"/>
        <pt x="427" y="124" on="1"/>
        <pt x="258" y="310" on="1"/>
        <pt x="176" y="275" on="0"/>
        <pt x="176" y="191" on="1"/>
        <pt x="176" y="142" on="0"/>
        <pt x="251" y="83" on="0"/>
        <pt x="307" y="83" on="1"/>
      </contour>
    </TTGlyph>
    <TTGlyph name="aogonek" xMin="31" yMin="-182" xMax="548" yMax="538">
      <contour>
        <pt x="434" y="-182" on="0"/>
        <pt x="376" y="-143" on="0"/>
        <pt x="376" y="-100" on="1"/>
        <pt x="376" y="-69" on="0"/>
        <pt x="406" y="-23" on="0"/>
        <pt x="433" y="-4" on="1"/>
        <pt x="410" y="3" on="0"/>
        <pt x="379" y="37" on="0"/>
        <pt x="373" y="60" on="1"/>
        <pt x="366" y="60" on="1"/>
        <pt x="307" y="-12" on="0"/>
        <pt x="198" y="-12" on="1"/>
        <pt x="134" y="-12" on="0"/>
        <pt x="31" y="51" on="0"/>
        <pt x="31" y="136" on="1"/>
        <pt x="31" y="237" on="0"/>
        <pt x="203" y="319" on="0"/>
        <pt x="361" y="319" on="1"/>
        <pt x="361" y="363" on="1"/>
        <pt x="361" y="401" on="0"/>
        <pt x="322" y="443" on="0"/>
        <pt x="271" y="443" on="1"/>
        <pt x="218" y="443" on="0"/>
        <pt x="174" y="409" on="0"/>
        <pt x="174" y="384" on="1"/>
        <pt x="174" y="370" on="1"/>
        <pt x="58" y="370" on="1"/>
        <pt x="57" y="376" on="0"/>
        <pt x="57" y="392" on="1"/>
        <pt x="57" y="460" on="0"/>
        <pt x="174" y="538" on="0"/>
        <pt x="271" y="538" on="1"/>
        <pt x="376" y="538" on="0"/>
        <pt x="481" y="452" on="0"/>
        <pt x="481" y="372" on="1"/>
        <pt x="481" y="121" on="1"/>
        <pt x="481" y="103" on="0"/>
        <pt x="501" y="86" on="0"/>
        <pt x="516" y="86" on="1"/>
        <pt x="548" y="86" on="1"/>
        <pt x="548" y="4" on="1"/>
        <pt x="515" y="-9" on="0"/>
        <pt x="471" y="-43" on="0"/>
        <pt x="471" y="-70" on="1"/>
        <pt x="471" y="-89" on="0"/>
        <pt x="495" y="-114" on="0"/>
        <pt x="521" y="-114" on="1"/>
        <pt x="548" y="-114" on="1"/>
        <pt x="548" y="-168" on="1"/>
        <pt x="506" y="-182" on="0"/>
        <pt x="477" y="-182" on="1"/>
      </contour>
      <contour>
        <pt x="293" y="84" on="0"/>
        <pt x="361" y="152" on="0"/>
        <pt x="361" y="210" on="1"/>
        <pt x="361" y="234" on="1"/>
        <pt x="264" y="234" on="0"/>
        <pt x="154" y="197" on="0"/>
        <pt x="154" y="148" on="1"/>
        <pt x="154" y="84" on="0"/>
        <pt x="234" y="84" on="1"/>
      </contour>
    </TTGlyph>
    <TTGlyph name="approxequal" xMin="31" yMin="47" xMax="517" yMax="454">
      <contour>
        <pt x="31" y="369" on="1"/>
        <pt x="31" y="372" on="0"/>
        <pt x="68" y="410" on="0"/>
        <pt x="130" y="442" on="0"/>
        <pt x="172" y="442" on="1"/>
        <pt x="196" y="442" on="0"/>
        <pt x="239" y="427" on="0"/>
        <pt x="273" y="412" on="1"/>
        <pt x="303" y="397" on="0"/>
        <pt x="350" y="381" on="0"/>
        <pt x="376" y="381" on="1"/>
        <pt x="413" y="381" on="0"/>
        <pt x="476" y="413" on="0"/>
        <pt x="517" y="452" on="0"/>
        <pt x="517" y="454" on="1"/>
        <pt x="517" y="343" on="1"/>
        <pt x="517" y="340" on="0"/>
        <pt x="480" y="303" on="0"/>
        <pt x="418" y="271" on="0"/>
        <pt x="376" y="271" on="1"/>
        <pt x="352" y="271" on="0"/>
        <pt x="309" y="286" on="0"/>
        <pt x="275" y="301" on="1"/>
        <pt x="244" y="316" on="0"/>
        <pt x="197" y="331" on="0"/>
        <pt x="172" y="331" on="1"/>
        <pt x="135" y="331" on="0"/>
        <pt x="72" y="299" on="0"/>
        <pt x="31" y="261" on="0"/>
        <pt x="31" y="259" on="1"/>
      </contour>
      <contour>
        <pt x="31" y="157" on="1"/>
        <pt x="31" y="160" on="0"/>
        <pt x="68" y="197" on="0"/>
        <pt x="130" y="229" on="0"/>
        <pt x="172" y="229" on="1"/>
        <pt x="196" y="229" on="0"/>
        <pt x="239" y="214" on="0"/>
        <pt x="273" y="199" on="1"/>
        <pt x="304" y="184" on="0"/>
        <pt x="351" y="169" on="0"/>
        <pt x="376" y="169" on="1"/>
        <pt x="413" y="169" on="0"/>
        <pt x="476" y="201" on="0"/>
        <pt x="517" y="239" on="0"/>
        <pt x="517" y="241" on="1"/>
        <pt x="517" y="131" on="1"/>
        <pt x="517" y="128" on="0"/>
        <pt x="480" y="91" on="0"/>
        <pt x="418" y="59" on="0"/>
        <pt x="376" y="59" on="1"/>
        <pt x="352" y="59" on="0"/>
        <pt x="309" y="74" on="0"/>
        <pt x="275" y="89" on="1"/>
        <pt x="244" y="104" on="0"/>
        <pt x="197" y="119" on="0"/>
        <pt x="172" y="119" on="1"/>
        <pt x="135" y="119" on="0"/>
        <pt x="72" y="87" on="0"/>
        <pt x="31" y="49" on="0"/>
        <pt x="31" y="47" on="1"/>
      </contour>
    </TTGlyph>
    <TTGlyph name="aring" xMin="31" yMin="-12" xMax="548" yMax="758">
      <component glyphName=".ttfautohint" x="31" y="0" flags="0x0"/>
      <component glyphName="a" x="0" y="0" flags="0x0"/>
      <component glyphName="ring" x="111" y="0" flags="0x0"/>
    </TTGlyph>
    <TTGlyph name="aringacute" xMin="31" yMin="-12" xMax="548" yMax="911">
      <component glyphName=".ttfautohint" x="31" y="0" flags="0x0"/>
      <component glyphName="a" x="0" y="0" flags="0x0"/>
      <component glyphName="ring" x="111" y="0" flags="0x0"/>
      <component glyphName="acute" x="156" y="188" flags="0x4"/>
    </TTGlyph>
    <TTGlyph name="arrowboth" xMin="42" yMin="72" xMax="960" yMax="433">
      <contour>
        <pt x="42" y="242" on="1"/>
        <pt x="42" y="263" on="1"/>
        <pt x="239" y="433" on="1"/>
        <pt x="288" y="433" on="1"/>
        <pt x="235" y="301" on="1"/>
        <pt x="769" y="301" on="1"/>
        <pt x="714" y="433" on="1"/>
        <pt x="763" y="433" on="1"/>
        <pt x="960" y="263" on="1"/>
        <pt x="960" y="242" on="1"/>
        <pt x="763" y="72" on="1"/>
        <pt x="714" y="72" on="1"/>
        <pt x="769" y="204" on="1"/>
        <pt x="235" y="204" on="1"/>
        <pt x="288" y="72" on="1"/>
        <pt x="239" y="72" on="1"/>
      </contour>
    </TTGlyph>
    <TTGlyph name="arrowdown" xMin="71" yMin="-207" xMax="432" yMax="711">
      <contour>
        <pt x="71" y="-10" on="1"/>
        <pt x="71" y="38" on="1"/>
        <pt x="204" y="-17" on="1"/>
        <pt x="204" y="711" on="1"/>
        <pt x="299" y="711" on="1"/>
        <pt x="299" y="-17" on="1"/>
        <pt x="432" y="38" on="1"/>
        <pt x="432" y="-10" on="1"/>
        <pt x="262" y="-207" on="1"/>
        <pt x="241" y="-207" on="1"/>
      </contour>
    </TTGlyph>
    <TTGlyph name="arrowleft" xMin="42" yMin="72" xMax="960" yMax="433">
      <contour>
        <pt x="42" y="242" on="1"/>
        <pt x="42" y="263" on="1"/>
        <pt x="239" y="433" on="1"/>
        <pt x="288" y="433" on="1"/>
        <pt x="233" y="300" on="1"/>
        <pt x="960" y="300" on="1"/>
        <pt x="960" y="204" on="1"/>
        <pt x="233" y="204" on="1"/>
        <pt x="288" y="72" on="1"/>
        <pt x="239" y="72" on="1"/>
      </contour>
    </TTGlyph>
    <TTGlyph name="arrowright" xMin="42" yMin="72" xMax="960" yMax="433">
      <contour>
        <pt x="769" y="204" on="1"/>
        <pt x="42" y="204" on="1"/>
        <pt x="42" y="300" on="1"/>
        <pt x="769" y="300" on="1"/>
        <pt x="714" y="433" on="1"/>
        <pt x="763" y="433" on="1"/>
        <pt x="960" y="262" on="1"/>
        <pt x="960" y="241" on="1"/>
        <pt x="763" y="72" on="1"/>
        <pt x="714" y="72" on="1"/>
      </contour>
    </TTGlyph>
    <TTGlyph name="arrowup" xMin="71" yMin="-207" xMax="431" yMax="711">
      <contour>
        <pt x="203" y="520" on="1"/>
        <pt x="71" y="465" on="1"/>
        <pt x="71" y="514" on="1"/>
        <pt x="241" y="711" on="1"/>
        <pt x="262" y="711" on="1"/>
        <pt x="431" y="514" on="1"/>
        <pt x="431" y="465" on="1"/>
        <pt x="299" y="520" on="1"/>
        <pt x="299" y="-207" on="1"/>
        <pt x="203" y="-207" on="1"/>
      </contour>
    </TTGlyph>
    <TTGlyph name="arrowupdn" xMin="69" yMin="-207" xMax="430" yMax="711">
      <contour>
        <pt x="69" y="-10" on="1"/>
        <pt x="69" y="39" on="1"/>
        <pt x="201" y="-16" on="1"/>
        <pt x="201" y="518" on="1"/>
        <pt x="69" y="465" on="1"/>
        <pt x="69" y="514" on="1"/>
        <pt x="239" y="711" on="1"/>
        <pt x="260" y="711" on="1"/>
        <pt x="430" y="514" on="1"/>
        <pt x="430" y="465" on="1"/>
        <pt x="297" y="518" on="1"/>
        <pt x="297" y="-16" on="1"/>
        <pt x="430" y="39" on="1"/>
        <pt x="430" y="-10" on="1"/>
        <pt x="260" y="-207" on="1"/>
        <pt x="239" y="-207" on="1"/>
      </contour>
    </TTGlyph>
    <TTGlyph name="arrowupdnbse" xMin="69" yMin="-233" xMax="430" yMax="711">
      <contour>
        <pt x="69" y="85" on="1"/>
        <pt x="69" y="133" on="1"/>
        <pt x="201" y="78" on="1"/>
        <pt x="201" y="518" on="1"/>
        <pt x="69" y="465" on="1"/>
        <pt x="69" y="514" on="1"/>
        <pt x="239" y="711" on="1"/>
        <pt x="260" y="711" on="1"/>
        <pt x="430" y="514" on="1"/>
        <pt x="430" y="465" on="1"/>
        <pt x="297" y="518" on="1"/>
        <pt x="297" y="78" on="1"/>
        <pt x="430" y="133" on="1"/>
        <pt x="430" y="85" on="1"/>
        <pt x="260" y="-112" on="1"/>
        <pt x="239" y="-112" on="1"/>
      </contour>
      <contour>
        <pt x="69" y="-160" on="1"/>
        <pt x="430" y="-160" on="1"/>
        <pt x="430" y="-233" on="1"/>
        <pt x="69" y="-233" on="1"/>
      </contour>
    </TTGlyph>
    <TTGlyph name="asciicircum" xMin="25" yMin="294" xMax="445" yMax="686">
      <contour>
        <pt x="181" y="686" on="1"/>
        <pt x="288" y="686" on="1"/>
        <pt x="445" y="294" on="1"/>
        <pt x="342" y="294" on="1"/>
        <pt x="234" y="580" on="1"/>
        <pt x="128" y="294" on="1"/>
        <pt x="25" y="294" on="1"/>
      </contour>
    </TTGlyph>
    <TTGlyph name="asciitilde" xMin="41" yMin="203" xMax="543" yMax="397">
      <contour>
        <pt x="41" y="313" on="1"/>
        <pt x="41" y="316" on="0"/>
        <pt x="78" y="353" on="0"/>
        <pt x="143" y="385" on="0"/>
        <pt x="186" y="385" on="1"/>
        <pt x="211" y="385" on="0"/>
        <pt x="256" y="370" on="0"/>
        <pt x="291" y="355" on="1"/>
        <pt x="325" y="340" on="0"/>
        <pt x="372" y="325" on="0"/>
        <pt x="398" y="325" on="1"/>
        <pt x="436" y="325" on="0"/>
        <pt x="500" y="357" on="0"/>
        <pt x="543" y="395" on="0"/>
        <pt x="543" y="397" on="1"/>
        <pt x="543" y="288" on="1"/>
        <pt x="543" y="285" on="0"/>
        <pt x="506" y="247" on="0"/>
        <pt x="441" y="215" on="0"/>
        <pt x="398" y="215" on="1"/>
        <pt x="373" y="215" on="0"/>
        <pt x="328" y="230" on="0"/>
        <pt x="293" y="245" on="1"/>
        <pt x="261" y="260" on="0"/>
        <pt x="212" y="276" on="0"/>
        <pt x="186" y="276" on="1"/>
        <pt x="148" y="276" on="0"/>
        <pt x="84" y="244" on="0"/>
        <pt x="41" y="205" on="0"/>
        <pt x="41" y="203" on="1"/>
      </contour>
    </TTGlyph>
    <TTGlyph name="asterisk" xMin="31" yMin="362" xMax="354" yMax="686">
      <contour>
        <pt x="168" y="481" on="1"/>
        <pt x="72" y="407" on="1"/>
        <pt x="31" y="478" on="1"/>
        <pt x="143" y="524" on="1"/>
        <pt x="31" y="571" on="1"/>
        <pt x="72" y="641" on="1"/>
        <pt x="168" y="567" on="1"/>
        <pt x="151" y="686" on="1"/>
        <pt x="234" y="686" on="1"/>
        <pt x="217" y="568" on="1"/>
        <pt x="313" y="641" on="1"/>
        <pt x="354" y="571" on="1"/>
        <pt x="242" y="524" on="1"/>
        <pt x="354" y="478" on="1"/>
        <pt x="313" y="407" on="1"/>
        <pt x="217" y="481" on="1"/>
        <pt x="234" y="362" on="1"/>
        <pt x="151" y="362" on="1"/>
      </contour>
    </TTGlyph>
    <TTGlyph name="at" xMin="45" yMin="-153" xMax="952" yMax="698">
      <contour>
        <pt x="269" y="-153" on="0"/>
        <pt x="45" y="51" on="0"/>
        <pt x="45" y="262" on="1"/>
        <pt x="45" y="415" on="0"/>
        <pt x="170" y="610" on="0"/>
        <pt x="380" y="698" on="0"/>
        <pt x="513" y="698" on="1"/>
        <pt x="714" y="698" on="0"/>
        <pt x="952" y="513" on="0"/>
        <pt x="952" y="321" on="1"/>
        <pt x="952" y="215" on="0"/>
        <pt x="880" y="81" on="0"/>
        <pt x="774" y="22" on="0"/>
        <pt x="719" y="22" on="1"/>
        <pt x="663" y="22" on="0"/>
        <pt x="608" y="65" on="0"/>
        <pt x="602" y="84" on="1"/>
        <pt x="596" y="84" on="1"/>
        <pt x="545" y="21" on="0"/>
        <pt x="446" y="21" on="1"/>
        <pt x="390" y="21" on="0"/>
        <pt x="297" y="78" on="0"/>
        <pt x="297" y="155" on="1"/>
        <pt x="297" y="247" on="0"/>
        <pt x="450" y="322" on="0"/>
        <pt x="591" y="322" on="1"/>
        <pt x="591" y="363" on="1"/>
        <pt x="591" y="398" on="0"/>
        <pt x="558" y="435" on="0"/>
        <pt x="512" y="435" on="1"/>
        <pt x="466" y="435" on="0"/>
        <pt x="427" y="403" on="0"/>
        <pt x="427" y="381" on="1"/>
        <pt x="427" y="368" on="1"/>
        <pt x="321" y="368" on="1"/>
        <pt x="320" y="374" on="0"/>
        <pt x="320" y="388" on="1"/>
        <pt x="320" y="450" on="0"/>
        <pt x="425" y="521" on="0"/>
        <pt x="512" y="521" on="1"/>
        <pt x="606" y="521" on="0"/>
        <pt x="701" y="444" on="0"/>
        <pt x="701" y="372" on="1"/>
        <pt x="701" y="145" on="1"/>
        <pt x="701" y="123" on="0"/>
        <pt x="723" y="105" on="0"/>
        <pt x="744" y="105" on="1"/>
        <pt x="796" y="105" on="0"/>
        <pt x="872" y="208" on="0"/>
        <pt x="872" y="322" on="1"/>
        <pt x="872" y="478" on="0"/>
        <pt x="679" y="627" on="0"/>
        <pt x="512" y="627" on="1"/>
        <pt x="329" y="627" on="0"/>
        <pt x="126" y="442" on="0"/>
        <pt x="126" y="261" on="1"/>
        <pt x="126" y="89" on="0"/>
        <pt x="297" y="-82" on="0"/>
        <pt x="474" y="-82" on="1"/>
        <pt x="516" y="-82" on="0"/>
        <pt x="634" y="-63" on="0"/>
        <pt x="664" y="-50" on="1"/>
        <pt x="664" y="-126" on="1"/>
        <pt x="629" y="-137" on="0"/>
        <pt x="514" y="-153" on="0"/>
        <pt x="474" y="-153" on="1"/>
      </contour>
      <contour>
        <pt x="531" y="108" on="0"/>
        <pt x="591" y="169" on="0"/>
        <pt x="591" y="219" on="1"/>
        <pt x="591" y="244" on="1"/>
        <pt x="505" y="244" on="0"/>
        <pt x="408" y="210" on="0"/>
        <pt x="408" y="166" on="1"/>
        <pt x="408" y="108" on="0"/>
        <pt x="479" y="108" on="1"/>
      </contour>
    </TTGlyph>
    <TTGlyph name="atilde" xMin="31" yMin="-12" xMax="548" yMax="723">
      <component glyphName=".ttfautohint" x="31" y="0" flags="0x0"/>
      <component glyphName="a" x="0" y="0" flags="0x0"/>
      <component glyphName="tilde" x="111" y="0" flags="0x0"/>
    </TTGlyph>
    <TTGlyph name="b" xMin="70" yMin="-12" xMax="556" yMax="723">
      <contour>
        <pt x="295" y="-12" on="0"/>
        <pt x="211" y="30" on="0"/>
        <pt x="185" y="70" on="1"/>
        <pt x="179" y="70" on="1"/>
        <pt x="169" y="0" on="1"/>
        <pt x="70" y="0" on="1"/>
        <pt x="70" y="723" on="1"/>
        <pt x="190" y="723" on="1"/>
        <pt x="190" y="465" on="1"/>
        <pt x="196" y="465" on="1"/>
        <pt x="244" y="538" on="0"/>
        <pt x="354" y="538" on="1"/>
        <pt x="446" y="538" on="0"/>
        <pt x="556" y="400" on="0"/>
        <pt x="556" y="264" on="1"/>
        <pt x="556" y="124" on="0"/>
        <pt x="446" y="-12" on="0"/>
        <pt x="346" y="-12" on="1"/>
      </contour>
      <contour>
        <pt x="376" y="91" on="0"/>
        <pt x="432" y="170" on="0"/>
        <pt x="432" y="256" on="1"/>
        <pt x="432" y="269" on="1"/>
        <pt x="432" y="356" on="0"/>
        <pt x="376" y="435" on="0"/>
        <pt x="310" y="435" on="1"/>
        <pt x="190" y="435" on="0"/>
        <pt x="190" y="268" on="1"/>
        <pt x="190" y="256" on="1"/>
        <pt x="190" y="174" on="0"/>
        <pt x="248" y="91" on="0"/>
        <pt x="310" y="91" on="1"/>
      </contour>
    </TTGlyph>
    <TTGlyph name="backslash" xMin="1" yMin="-49" xMax="277" yMax="735">
      <contour>
        <pt x="1" y="735" on="1"/>
        <pt x="87" y="735" on="1"/>
        <pt x="277" y="-49" on="1"/>
        <pt x="190" y="-49" on="1"/>
      </contour>
    </TTGlyph>
    <TTGlyph name="bar" xMin="90" yMin="-173" xMax="183" yMax="723">
      <contour>
        <pt x="90" y="723" on="1"/>
        <pt x="183" y="723" on="1"/>
        <pt x="183" y="-173" on="1"/>
        <pt x="90" y="-173" on="1"/>
      </contour>
    </TTGlyph>
    <TTGlyph name="braceleft" xMin="33" yMin="-159" xMax="325" yMax="735">
      <contour>
        <pt x="259" y="-159" on="0"/>
        <pt x="174" y="-136" on="0"/>
        <pt x="125" y="-71" on="0"/>
        <pt x="125" y="-11" on="1"/>
        <pt x="125" y="183" on="1"/>
        <pt x="125" y="214" on="0"/>
        <pt x="70" y="243" on="0"/>
        <pt x="33" y="243" on="1"/>
        <pt x="33" y="333" on="1"/>
        <pt x="70" y="333" on="0"/>
        <pt x="125" y="362" on="0"/>
        <pt x="125" y="393" on="1"/>
        <pt x="125" y="587" on="1"/>
        <pt x="125" y="647" on="0"/>
        <pt x="174" y="712" on="0"/>
        <pt x="259" y="735" on="0"/>
        <pt x="325" y="735" on="1"/>
        <pt x="325" y="665" on="1"/>
        <pt x="286" y="665" on="0"/>
        <pt x="230" y="636" on="0"/>
        <pt x="229" y="600" on="1"/>
        <pt x="229" y="577" on="0"/>
        <pt x="224" y="452" on="1"/>
        <pt x="222" y="401" on="1"/>
        <pt x="220" y="348" on="0"/>
        <pt x="167" y="293" on="0"/>
        <pt x="108" y="293" on="1"/>
        <pt x="108" y="283" on="1"/>
        <pt x="167" y="283" on="0"/>
        <pt x="220" y="229" on="0"/>
        <pt x="222" y="175" on="1"/>
        <pt x="224" y="124" on="1"/>
        <pt x="229" y="-1" on="0"/>
        <pt x="229" y="-24" on="1"/>
        <pt x="230" y="-89" on="0"/>
        <pt x="325" y="-89" on="1"/>
        <pt x="325" y="-159" on="1"/>
      </contour>
    </TTGlyph>
    <TTGlyph name="braceright" xMin="45" yMin="-159" xMax="337" yMax="735">
      <contour>
        <pt x="45" y="-89" on="1"/>
        <pt x="140" y="-89" on="0"/>
        <pt x="140" y="-24" on="1"/>
        <pt x="143" y="59" on="0"/>
        <pt x="144" y="78" on="1"/>
        <pt x="145" y="99" on="0"/>
        <pt x="147" y="149" on="0"/>
        <pt x="147" y="175" on="1"/>
        <pt x="149" y="228" on="0"/>
        <pt x="203" y="283" on="0"/>
        <pt x="262" y="283" on="1"/>
        <pt x="262" y="293" on="1"/>
        <pt x="203" y="293" on="0"/>
        <pt x="149" y="348" on="0"/>
        <pt x="147" y="401" on="1"/>
        <pt x="147" y="427" on="0"/>
        <pt x="145" y="477" on="0"/>
        <pt x="144" y="498" on="1"/>
        <pt x="143" y="517" on="0"/>
        <pt x="140" y="600" on="1"/>
        <pt x="140" y="636" on="0"/>
        <pt x="84" y="665" on="0"/>
        <pt x="45" y="665" on="1"/>
        <pt x="45" y="735" on="1"/>
        <pt x="111" y="735" on="0"/>
        <pt x="196" y="712" on="0"/>
        <pt x="245" y="647" on="0"/>
        <pt x="245" y="587" on="1"/>
        <pt x="245" y="393" on="1"/>
        <pt x="245" y="362" on="0"/>
        <pt x="300" y="333" on="0"/>
        <pt x="337" y="333" on="1"/>
        <pt x="337" y="243" on="1"/>
        <pt x="300" y="243" on="0"/>
        <pt x="245" y="214" on="0"/>
        <pt x="245" y="183" on="1"/>
        <pt x="245" y="-11" on="1"/>
        <pt x="245" y="-71" on="0"/>
        <pt x="196" y="-136" on="0"/>
        <pt x="111" y="-159" on="0"/>
        <pt x="45" y="-159" on="1"/>
      </contour>
    </TTGlyph>
    <TTGlyph name="bracketleft" xMin="68" yMin="-161" xMax="275" yMax="735">
      <contour>
        <pt x="68" y="735" on="1"/>
        <pt x="275" y="735" on="1"/>
        <pt x="275" y="650" on="1"/>
        <pt x="171" y="650" on="1"/>
        <pt x="171" y="-76" on="1"/>
        <pt x="275" y="-76" on="1"/>
        <pt x="275" y="-161" on="1"/>
        <pt x="68" y="-161" on="1"/>
      </contour>
    </TTGlyph>
    <TTGlyph name="bracketright" xMin="39" yMin="-161" xMax="246" yMax="735">
      <contour>
        <pt x="39" y="-76" on="1"/>
        <pt x="143" y="-76" on="1"/>
        <pt x="143" y="650" on="1"/>
        <pt x="39" y="650" on="1"/>
        <pt x="39" y="735" on="1"/>
        <pt x="246" y="735" on="1"/>
        <pt x="246" y="-161" on="1"/>
        <pt x="39" y="-161" on="1"/>
      </contour>
    </TTGlyph>
    <TTGlyph name="breve" xMin="11" yMin="593" xMax="322" yMax="723">
      <contour>
        <pt x="87" y="593" on="0"/>
        <pt x="11" y="670" on="0"/>
        <pt x="11" y="723" on="1"/>
        <pt x="90" y="723" on="1"/>
        <pt x="94" y="703" on="0"/>
        <pt x="130" y="673" on="0"/>
        <pt x="166" y="673" on="1"/>
        <pt x="202" y="673" on="0"/>
        <pt x="240" y="704" on="0"/>
        <pt x="243" y="723" on="1"/>
        <pt x="322" y="723" on="1"/>
        <pt x="322" y="670" on="0"/>
        <pt x="245" y="593" on="0"/>
        <pt x="166" y="593" on="1"/>
      </contour>
    </TTGlyph>
    <TTGlyph name="brokenbar" xMin="90" yMin="-173" xMax="183" yMax="723">
      <contour>
        <pt x="90" y="723" on="1"/>
        <pt x="183" y="723" on="1"/>
        <pt x="183" y="357" on="1"/>
        <pt x="90" y="357" on="1"/>
      </contour>
      <contour>
        <pt x="90" y="193" on="1"/>
        <pt x="183" y="193" on="1"/>
        <pt x="183" y="-173" on="1"/>
        <pt x="90" y="-173" on="1"/>
      </contour>
    </TTGlyph>
    <TTGlyph name="bullet" xMin="44" yMin="212" xMax="307" yMax="475">
      <contour>
        <pt x="139" y="212" on="0"/>
        <pt x="79" y="247" on="0"/>
        <pt x="44" y="307" on="0"/>
        <pt x="44" y="343" on="1"/>
        <pt x="44" y="379" on="0"/>
        <pt x="79" y="440" on="0"/>
        <pt x="139" y="475" on="0"/>
        <pt x="175" y="475" on="1"/>
        <pt x="211" y="475" on="0"/>
        <pt x="272" y="440" on="0"/>
        <pt x="307" y="379" on="0"/>
        <pt x="307" y="343" on="1"/>
        <pt x="307" y="307" on="0"/>
        <pt x="272" y="247" on="0"/>
        <pt x="211" y="212" on="0"/>
        <pt x="175" y="212" on="1"/>
      </contour>
    </TTGlyph>
    <TTGlyph name="c" xMin="37" yMin="-12" xMax="504" yMax="538">
      <contour>
        <pt x="157" y="-12" on="0"/>
        <pt x="37" y="122" on="0"/>
        <pt x="37" y="263" on="1"/>
        <pt x="37" y="404" on="0"/>
        <pt x="158" y="538" on="0"/>
        <pt x="281" y="538" on="1"/>
        <pt x="388" y="538" on="0"/>
        <pt x="504" y="432" on="0"/>
        <pt x="504" y="329" on="1"/>
        <pt x="382" y="329" on="1"/>
        <pt x="382" y="385" on="0"/>
        <pt x="332" y="441" on="0"/>
        <pt x="279" y="441" on="1"/>
        <pt x="217" y="441" on="0"/>
        <pt x="159" y="356" on="0"/>
        <pt x="159" y="268" on="1"/>
        <pt x="159" y="256" on="1"/>
        <pt x="159" y="168" on="0"/>
        <pt x="218" y="85" on="0"/>
        <pt x="284" y="85" on="1"/>
        <pt x="335" y="85" on="0"/>
        <pt x="388" y="143" on="0"/>
        <pt x="388" y="197" on="1"/>
        <pt x="504" y="197" on="1"/>
        <pt x="504" y="98" on="0"/>
        <pt x="387" y="-12" on="0"/>
        <pt x="281" y="-12" on="1"/>
      </contour>
    </TTGlyph>
    <TTGlyph name="cacute" xMin="37" yMin="-12" xMax="504" yMax="723">
      <component glyphName=".ttfautohint" x="37" y="0" flags="0x0"/>
      <component glyphName="c" x="0" y="0" flags="0x0"/>
      <component glyphName="acute" x="145" y="0" flags="0x0"/>
    </TTGlyph>
    <TTGlyph name="cacute.loclPLK" xMin="37" yMin="-12" xMax="504" yMax="722">
      <component glyphName=".ttfautohint" x="37" y="0" flags="0x0"/>
      <component glyphName="c" x="0" y="0" flags="0x0"/>
      <component glyphName="acute.loclPLK" x="125" y="0" flags="0x0"/>
    </TTGlyph>
    <TTGlyph name="caron" xMin="7" yMin="588" xMax="326" yMax="723">
      <contour>
        <pt x="7" y="723" on="1"/>
        <pt x="110" y="723" on="1"/>
        <pt x="167" y="651" on="1"/>
        <pt x="223" y="723" on="1"/>
        <pt x="326" y="723" on="1"/>
        <pt x="221" y="588" on="1"/>
        <pt x="113" y="588" on="1"/>
      </contour>
    </TTGlyph>
    <TTGlyph name="ccaron" xMin="37" yMin="-12" xMax="504" yMax="723">
      <component glyphName=".ttfautohint" x="37" y="0" flags="0x0"/>
      <component glyphName="c" x="0" y="0" flags="0x0"/>
      <component glyphName="caron" x="101" y="0" flags="0x0"/>
    </TTGlyph>
    <TTGlyph name="ccedilla" xMin="37" yMin="-182" xMax="504" yMax="538">
      <contour>
        <pt x="335" y="85" on="0"/>
        <pt x="388" y="143" on="0"/>
        <pt x="388" y="197" on="1"/>
        <pt x="504" y="197" on="1"/>
        <pt x="504" y="104" on="0"/>
        <pt x="399" y="-6" on="0"/>
        <pt x="303" y="-11" on="1"/>
        <pt x="299" y="-34" on="1"/>
        <pt x="342" y="-36" on="0"/>
        <pt x="395" y="-69" on="0"/>
        <pt x="395" y="-101" on="1"/>
        <pt x="395" y="-146" on="0"/>
        <pt x="316" y="-182" on="0"/>
        <pt x="265" y="-182" on="1"/>
        <pt x="210" y="-182" on="0"/>
        <pt x="164" y="-174" on="1"/>
        <pt x="164" y="-125" on="1"/>
        <pt x="257" y="-125" on="1"/>
        <pt x="279" y="-125" on="0"/>
        <pt x="300" y="-115" on="0"/>
        <pt x="300" y="-101" on="1"/>
        <pt x="300" y="-88" on="0"/>
        <pt x="282" y="-77" on="0"/>
        <pt x="259" y="-77" on="1"/>
        <pt x="215" y="-77" on="1"/>
        <pt x="226" y="-8" on="1"/>
        <pt x="130" y="6" on="0"/>
        <pt x="37" y="139" on="0"/>
        <pt x="37" y="263" on="1"/>
        <pt x="37" y="404" on="0"/>
        <pt x="158" y="538" on="0"/>
        <pt x="281" y="538" on="1"/>
        <pt x="388" y="538" on="0"/>
        <pt x="504" y="432" on="0"/>
        <pt x="504" y="329" on="1"/>
        <pt x="382" y="329" on="1"/>
        <pt x="382" y="385" on="0"/>
        <pt x="332" y="441" on="0"/>
        <pt x="279" y="441" on="1"/>
        <pt x="217" y="441" on="0"/>
        <pt x="159" y="356" on="0"/>
        <pt x="159" y="268" on="1"/>
        <pt x="159" y="256" on="1"/>
        <pt x="159" y="168" on="0"/>
        <pt x="218" y="85" on="0"/>
        <pt x="284" y="85" on="1"/>
      </contour>
    </TTGlyph>
    <TTGlyph name="ccircumflex" xMin="37" yMin="-12" xMax="504" yMax="723">
      <component glyphName=".ttfautohint" x="37" y="0" flags="0x0"/>
      <component glyphName="c" x="0" y="0" flags="0x0"/>
      <component glyphName="circumflex" x="101" y="0" flags="0x0"/>
    </TTGlyph>
    <TTGlyph name="cdotaccent" xMin="37" yMin="-12" xMax="504" yMax="724">
      <component glyphName=".ttfautohint" x="37" y="0" flags="0x0"/>
      <component glyphName="c" x="0" y="0" flags="0x0"/>
      <component glyphName="dotaccent" x="100" y="0" flags="0x0"/>
    </TTGlyph>
    <TTGlyph name="cedilla" xMin="47" yMin="-182" xMax="278" yMax="11">
      <contour>
        <pt x="93" y="-182" on="0"/>
        <pt x="47" y="-174" on="1"/>
        <pt x="47" y="-125" on="1"/>
        <pt x="140" y="-125" on="1"/>
        <pt x="162" y="-125" on="0"/>
        <pt x="183" y="-115" on="0"/>
        <pt x="183" y="-101" on="1"/>
        <pt x="183" y="-88" on="0"/>
        <pt x="165" y="-77" on="0"/>
        <pt x="142" y="-77" on="1"/>
        <pt x="98" y="-77" on="1"/>
        <pt x="112" y="11" on="1"/>
        <pt x="189" y="11" on="1"/>
        <pt x="182" y="-34" on="1"/>
        <pt x="225" y="-36" on="0"/>
        <pt x="278" y="-69" on="0"/>
        <pt x="278" y="-101" on="1"/>
        <pt x="278" y="-146" on="0"/>
        <pt x="199" y="-182" on="0"/>
        <pt x="148" y="-182" on="1"/>
      </contour>
    </TTGlyph>
    <TTGlyph name="cent" xMin="42" yMin="-49" xMax="509" yMax="723">
      <contour>
        <pt x="259" y="68" on="1"/>
        <pt x="149" y="76" on="0"/>
        <pt x="42" y="209" on="0"/>
        <pt x="42" y="343" on="1"/>
        <pt x="42" y="475" on="0"/>
        <pt x="149" y="609" on="0"/>
        <pt x="259" y="617" on="1"/>
        <pt x="259" y="723" on="1"/>
        <pt x="310" y="723" on="1"/>
        <pt x="310" y="617" on="1"/>
        <pt x="405" y="611" on="0"/>
        <pt x="509" y="505" on="0"/>
        <pt x="509" y="409" on="1"/>
        <pt x="388" y="409" on="1"/>
        <pt x="388" y="506" on="0"/>
        <pt x="310" y="518" on="1"/>
        <pt x="310" y="166" on="1"/>
        <pt x="351" y="171" on="0"/>
        <pt x="393" y="228" on="0"/>
        <pt x="393" y="277" on="1"/>
        <pt x="509" y="277" on="1"/>
        <pt x="509" y="184" on="0"/>
        <pt x="404" y="74" on="0"/>
        <pt x="310" y="68" on="1"/>
        <pt x="310" y="-49" on="1"/>
        <pt x="259" y="-49" on="1"/>
      </contour>
      <contour>
        <pt x="259" y="518" on="1"/>
        <pt x="210" y="510" on="0"/>
        <pt x="165" y="427" on="0"/>
        <pt x="165" y="349" on="1"/>
        <pt x="165" y="336" on="1"/>
        <pt x="165" y="259" on="0"/>
        <pt x="210" y="176" on="0"/>
        <pt x="259" y="167" on="1"/>
      </contour>
    </TTGlyph>
    <TTGlyph name="circumflex" xMin="7" yMin="588" xMax="326" yMax="723">
      <contour>
        <pt x="113" y="723" on="1"/>
        <pt x="221" y="723" on="1"/>
        <pt x="326" y="588" on="1"/>
        <pt x="223" y="588" on="1"/>
        <pt x="167" y="660" on="1"/>
        <pt x="110" y="588" on="1"/>
        <pt x="7" y="588" on="1"/>
      </contour>
    </TTGlyph>
    <TTGlyph name="colon" xMin="95" yMin="0" xMax="219" yMax="526">
      <contour>
        <pt x="95" y="526" on="1"/>
        <pt x="219" y="526" on="1"/>
        <pt x="219" y="399" on="1"/>
        <pt x="95" y="399" on="1"/>
      </contour>
      <contour>
        <pt x="95" y="127" on="1"/>
        <pt x="219" y="127" on="1"/>
        <pt x="219" y="0" on="1"/>
        <pt x="95" y="0" on="1"/>
      </contour>
    </TTGlyph>
    <TTGlyph name="comma" xMin="77" yMin="-148" xMax="201" yMax="127">
      <contour>
        <pt x="126" y="0" on="1"/>
        <pt x="77" y="0" on="1"/>
        <pt x="77" y="127" on="1"/>
        <pt x="201" y="127" on="1"/>
        <pt x="201" y="11" on="1"/>
        <pt x="142" y="-148" on="1"/>
        <pt x="77" y="-148" on="1"/>
      </contour>
    </TTGlyph>
    <TTGlyph name="copyright" xMin="13" yMin="-12" xMax="723" yMax="698">
      <contour>
        <pt x="272" y="-12" on="0"/>
        <pt x="109" y="84" on="0"/>
        <pt x="13" y="247" on="0"/>
        <pt x="13" y="343" on="1"/>
        <pt x="13" y="439" on="0"/>
        <pt x="109" y="602" on="0"/>
        <pt x="272" y="698" on="0"/>
        <pt x="368" y="698" on="1"/>
        <pt x="464" y="698" on="0"/>
        <pt x="627" y="602" on="0"/>
        <pt x="723" y="439" on="0"/>
        <pt x="723" y="343" on="1"/>
        <pt x="723" y="247" on="0"/>
        <pt x="627" y="84" on="0"/>
        <pt x="464" y="-12" on="0"/>
        <pt x="368" y="-12" on="1"/>
      </contour>
      <contour>
        <pt x="449" y="45" on="0"/>
        <pt x="585" y="125" on="0"/>
        <pt x="664" y="262" on="0"/>
        <pt x="664" y="343" on="1"/>
        <pt x="664" y="424" on="0"/>
        <pt x="585" y="561" on="0"/>
        <pt x="449" y="641" on="0"/>
        <pt x="368" y="641" on="1"/>
        <pt x="287" y="641" on="0"/>
        <pt x="151" y="561" on="0"/>
        <pt x="72" y="424" on="0"/>
        <pt x="72" y="343" on="1"/>
        <pt x="72" y="262" on="0"/>
        <pt x="151" y="125" on="0"/>
        <pt x="287" y="45" on="0"/>
        <pt x="368" y="45" on="1"/>
      </contour>
      <contour>
        <pt x="276" y="132" on="0"/>
        <pt x="190" y="234" on="0"/>
        <pt x="190" y="342" on="1"/>
        <pt x="190" y="450" on="0"/>
        <pt x="276" y="552" on="0"/>
        <pt x="368" y="552" on="1"/>
        <pt x="451" y="552" on="0"/>
        <pt x="527" y="470" on="0"/>
        <pt x="527" y="389" on="1"/>
        <pt x="453" y="389" on="1"/>
        <pt x="453" y="442" on="0"/>
        <pt x="415" y="490" on="0"/>
        <pt x="368" y="490" on="1"/>
        <pt x="314" y="490" on="0"/>
        <pt x="265" y="421" on="0"/>
        <pt x="265" y="342" on="1"/>
        <pt x="265" y="263" on="0"/>
        <pt x="313" y="194" on="0"/>
        <pt x="368" y="194" on="1"/>
        <pt x="415" y="194" on="0"/>
        <pt x="457" y="245" on="0"/>
        <pt x="457" y="295" on="1"/>
        <pt x="527" y="295" on="1"/>
        <pt x="527" y="224" on="0"/>
        <pt x="449" y="132" on="0"/>
        <pt x="368" y="132" on="1"/>
      </contour>
    </TTGlyph>
    <TTGlyph name="currency" xMin="28" yMin="99" xMax="528" yMax="603">
      <contour>
        <pt x="29" y="144" on="1"/>
        <pt x="83" y="200" on="1"/>
        <pt x="58" y="231" on="0"/>
        <pt x="33" y="309" on="0"/>
        <pt x="33" y="351" on="1"/>
        <pt x="33" y="394" on="0"/>
        <pt x="58" y="473" on="0"/>
        <pt x="83" y="501" on="1"/>
        <pt x="28" y="555" on="1"/>
        <pt x="76" y="603" on="1"/>
        <pt x="133" y="547" on="1"/>
        <pt x="161" y="571" on="0"/>
        <pt x="238" y="598" on="0"/>
        <pt x="278" y="598" on="1"/>
        <pt x="318" y="598" on="0"/>
        <pt x="395" y="571" on="0"/>
        <pt x="423" y="547" on="1"/>
        <pt x="480" y="603" on="1"/>
        <pt x="528" y="555" on="1"/>
        <pt x="473" y="501" on="1"/>
        <pt x="498" y="473" on="0"/>
        <pt x="523" y="394" on="0"/>
        <pt x="523" y="351" on="1"/>
        <pt x="523" y="309" on="0"/>
        <pt x="498" y="231" on="0"/>
        <pt x="473" y="200" on="1"/>
        <pt x="527" y="144" on="1"/>
        <pt x="482" y="99" on="1"/>
        <pt x="427" y="157" on="1"/>
        <pt x="398" y="130" on="0"/>
        <pt x="320" y="102" on="0"/>
        <pt x="278" y="102" on="1"/>
        <pt x="236" y="102" on="0"/>
        <pt x="158" y="130" on="0"/>
        <pt x="129" y="157" on="1"/>
        <pt x="74" y="99" on="1"/>
      </contour>
      <contour>
        <pt x="322" y="181" on="0"/>
        <pt x="397" y="228" on="0"/>
        <pt x="441" y="306" on="0"/>
        <pt x="441" y="351" on="1"/>
        <pt x="441" y="395" on="0"/>
        <pt x="397" y="472" on="0"/>
        <pt x="322" y="519" on="0"/>
        <pt x="278" y="519" on="1"/>
        <pt x="234" y="519" on="0"/>
        <pt x="159" y="472" on="0"/>
        <pt x="115" y="395" on="0"/>
        <pt x="115" y="351" on="1"/>
        <pt x="115" y="306" on="0"/>
        <pt x="159" y="228" on="0"/>
        <pt x="234" y="181" on="0"/>
        <pt x="278" y="181" on="1"/>
      </contour>
    </TTGlyph>
    <TTGlyph name="d" xMin="36" yMin="-12" xMax="522" yMax="723">
      <contour>
        <pt x="146" y="-12" on="0"/>
        <pt x="36" y="124" on="0"/>
        <pt x="36" y="264" on="1"/>
        <pt x="36" y="400" on="0"/>
        <pt x="146" y="538" on="0"/>
        <pt x="238" y="538" on="1"/>
        <pt x="348" y="538" on="0"/>
        <pt x="396" y="465" on="1"/>
        <pt x="402" y="465" on="1"/>
        <pt x="402" y="723" on="1"/>
        <pt x="522" y="723" on="1"/>
        <pt x="522" y="0" on="1"/>
        <pt x="423" y="0" on="1"/>
        <pt x="413" y="70" on="1"/>
        <pt x="407" y="70" on="1"/>
        <pt x="381" y="30" on="0"/>
        <pt x="297" y="-12" on="0"/>
        <pt x="246" y="-12" on="1"/>
      </contour>
      <contour>
        <pt x="344" y="91" on="0"/>
        <pt x="402" y="174" on="0"/>
        <pt x="402" y="256" on="1"/>
        <pt x="402" y="268" on="1"/>
        <pt x="402" y="435" on="0"/>
        <pt x="282" y="435" on="1"/>
        <pt x="216" y="435" on="0"/>
        <pt x="160" y="356" on="0"/>
        <pt x="160" y="269" on="1"/>
        <pt x="160" y="256" on="1"/>
        <pt x="160" y="170" on="0"/>
        <pt x="216" y="91" on="0"/>
        <pt x="282" y="91" on="1"/>
      </contour>
    </TTGlyph>
    <TTGlyph name="dagger" xMin="38" yMin="-172" xMax="517" yMax="686">
      <contour>
        <pt x="243" y="427" on="1"/>
        <pt x="38" y="409" on="1"/>
        <pt x="38" y="515" on="1"/>
        <pt x="243" y="498" on="1"/>
        <pt x="226" y="686" on="1"/>
        <pt x="328" y="686" on="1"/>
        <pt x="311" y="498" on="1"/>
        <pt x="517" y="515" on="1"/>
        <pt x="517" y="409" on="1"/>
        <pt x="311" y="427" on="1"/>
        <pt x="331" y="-172" on="1"/>
        <pt x="223" y="-172" on="1"/>
      </contour>
    </TTGlyph>
    <TTGlyph name="daggerdbl" xMin="39" yMin="-172" xMax="517" yMax="686">
      <contour>
        <pt x="244" y="18" on="1"/>
        <pt x="39" y="1" on="1"/>
        <pt x="39" y="107" on="1"/>
        <pt x="244" y="89" on="1"/>
        <pt x="224" y="260" on="1"/>
        <pt x="244" y="427" on="1"/>
        <pt x="39" y="409" on="1"/>
        <pt x="39" y="515" on="1"/>
        <pt x="244" y="498" on="1"/>
        <pt x="227" y="686" on="1"/>
        <pt x="328" y="686" on="1"/>
        <pt x="311" y="498" on="1"/>
        <pt x="517" y="515" on="1"/>
        <pt x="517" y="409" on="1"/>
        <pt x="311" y="427" on="1"/>
        <pt x="331" y="260" on="1"/>
        <pt x="311" y="89" on="1"/>
        <pt x="517" y="107" on="1"/>
        <pt x="517" y="1" on="1"/>
        <pt x="311" y="18" on="1"/>
        <pt x="328" y="-172" on="1"/>
        <pt x="227" y="-172" on="1"/>
      </contour>
    </TTGlyph>
    <TTGlyph name="dcaron" xMin="36" yMin="-12" xMax="696" yMax="723">
      <contour>
        <pt x="146" y="-12" on="0"/>
        <pt x="36" y="124" on="0"/>
        <pt x="36" y="264" on="1"/>
        <pt x="36" y="400" on="0"/>
        <pt x="146" y="538" on="0"/>
        <pt x="238" y="538" on="1"/>
        <pt x="348" y="538" on="0"/>
        <pt x="396" y="465" on="1"/>
        <pt x="402" y="465" on="1"/>
        <pt x="402" y="723" on="1"/>
        <pt x="522" y="723" on="1"/>
        <pt x="522" y="0" on="1"/>
        <pt x="423" y="0" on="1"/>
        <pt x="413" y="70" on="1"/>
        <pt x="407" y="70" on="1"/>
        <pt x="381" y="30" on="0"/>
        <pt x="297" y="-12" on="0"/>
        <pt x="246" y="-12" on="1"/>
      </contour>
      <contour>
        <pt x="624" y="571" on="1"/>
        <pt x="576" y="571" on="1"/>
        <pt x="576" y="686" on="1"/>
        <pt x="696" y="686" on="1"/>
        <pt x="696" y="582" on="1"/>
        <pt x="639" y="459" on="1"/>
        <pt x="576" y="459" on="1"/>
      </contour>
      <contour>
        <pt x="344" y="91" on="0"/>
        <pt x="402" y="174" on="0"/>
        <pt x="402" y="256" on="1"/>
        <pt x="402" y="268" on="1"/>
        <pt x="402" y="435" on="0"/>
        <pt x="282" y="435" on="1"/>
        <pt x="216" y="435" on="0"/>
        <pt x="160" y="356" on="0"/>
        <pt x="160" y="269" on="1"/>
        <pt x="160" y="256" on="1"/>
        <pt x="160" y="170" on="0"/>
        <pt x="216" y="91" on="0"/>
        <pt x="282" y="91" on="1"/>
      </contour>
    </TTGlyph>
    <TTGlyph name="dcroat" xMin="36" yMin="-12" xMax="583" yMax="723">
      <contour>
        <pt x="583" y="590" on="1"/>
        <pt x="522" y="590" on="1"/>
        <pt x="522" y="0" on="1"/>
        <pt x="423" y="0" on="1"/>
        <pt x="413" y="70" on="1"/>
        <pt x="407" y="70" on="1"/>
        <pt x="381" y="30" on="0"/>
        <pt x="297" y="-12" on="0"/>
        <pt x="246" y="-12" on="1"/>
        <pt x="146" y="-12" on="0"/>
        <pt x="36" y="124" on="0"/>
        <pt x="36" y="264" on="1"/>
        <pt x="36" y="400" on="0"/>
        <pt x="146" y="538" on="0"/>
        <pt x="238" y="538" on="1"/>
        <pt x="348" y="538" on="0"/>
        <pt x="396" y="465" on="1"/>
        <pt x="402" y="465" on="1"/>
        <pt x="402" y="590" on="1"/>
        <pt x="253" y="590" on="1"/>
        <pt x="253" y="658" on="1"/>
        <pt x="402" y="658" on="1"/>
        <pt x="402" y="723" on="1"/>
        <pt x="522" y="723" on="1"/>
        <pt x="522" y="658" on="1"/>
        <pt x="583" y="658" on="1"/>
      </contour>
      <contour>
        <pt x="402" y="268" on="1"/>
        <pt x="402" y="435" on="0"/>
        <pt x="282" y="435" on="1"/>
        <pt x="216" y="435" on="0"/>
        <pt x="160" y="356" on="0"/>
        <pt x="160" y="269" on="1"/>
        <pt x="160" y="256" on="1"/>
        <pt x="160" y="170" on="0"/>
        <pt x="216" y="91" on="0"/>
        <pt x="282" y="91" on="1"/>
        <pt x="344" y="91" on="0"/>
        <pt x="402" y="174" on="0"/>
        <pt x="402" y="256" on="1"/>
      </contour>
    </TTGlyph>
    <TTGlyph name="degree" xMin="51" yMin="401" xMax="348" yMax="698">
      <contour>
        <pt x="158" y="401" on="0"/>
        <pt x="90" y="440" on="0"/>
        <pt x="51" y="508" on="0"/>
        <pt x="51" y="549" on="1"/>
        <pt x="51" y="590" on="0"/>
        <pt x="90" y="658" on="0"/>
        <pt x="158" y="698" on="0"/>
        <pt x="199" y="698" on="1"/>
        <pt x="240" y="698" on="0"/>
        <pt x="308" y="658" on="0"/>
        <pt x="348" y="590" on="0"/>
        <pt x="348" y="549" on="1"/>
        <pt x="348" y="508" on="0"/>
        <pt x="308" y="440" on="0"/>
        <pt x="240" y="401" on="0"/>
        <pt x="199" y="401" on="1"/>
      </contour>
      <contour>
        <pt x="231" y="473" on="0"/>
        <pt x="275" y="517" on="0"/>
        <pt x="275" y="549" on="1"/>
        <pt x="275" y="581" on="0"/>
        <pt x="231" y="625" on="0"/>
        <pt x="199" y="625" on="1"/>
        <pt x="167" y="625" on="0"/>
        <pt x="123" y="581" on="0"/>
        <pt x="123" y="549" on="1"/>
        <pt x="123" y="518" on="0"/>
        <pt x="168" y="473" on="0"/>
        <pt x="199" y="473" on="1"/>
      </contour>
    </TTGlyph>
    <TTGlyph name="dieresis" xMin="12" yMin="613" xMax="322" yMax="723">
      <contour>
        <pt x="12" y="723" on="1"/>
        <pt x="119" y="723" on="1"/>
        <pt x="119" y="613" on="1"/>
        <pt x="12" y="613" on="1"/>
      </contour>
      <contour>
        <pt x="214" y="723" on="1"/>
        <pt x="322" y="723" on="1"/>
        <pt x="322" y="613" on="1"/>
        <pt x="214" y="613" on="1"/>
      </contour>
    </TTGlyph>
    <TTGlyph name="divide" xMin="39" yMin="1" xMax="511" yMax="512">
      <contour>
        <pt x="217" y="512" on="1"/>
        <pt x="331" y="512" on="1"/>
        <pt x="331" y="405" on="1"/>
        <pt x="217" y="405" on="1"/>
      </contour>
      <contour>
        <pt x="39" y="304" on="1"/>
        <pt x="511" y="304" on="1"/>
        <pt x="511" y="207" on="1"/>
        <pt x="39" y="207" on="1"/>
      </contour>
      <contour>
        <pt x="217" y="107" on="1"/>
        <pt x="331" y="107" on="1"/>
        <pt x="331" y="1" on="1"/>
        <pt x="217" y="1" on="1"/>
      </contour>
    </TTGlyph>
    <TTGlyph name="dollar" xMin="45" yMin="-49" xMax="505" yMax="723">
      <contour>
        <pt x="252" y="68" on="1"/>
        <pt x="152" y="73" on="0"/>
        <pt x="45" y="162" on="0"/>
        <pt x="45" y="230" on="1"/>
        <pt x="45" y="240" on="0"/>
        <pt x="46" y="246" on="1"/>
        <pt x="160" y="246" on="1"/>
        <pt x="160" y="238" on="1"/>
        <pt x="161" y="203" on="0"/>
        <pt x="211" y="165" on="0"/>
        <pt x="252" y="160" on="1"/>
        <pt x="252" y="303" on="1"/>
        <pt x="191" y="318" on="0"/>
        <pt x="112" y="350" on="0"/>
        <pt x="57" y="411" on="0"/>
        <pt x="57" y="461" on="1"/>
        <pt x="57" y="530" on="0"/>
        <pt x="164" y="611" on="0"/>
        <pt x="252" y="617" on="1"/>
        <pt x="252" y="723" on="1"/>
        <pt x="303" y="723" on="1"/>
        <pt x="303" y="617" on="1"/>
        <pt x="387" y="612" on="0"/>
        <pt x="490" y="534" on="0"/>
        <pt x="490" y="474" on="1"/>
        <pt x="489" y="453" on="1"/>
        <pt x="376" y="453" on="1"/>
        <pt x="376" y="456" on="1"/>
        <pt x="376" y="483" on="0"/>
        <pt x="338" y="519" on="0"/>
        <pt x="303" y="524" on="1"/>
        <pt x="303" y="398" on="1"/>
        <pt x="366" y="383" on="0"/>
        <pt x="447" y="352" on="0"/>
        <pt x="505" y="288" on="0"/>
        <pt x="505" y="235" on="1"/>
        <pt x="505" y="154" on="0"/>
        <pt x="397" y="73" on="0"/>
        <pt x="303" y="68" on="1"/>
        <pt x="303" y="-49" on="1"/>
        <pt x="252" y="-49" on="1"/>
      </contour>
      <contour>
        <pt x="252" y="525" on="1"/>
        <pt x="214" y="521" on="0"/>
        <pt x="175" y="491" on="0"/>
        <pt x="175" y="471" on="1"/>
        <pt x="175" y="449" on="0"/>
        <pt x="214" y="422" on="0"/>
        <pt x="252" y="411" on="1"/>
      </contour>
      <contour>
        <pt x="340" y="163" on="0"/>
        <pt x="387" y="193" on="0"/>
        <pt x="387" y="220" on="1"/>
        <pt x="387" y="246" on="0"/>
        <pt x="344" y="277" on="0"/>
        <pt x="303" y="289" on="1"/>
        <pt x="303" y="160" on="1"/>
      </contour>
    </TTGlyph>
    <TTGlyph name="dotaccent" xMin="108" yMin="606" xMax="226" yMax="724">
      <contour>
        <pt x="108" y="724" on="1"/>
        <pt x="226" y="724" on="1"/>
        <pt x="226" y="606" on="1"/>
        <pt x="108" y="606" on="1"/>
      </contour>
    </TTGlyph>
    <TTGlyph name="dotbelowcomb" xMin="-225" yMin="-173" xMax="-107" yMax="-55">
      <contour>
        <pt x="-225" y="-55" on="1"/>
        <pt x="-107" y="-55" on="1"/>
        <pt x="-107" y="-173" on="1"/>
        <pt x="-225" y="-173" on="1"/>
      </contour>
    </TTGlyph>
    <TTGlyph name="dotlessi" xMin="79" yMin="0" xMax="199" yMax="526">
      <contour>
        <pt x="79" y="526" on="1"/>
        <pt x="199" y="526" on="1"/>
        <pt x="199" y="0" on="1"/>
        <pt x="79" y="0" on="1"/>
      </contour>
    </TTGlyph>
    <TTGlyph name="e" xMin="37" yMin="-12" xMax="520" yMax="538">
      <contour>
        <pt x="161" y="-12" on="0"/>
        <pt x="37" y="122" on="0"/>
        <pt x="37" y="263" on="1"/>
        <pt x="37" y="404" on="0"/>
        <pt x="162" y="538" on="0"/>
        <pt x="289" y="538" on="1"/>
        <pt x="405" y="538" on="0"/>
        <pt x="520" y="408" on="0"/>
        <pt x="520" y="270" on="1"/>
        <pt x="520" y="234" on="1"/>
        <pt x="159" y="234" on="1"/>
        <pt x="162" y="156" on="0"/>
        <pt x="223" y="83" on="0"/>
        <pt x="290" y="83" on="1"/>
        <pt x="340" y="83" on="0"/>
        <pt x="402" y="134" on="0"/>
        <pt x="402" y="184" on="1"/>
        <pt x="520" y="184" on="1"/>
        <pt x="520" y="87" on="0"/>
        <pt x="392" y="-12" on="0"/>
        <pt x="289" y="-12" on="1"/>
      </contour>
      <contour>
        <pt x="395" y="319" on="1"/>
        <pt x="395" y="443" on="0"/>
        <pt x="289" y="443" on="1"/>
        <pt x="229" y="443" on="0"/>
        <pt x="168" y="382" on="0"/>
        <pt x="161" y="319" on="1"/>
      </contour>
    </TTGlyph>
    <TTGlyph name="eacute" xMin="37" yMin="-12" xMax="520" yMax="723">
      <component glyphName=".ttfautohint" x="37" y="0" flags="0x0"/>
      <component glyphName="e" x="0" y="0" flags="0x0"/>
      <component glyphName="acute" x="155" y="0" flags="0x0"/>
    </TTGlyph>
    <TTGlyph name="ebreve" xMin="37" yMin="-12" xMax="520" yMax="723">
      <component glyphName=".ttfautohint" x="37" y="0" flags="0x0"/>
      <component glyphName="e" x="0" y="0" flags="0x0"/>
      <component glyphName="breve" x="111" y="0" flags="0x0"/>
    </TTGlyph>
    <TTGlyph name="ecaron" xMin="37" yMin="-12" xMax="520" yMax="723">
      <component glyphName=".ttfautohint" x="37" y="0" flags="0x0"/>
      <component glyphName="e" x="0" y="0" flags="0x0"/>
      <component glyphName="caron" x="111" y="0" flags="0x0"/>
    </TTGlyph>
    <TTGlyph name="ecircumflex" xMin="37" yMin="-12" xMax="520" yMax="723">
      <component glyphName=".ttfautohint" x="37" y="0" flags="0x0"/>
      <component glyphName="e" x="0" y="0" flags="0x0"/>
      <component glyphName="circumflex" x="111" y="0" flags="0x0"/>
    </TTGlyph>
    <TTGlyph name="edieresis" xMin="37" yMin="-12" xMax="520" yMax="723">
      <component glyphName=".ttfautohint" x="37" y="0" flags="0x0"/>
      <component glyphName="e" x="0" y="0" flags="0x0"/>
      <component glyphName="dieresis" x="112" y="0" flags="0x0"/>
    </TTGlyph>
    <TTGlyph name="edotaccent" xMin="37" yMin="-12" xMax="520" yMax="724">
      <component glyphName=".ttfautohint" x="37" y="0" flags="0x0"/>
      <component glyphName="e" x="0" y="0" flags="0x0"/>
      <component glyphName="dotaccent" x="110" y="0" flags="0x0"/>
    </TTGlyph>
    <TTGlyph name="egrave" xMin="37" yMin="-12" xMax="520" yMax="723">
      <component glyphName=".ttfautohint" x="37" y="0" flags="0x0"/>
      <component glyphName="e" x="0" y="0" flags="0x0"/>
      <component glyphName="grave" x="47" y="0" flags="0x0"/>
    </TTGlyph>
    <TTGlyph name="eight" xMin="35" yMin="-12" xMax="521" yMax="698">
      <contour>
        <pt x="155" y="-12" on="0"/>
        <pt x="35" y="99" on="0"/>
        <pt x="35" y="188" on="1"/>
        <pt x="35" y="308" on="0"/>
        <pt x="145" y="352" on="1"/>
        <pt x="99" y="376" on="0"/>
        <pt x="52" y="457" on="0"/>
        <pt x="52" y="507" on="1"/>
        <pt x="52" y="561" on="0"/>
        <pt x="104" y="647" on="0"/>
        <pt x="205" y="698" on="0"/>
        <pt x="278" y="698" on="1"/>
        <pt x="350" y="698" on="0"/>
        <pt x="452" y="647" on="0"/>
        <pt x="503" y="561" on="0"/>
        <pt x="503" y="507" on="1"/>
        <pt x="503" y="457" on="0"/>
        <pt x="456" y="376" on="0"/>
        <pt x="410" y="352" on="1"/>
        <pt x="521" y="308" on="0"/>
        <pt x="521" y="188" on="1"/>
        <pt x="521" y="99" on="0"/>
        <pt x="400" y="-12" on="0"/>
        <pt x="278" y="-12" on="1"/>
      </contour>
      <contour>
        <pt x="327" y="399" on="0"/>
        <pt x="383" y="451" on="0"/>
        <pt x="383" y="499" on="1"/>
        <pt x="383" y="547" on="0"/>
        <pt x="327" y="601" on="0"/>
        <pt x="278" y="601" on="1"/>
        <pt x="228" y="601" on="0"/>
        <pt x="173" y="548" on="0"/>
        <pt x="173" y="499" on="1"/>
        <pt x="173" y="451" on="0"/>
        <pt x="228" y="399" on="0"/>
        <pt x="278" y="399" on="1"/>
      </contour>
      <contour>
        <pt x="335" y="85" on="0"/>
        <pt x="397" y="143" on="0"/>
        <pt x="397" y="194" on="1"/>
        <pt x="397" y="245" on="0"/>
        <pt x="335" y="302" on="0"/>
        <pt x="278" y="302" on="1"/>
        <pt x="220" y="302" on="0"/>
        <pt x="158" y="245" on="0"/>
        <pt x="158" y="194" on="1"/>
        <pt x="158" y="142" on="0"/>
        <pt x="220" y="85" on="0"/>
        <pt x="278" y="85" on="1"/>
      </contour>
    </TTGlyph>
    <TTGlyph name="ellipsis" xMin="105" yMin="0" xMax="895" yMax="127">
      <contour>
        <pt x="105" y="127" on="1"/>
        <pt x="229" y="127" on="1"/>
        <pt x="229" y="0" on="1"/>
        <pt x="105" y="0" on="1"/>
      </contour>
      <contour>
        <pt x="438" y="127" on="1"/>
        <pt x="562" y="127" on="1"/>
        <pt x="562" y="0" on="1"/>
        <pt x="438" y="0" on="1"/>
      </contour>
      <contour>
        <pt x="770" y="127" on="1"/>
        <pt x="895" y="127" on="1"/>
        <pt x="895" y="0" on="1"/>
        <pt x="770" y="0" on="1"/>
      </contour>
    </TTGlyph>
    <TTGlyph name="emacron" xMin="37" yMin="-12" xMax="520" yMax="699">
      <component glyphName=".ttfautohint" x="37" y="0" flags="0x0"/>
      <component glyphName="e" x="0" y="0" flags="0x0"/>
      <component glyphName="macron" x="111" y="0" flags="0x0"/>
    </TTGlyph>
    <TTGlyph name="emdash" xMin="0" yMin="225" xMax="1000" yMax="315">
      <contour>
        <pt x="0" y="315" on="1"/>
        <pt x="1000" y="315" on="1"/>
        <pt x="1000" y="225" on="1"/>
        <pt x="0" y="225" on="1"/>
      </contour>
    </TTGlyph>
    <TTGlyph name="endash" xMin="0" yMin="225" xMax="556" yMax="315">
      <contour>
        <pt x="0" y="315" on="1"/>
        <pt x="556" y="315" on="1"/>
        <pt x="556" y="225" on="1"/>
        <pt x="0" y="225" on="1"/>
      </contour>
    </TTGlyph>
    <TTGlyph name="eng" xMin="70" yMin="-182" xMax="525" yMax="538">
      <contour>
        <pt x="376" y="-182" on="0"/>
        <pt x="328" y="-173" on="0"/>
        <pt x="312" y="-167" on="1"/>
        <pt x="312" y="-85" on="1"/>
        <pt x="361" y="-85" on="1"/>
        <pt x="405" y="-85" on="0"/>
        <pt x="405" y="-40" on="1"/>
        <pt x="405" y="334" on="1"/>
        <pt x="405" y="388" on="0"/>
        <pt x="356" y="434" on="0"/>
        <pt x="308" y="434" on="1"/>
        <pt x="258" y="434" on="0"/>
        <pt x="190" y="362" on="0"/>
        <pt x="190" y="306" on="1"/>
        <pt x="190" y="0" on="1"/>
        <pt x="70" y="0" on="1"/>
        <pt x="70" y="526" on="1"/>
        <pt x="169" y="526" on="1"/>
        <pt x="179" y="456" on="1"/>
        <pt x="186" y="456" on="1"/>
        <pt x="215" y="495" on="0"/>
        <pt x="300" y="538" on="0"/>
        <pt x="355" y="538" on="1"/>
        <pt x="435" y="538" on="0"/>
        <pt x="525" y="451" on="0"/>
        <pt x="525" y="355" on="1"/>
        <pt x="525" y="-48" on="1"/>
        <pt x="525" y="-105" on="0"/>
        <pt x="465" y="-182" on="0"/>
        <pt x="397" y="-182" on="1"/>
      </contour>
    </TTGlyph>
    <TTGlyph name="eogonek" xMin="37" yMin="-182" xMax="520" yMax="538">
      <contour>
        <pt x="404" y="-182" on="0"/>
        <pt x="343" y="-136" on="0"/>
        <pt x="343" y="-84" on="1"/>
        <pt x="343" y="-38" on="0"/>
        <pt x="363" y="0" on="1"/>
        <pt x="327" y="-12" on="0"/>
        <pt x="285" y="-12" on="1"/>
        <pt x="160" y="-12" on="0"/>
        <pt x="37" y="122" on="0"/>
        <pt x="37" y="263" on="1"/>
        <pt x="37" y="404" on="0"/>
        <pt x="162" y="538" on="0"/>
        <pt x="289" y="538" on="1"/>
        <pt x="405" y="538" on="0"/>
        <pt x="520" y="408" on="0"/>
        <pt x="520" y="270" on="1"/>
        <pt x="520" y="234" on="1"/>
        <pt x="159" y="234" on="1"/>
        <pt x="162" y="156" on="0"/>
        <pt x="223" y="83" on="0"/>
        <pt x="290" y="83" on="1"/>
        <pt x="340" y="83" on="0"/>
        <pt x="402" y="134" on="0"/>
        <pt x="402" y="184" on="1"/>
        <pt x="520" y="184" on="1"/>
        <pt x="519" y="101" on="0"/>
        <pt x="471" y="52" on="1"/>
        <pt x="458" y="36" on="0"/>
        <pt x="439" y="-13" on="0"/>
        <pt x="439" y="-41" on="1"/>
        <pt x="439" y="-75" on="0"/>
        <pt x="467" y="-114" on="0"/>
        <pt x="497" y="-114" on="1"/>
        <pt x="519" y="-114" on="1"/>
        <pt x="519" y="-168" on="1"/>
        <pt x="482" y="-182" on="0"/>
        <pt x="450" y="-182" on="1"/>
      </contour>
      <contour>
        <pt x="395" y="319" on="1"/>
        <pt x="395" y="443" on="0"/>
        <pt x="289" y="443" on="1"/>
        <pt x="229" y="443" on="0"/>
        <pt x="168" y="382" on="0"/>
        <pt x="161" y="319" on="1"/>
      </contour>
    </TTGlyph>
    <TTGlyph name="equal" xMin="56" yMin="99" xMax="528" yMax="409">
      <contour>
        <pt x="56" y="409" on="1"/>
        <pt x="528" y="409" on="1"/>
        <pt x="528" y="311" on="1"/>
        <pt x="56" y="311" on="1"/>
      </contour>
      <contour>
        <pt x="56" y="196" on="1"/>
        <pt x="528" y="196" on="1"/>
        <pt x="528" y="99" on="1"/>
        <pt x="56" y="99" on="1"/>
      </contour>
    </TTGlyph>
    <TTGlyph name="equivalence" xMin="56" yMin="14" xMax="529" yMax="536">
      <contour>
        <pt x="56" y="536" on="1"/>
        <pt x="529" y="536" on="1"/>
        <pt x="529" y="439" on="1"/>
        <pt x="56" y="439" on="1"/>
      </contour>
      <contour>
        <pt x="56" y="323" on="1"/>
        <pt x="529" y="323" on="1"/>
        <pt x="529" y="226" on="1"/>
        <pt x="56" y="226" on="1"/>
      </contour>
      <contour>
        <pt x="56" y="110" on="1"/>
        <pt x="529" y="110" on="1"/>
        <pt x="529" y="14" on="1"/>
        <pt x="56" y="14" on="1"/>
      </contour>
    </TTGlyph>
    <TTGlyph name="estimated" xMin="45" yMin="-12" xMax="559" yMax="538">
      <contour>
        <pt x="224" y="-12" on="0"/>
        <pt x="107" y="59" on="0"/>
        <pt x="45" y="183" on="0"/>
        <pt x="45" y="263" on="1"/>
        <pt x="45" y="343" on="0"/>
        <pt x="107" y="467" on="0"/>
        <pt x="224" y="538" on="0"/>
        <pt x="302" y="538" on="1"/>
        <pt x="380" y="538" on="0"/>
        <pt x="496" y="465" on="0"/>
        <pt x="559" y="335" on="0"/>
        <pt x="559" y="253" on="1"/>
        <pt x="559" y="248" on="1"/>
        <pt x="153" y="248" on="1"/>
        <pt x="153" y="83" on="1"/>
        <pt x="211" y="30" on="0"/>
        <pt x="302" y="30" on="1"/>
        <pt x="367" y="30" on="0"/>
        <pt x="466" y="88" on="0"/>
        <pt x="492" y="139" on="1"/>
        <pt x="526" y="118" on="1"/>
        <pt x="494" y="57" on="0"/>
        <pt x="379" y="-12" on="0"/>
        <pt x="302" y="-12" on="1"/>
      </contour>
      <contour>
        <pt x="451" y="290" on="1"/>
        <pt x="451" y="441" on="1"/>
        <pt x="391" y="496" on="0"/>
        <pt x="302" y="496" on="1"/>
        <pt x="212" y="496" on="0"/>
        <pt x="153" y="442" on="1"/>
        <pt x="153" y="290" on="1"/>
      </contour>
    </TTGlyph>
    <TTGlyph name="eth" xMin="37" yMin="-12" xMax="555" yMax="723">
      <contour>
        <pt x="166" y="-12" on="0"/>
        <pt x="37" y="121" on="0"/>
        <pt x="37" y="260" on="1"/>
        <pt x="37" y="390" on="0"/>
        <pt x="153" y="531" on="0"/>
        <pt x="258" y="531" on="1"/>
        <pt x="302" y="531" on="0"/>
        <pt x="344" y="515" on="1"/>
        <pt x="347" y="518" on="1"/>
        <pt x="321" y="558" on="0"/>
        <pt x="283" y="601" on="1"/>
        <pt x="122" y="589" on="1"/>
        <pt x="122" y="657" on="1"/>
        <pt x="222" y="665" on="1"/>
        <pt x="204" y="681" on="0"/>
        <pt x="157" y="718" on="1"/>
        <pt x="160" y="723" on="1"/>
        <pt x="299" y="723" on="1"/>
        <pt x="330" y="700" on="0"/>
        <pt x="358" y="674" on="1"/>
        <pt x="515" y="686" on="1"/>
        <pt x="515" y="617" on="1"/>
        <pt x="423" y="611" on="1"/>
        <pt x="489" y="535" on="0"/>
        <pt x="555" y="363" on="0"/>
        <pt x="555" y="260" on="1"/>
        <pt x="555" y="121" on="0"/>
        <pt x="426" y="-12" on="0"/>
        <pt x="296" y="-12" on="1"/>
      </contour>
      <contour>
        <pt x="367" y="86" on="0"/>
        <pt x="431" y="169" on="0"/>
        <pt x="431" y="255" on="1"/>
        <pt x="431" y="264" on="1"/>
        <pt x="431" y="351" on="0"/>
        <pt x="367" y="433" on="0"/>
        <pt x="296" y="433" on="1"/>
        <pt x="224" y="433" on="0"/>
        <pt x="161" y="352" on="0"/>
        <pt x="161" y="267" on="1"/>
        <pt x="161" y="255" on="1"/>
        <pt x="161" y="169" on="0"/>
        <pt x="225" y="86" on="0"/>
        <pt x="296" y="86" on="1"/>
      </contour>
    </TTGlyph>
    <TTGlyph name="exclam" xMin="88" yMin="0" xMax="227" yMax="686">
      <contour>
        <pt x="88" y="686" on="1"/>
        <pt x="227" y="686" on="1"/>
        <pt x="212" y="479" on="0"/>
        <pt x="195" y="188" on="1"/>
        <pt x="119" y="188" on="1"/>
      </contour>
      <contour>
        <pt x="95" y="127" on="1"/>
        <pt x="220" y="127" on="1"/>
        <pt x="220" y="0" on="1"/>
        <pt x="95" y="0" on="1"/>
      </contour>
    </TTGlyph>
    <TTGlyph name="exclamdbl" xMin="88" yMin="0" xMax="480" yMax="686">
      <component glyphName=".ttfautohint" x="88" y="0" flags="0x0"/>
      <component glyphName="exclam" x="253" y="0" flags="0x0"/>
      <component glyphName="exclam" x="0" y="0" flags="0x0"/>
    </TTGlyph>
    <TTGlyph name="exclamdown" xMin="97" yMin="-161" xMax="236" yMax="525">
      <contour>
        <pt x="105" y="525" on="1"/>
        <pt x="229" y="525" on="1"/>
        <pt x="229" y="398" on="1"/>
        <pt x="105" y="398" on="1"/>
      </contour>
      <contour>
        <pt x="99" y="-139" on="0"/>
        <pt x="116" y="133" on="1"/>
        <pt x="129" y="337" on="1"/>
        <pt x="204" y="337" on="1"/>
        <pt x="236" y="-161" on="1"/>
        <pt x="97" y="-161" on="1"/>
      </contour>
    </TTGlyph>
    <TTGlyph name="f" xMin="9" yMin="0" xMax="300" yMax="731">
      <contour>
        <pt x="85" y="428" on="1"/>
        <pt x="9" y="428" on="1"/>
        <pt x="9" y="526" on="1"/>
        <pt x="85" y="526" on="1"/>
        <pt x="85" y="594" on="1"/>
        <pt x="85" y="653" on="0"/>
        <pt x="146" y="731" on="0"/>
        <pt x="217" y="731" on="1"/>
        <pt x="238" y="731" on="0"/>
        <pt x="285" y="722" on="0"/>
        <pt x="300" y="716" on="1"/>
        <pt x="300" y="633" on="1"/>
        <pt x="250" y="633" on="1"/>
        <pt x="205" y="633" on="0"/>
        <pt x="205" y="588" on="1"/>
        <pt x="205" y="526" on="1"/>
        <pt x="300" y="526" on="1"/>
        <pt x="300" y="428" on="1"/>
        <pt x="205" y="428" on="1"/>
        <pt x="205" y="0" on="1"/>
        <pt x="85" y="0" on="1"/>
      </contour>
    </TTGlyph>
    <TTGlyph name="f_f" xMin="9" yMin="0" xMax="614" yMax="731">
      <contour>
        <pt x="519" y="633" on="0"/>
        <pt x="519" y="588" on="1"/>
        <pt x="519" y="526" on="1"/>
        <pt x="614" y="526" on="1"/>
        <pt x="614" y="428" on="1"/>
        <pt x="519" y="428" on="1"/>
        <pt x="519" y="0" on="1"/>
        <pt x="399" y="0" on="1"/>
        <pt x="399" y="428" on="1"/>
        <pt x="205" y="428" on="1"/>
        <pt x="205" y="0" on="1"/>
        <pt x="85" y="0" on="1"/>
        <pt x="85" y="428" on="1"/>
        <pt x="9" y="428" on="1"/>
        <pt x="9" y="526" on="1"/>
        <pt x="85" y="526" on="1"/>
        <pt x="85" y="594" on="1"/>
        <pt x="85" y="653" on="0"/>
        <pt x="146" y="731" on="0"/>
        <pt x="217" y="731" on="1"/>
        <pt x="238" y="731" on="0"/>
        <pt x="285" y="722" on="0"/>
        <pt x="300" y="716" on="1"/>
        <pt x="300" y="633" on="1"/>
        <pt x="250" y="633" on="1"/>
        <pt x="205" y="633" on="0"/>
        <pt x="205" y="588" on="1"/>
        <pt x="205" y="526" on="1"/>
        <pt x="399" y="526" on="1"/>
        <pt x="399" y="594" on="1"/>
        <pt x="399" y="653" on="0"/>
        <pt x="460" y="731" on="0"/>
        <pt x="531" y="731" on="1"/>
        <pt x="551" y="731" on="0"/>
        <pt x="598" y="722" on="0"/>
        <pt x="614" y="716" on="1"/>
        <pt x="614" y="633" on="1"/>
        <pt x="564" y="633" on="1"/>
      </contour>
    </TTGlyph>
    <TTGlyph name="fi" xMin="9" yMin="0" xMax="504" yMax="731">
      <component glyphName=".ttfautohint" x="9" y="0" flags="0x0"/>
      <component glyphName="f" x="0" y="0" flags="0x0"/>
      <component glyphName="i" x="314" y="0" flags="0x0"/>
    </TTGlyph>
    <TTGlyph name="five" xMin="36" yMin="-12" xMax="516" yMax="686">
      <contour>
        <pt x="167" y="-12" on="0"/>
        <pt x="36" y="109" on="0"/>
        <pt x="36" y="213" on="1"/>
        <pt x="159" y="213" on="1"/>
        <pt x="159" y="155" on="0"/>
        <pt x="223" y="86" on="0"/>
        <pt x="277" y="86" on="1"/>
        <pt x="330" y="86" on="0"/>
        <pt x="392" y="156" on="0"/>
        <pt x="392" y="224" on="1"/>
        <pt x="392" y="285" on="0"/>
        <pt x="331" y="350" on="0"/>
        <pt x="280" y="350" on="1"/>
        <pt x="245" y="350" on="0"/>
        <pt x="190" y="318" on="0"/>
        <pt x="172" y="291" on="1"/>
        <pt x="59" y="306" on="1"/>
        <pt x="87" y="686" on="1"/>
        <pt x="481" y="686" on="1"/>
        <pt x="481" y="577" on="1"/>
        <pt x="191" y="577" on="1"/>
        <pt x="180" y="405" on="1"/>
        <pt x="235" y="446" on="0"/>
        <pt x="312" y="446" on="1"/>
        <pt x="402" y="446" on="0"/>
        <pt x="516" y="333" on="0"/>
        <pt x="516" y="224" on="1"/>
        <pt x="516" y="112" on="0"/>
        <pt x="388" y="-12" on="0"/>
        <pt x="277" y="-12" on="1"/>
      </contour>
    </TTGlyph>
    <TTGlyph name="fiveeighths" xMin="41" yMin="-12" xMax="792" yMax="698">
      <contour>
        <pt x="649" y="698" on="1"/>
        <pt x="731" y="698" on="1"/>
        <pt x="185" y="-12" on="1"/>
        <pt x="103" y="-12" on="1"/>
      </contour>
      <contour>
        <pt x="111" y="320" on="0"/>
        <pt x="41" y="383" on="0"/>
        <pt x="41" y="437" on="1"/>
        <pt x="117" y="437" on="1"/>
        <pt x="117" y="412" on="0"/>
        <pt x="146" y="384" on="0"/>
        <pt x="170" y="384" on="1"/>
        <pt x="193" y="384" on="0"/>
        <pt x="220" y="416" on="0"/>
        <pt x="220" y="446" on="1"/>
        <pt x="220" y="474" on="0"/>
        <pt x="192" y="502" on="0"/>
        <pt x="168" y="502" on="1"/>
        <pt x="141" y="502" on="0"/>
        <pt x="120" y="479" on="1"/>
        <pt x="52" y="488" on="1"/>
        <pt x="66" y="686" on="1"/>
        <pt x="279" y="686" on="1"/>
        <pt x="279" y="618" on="1"/>
        <pt x="131" y="618" on="1"/>
        <pt x="126" y="550" on="1"/>
        <pt x="152" y="565" on="0"/>
        <pt x="187" y="565" on="1"/>
        <pt x="235" y="565" on="0"/>
        <pt x="297" y="504" on="0"/>
        <pt x="297" y="446" on="1"/>
        <pt x="297" y="386" on="0"/>
        <pt x="229" y="320" on="0"/>
        <pt x="170" y="320" on="1"/>
      </contour>
      <contour>
        <pt x="597" y="-12" on="0"/>
        <pt x="532" y="48" on="0"/>
        <pt x="532" y="96" on="1"/>
        <pt x="532" y="155" on="0"/>
        <pt x="586" y="180" on="1"/>
        <pt x="564" y="194" on="0"/>
        <pt x="541" y="234" on="0"/>
        <pt x="541" y="257" on="1"/>
        <pt x="541" y="302" on="0"/>
        <pt x="604" y="361" on="0"/>
        <pt x="662" y="361" on="1"/>
        <pt x="720" y="361" on="0"/>
        <pt x="783" y="302" on="0"/>
        <pt x="783" y="257" on="1"/>
        <pt x="783" y="234" on="0"/>
        <pt x="760" y="194" on="0"/>
        <pt x="738" y="180" on="1"/>
        <pt x="765" y="167" on="0"/>
        <pt x="792" y="123" on="0"/>
        <pt x="792" y="96" on="1"/>
        <pt x="792" y="48" on="0"/>
        <pt x="727" y="-12" on="0"/>
        <pt x="662" y="-12" on="1"/>
      </contour>
      <contour>
        <pt x="683" y="210" on="0"/>
        <pt x="708" y="233" on="0"/>
        <pt x="708" y="253" on="1"/>
        <pt x="708" y="274" on="0"/>
        <pt x="683" y="297" on="0"/>
        <pt x="662" y="297" on="1"/>
        <pt x="617" y="297" on="0"/>
        <pt x="617" y="253" on="1"/>
        <pt x="617" y="233" on="0"/>
        <pt x="640" y="210" on="0"/>
        <pt x="662" y="210" on="1"/>
      </contour>
      <contour>
        <pt x="687" y="51" on="0"/>
        <pt x="715" y="77" on="0"/>
        <pt x="715" y="100" on="1"/>
        <pt x="715" y="122" on="0"/>
        <pt x="687" y="146" on="0"/>
        <pt x="662" y="146" on="1"/>
        <pt x="636" y="146" on="0"/>
        <pt x="609" y="122" on="0"/>
        <pt x="609" y="100" on="1"/>
        <pt x="609" y="77" on="0"/>
        <pt x="636" y="51" on="0"/>
        <pt x="662" y="51" on="1"/>
      </contour>
    </TTGlyph>
    <TTGlyph name="fl" xMin="9" yMin="0" xMax="504" yMax="731">
      <component glyphName=".ttfautohint" x="9" y="0" flags="0x0"/>
      <component glyphName="f" x="0" y="0" flags="0x0"/>
      <component glyphName="l" x="314" y="0" flags="0x0"/>
    </TTGlyph>
    <TTGlyph name="florin" xMin="29" yMin="-183" xMax="527" yMax="731">
      <contour>
        <pt x="88" y="-183" on="0"/>
        <pt x="43" y="-174" on="0"/>
        <pt x="29" y="-168" on="1"/>
        <pt x="46" y="-85" on="1"/>
        <pt x="97" y="-85" on="1"/>
        <pt x="140" y="-85" on="0"/>
        <pt x="151" y="-40" on="1"/>
        <pt x="242" y="386" on="1"/>
        <pt x="166" y="386" on="1"/>
        <pt x="186" y="485" on="1"/>
        <pt x="262" y="485" on="1"/>
        <pt x="286" y="594" on="1"/>
        <pt x="298" y="653" on="0"/>
        <pt x="376" y="731" on="0"/>
        <pt x="447" y="731" on="1"/>
        <pt x="468" y="731" on="0"/>
        <pt x="513" y="722" on="0"/>
        <pt x="527" y="716" on="1"/>
        <pt x="510" y="633" on="1"/>
        <pt x="459" y="633" on="1"/>
        <pt x="415" y="633" on="0"/>
        <pt x="404" y="588" on="1"/>
        <pt x="382" y="485" on="1"/>
        <pt x="478" y="485" on="1"/>
        <pt x="458" y="386" on="1"/>
        <pt x="362" y="386" on="1"/>
        <pt x="269" y="-46" on="1"/>
        <pt x="257" y="-105" on="0"/>
        <pt x="179" y="-183" on="0"/>
        <pt x="108" y="-183" on="1"/>
      </contour>
    </TTGlyph>
    <TTGlyph name="four" xMin="22" yMin="0" xMax="530" yMax="698">
      <contour>
        <pt x="324" y="154" on="1"/>
        <pt x="22" y="154" on="1"/>
        <pt x="22" y="253" on="1"/>
        <pt x="147" y="461" on="0"/>
        <pt x="206" y="698" on="1"/>
        <pt x="331" y="698" on="1"/>
        <pt x="312" y="616" on="0"/>
        <pt x="234" y="432" on="0"/>
        <pt x="153" y="284" on="0"/>
        <pt x="129" y="252" on="1"/>
        <pt x="324" y="252" on="1"/>
        <pt x="324" y="429" on="1"/>
        <pt x="360" y="502" on="0"/>
        <pt x="387" y="596" on="1"/>
        <pt x="444" y="596" on="1"/>
        <pt x="444" y="252" on="1"/>
        <pt x="530" y="252" on="1"/>
        <pt x="530" y="154" on="1"/>
        <pt x="444" y="154" on="1"/>
        <pt x="444" y="0" on="1"/>
        <pt x="324" y="0" on="1"/>
      </contour>
    </TTGlyph>
    <TTGlyph name="fraction" xMin="-231" yMin="-12" xMax="397" yMax="698">
      <contour>
        <pt x="315" y="698" on="1"/>
        <pt x="397" y="698" on="1"/>
        <pt x="-149" y="-12" on="1"/>
        <pt x="-231" y="-12" on="1"/>
      </contour>
    </TTGlyph>
    <TTGlyph name="franc" xMin="67" yMin="0" xMax="551" yMax="686">
      <contour>
        <pt x="67" y="686" on="1"/>
        <pt x="420" y="686" on="1"/>
        <pt x="420" y="580" on="1"/>
        <pt x="193" y="580" on="1"/>
        <pt x="193" y="381" on="1"/>
        <pt x="295" y="381" on="1"/>
        <pt x="295" y="464" on="1"/>
        <pt x="394" y="464" on="1"/>
        <pt x="405" y="381" on="1"/>
        <pt x="412" y="381" on="1"/>
        <pt x="441" y="476" on="0"/>
        <pt x="508" y="476" on="1"/>
        <pt x="524" y="476" on="0"/>
        <pt x="548" y="469" on="0"/>
        <pt x="551" y="467" on="1"/>
        <pt x="551" y="354" on="1"/>
        <pt x="513" y="354" on="1"/>
        <pt x="415" y="354" on="0"/>
        <pt x="415" y="212" on="1"/>
        <pt x="415" y="0" on="1"/>
        <pt x="295" y="0" on="1"/>
        <pt x="295" y="275" on="1"/>
        <pt x="193" y="275" on="1"/>
        <pt x="193" y="0" on="1"/>
        <pt x="67" y="0" on="1"/>
      </contour>
    </TTGlyph>
    <TTGlyph name="g" xMin="22" yMin="-182" xMax="579" yMax="613">
      <contour>
        <pt x="101" y="-182" on="0"/>
        <pt x="22" y="-117" on="0"/>
        <pt x="22" y="-59" on="1"/>
        <pt x="22" y="13" on="0"/>
        <pt x="104" y="50" on="1"/>
        <pt x="80" y="63" on="0"/>
        <pt x="52" y="103" on="0"/>
        <pt x="52" y="130" on="1"/>
        <pt x="52" y="165" on="0"/>
        <pt x="105" y="211" on="0"/>
        <pt x="143" y="220" on="1"/>
        <pt x="107" y="243" on="0"/>
        <pt x="68" y="315" on="0"/>
        <pt x="68" y="360" on="1"/>
        <pt x="68" y="443" on="0"/>
        <pt x="187" y="538" on="0"/>
        <pt x="294" y="538" on="1"/>
        <pt x="354" y="538" on="0"/>
        <pt x="398" y="522" on="1"/>
        <pt x="430" y="541" on="0"/>
        <pt x="460" y="590" on="0"/>
        <pt x="462" y="613" on="1"/>
        <pt x="578" y="613" on="1"/>
        <pt x="578" y="561" on="0"/>
        <pt x="520" y="493" on="0"/>
        <pt x="469" y="482" on="1"/>
        <pt x="521" y="433" on="0"/>
        <pt x="521" y="360" on="1"/>
        <pt x="521" y="277" on="0"/>
        <pt x="405" y="181" on="0"/>
        <pt x="300" y="181" on="1"/>
        <pt x="218" y="181" on="1"/>
        <pt x="197" y="181" on="0"/>
        <pt x="173" y="163" on="0"/>
        <pt x="173" y="147" on="1"/>
        <pt x="173" y="132" on="0"/>
        <pt x="195" y="113" on="0"/>
        <pt x="214" y="113" on="1"/>
        <pt x="444" y="113" on="1"/>
        <pt x="503" y="113" on="0"/>
        <pt x="579" y="36" on="0"/>
        <pt x="579" y="-23" on="1"/>
        <pt x="579" y="-67" on="0"/>
        <pt x="533" y="-140" on="0"/>
        <pt x="448" y="-182" on="0"/>
        <pt x="393" y="-182" on="1"/>
        <pt x="157" y="-182" on="1"/>
      </contour>
      <contour>
        <pt x="348" y="266" on="0"/>
        <pt x="402" y="315" on="0"/>
        <pt x="402" y="360" on="1"/>
        <pt x="402" y="405" on="0"/>
        <pt x="348" y="454" on="0"/>
        <pt x="295" y="454" on="1"/>
        <pt x="242" y="454" on="0"/>
        <pt x="188" y="405" on="0"/>
        <pt x="188" y="360" on="1"/>
        <pt x="188" y="314" on="0"/>
        <pt x="242" y="266" on="0"/>
        <pt x="295" y="266" on="1"/>
      </contour>
      <contour>
        <pt x="393" y="-95" on="1"/>
        <pt x="421" y="-95" on="0"/>
        <pt x="459" y="-66" on="0"/>
        <pt x="459" y="-42" on="1"/>
        <pt x="459" y="-17" on="0"/>
        <pt x="427" y="11" on="0"/>
        <pt x="401" y="11" on="1"/>
        <pt x="199" y="11" on="1"/>
        <pt x="174" y="11" on="0"/>
        <pt x="143" y="-19" on="0"/>
        <pt x="143" y="-42" on="1"/>
        <pt x="143" y="-66" on="0"/>
        <pt x="174" y="-95" on="0"/>
        <pt x="199" y="-95" on="1"/>
      </contour>
    </TTGlyph>
    <TTGlyph name="g_tilde.loclGUA" xMin="22" yMin="-182" xMax="579" yMax="723">
      <component glyphName=".ttfautohint" x="22" y="0" flags="0x0"/>
      <component glyphName="g" x="0" y="0" flags="0x0"/>
      <component glyphName="tilde" x="129" y="0" flags="0x0"/>
    </TTGlyph>
    <TTGlyph name="gbreve" xMin="22" yMin="-182" xMax="579" yMax="723">
      <component glyphName=".ttfautohint" x="22" y="0" flags="0x0"/>
      <component glyphName="g" x="0" y="0" flags="0x0"/>
      <component glyphName="breve" x="129" y="0" flags="0x0"/>
    </TTGlyph>
    <TTGlyph name="gcaron" xMin="22" yMin="-182" xMax="579" yMax="723">
      <component glyphName=".ttfautohint" x="22" y="0" flags="0x0"/>
      <component glyphName="g" x="0" y="0" flags="0x0"/>
      <component glyphName="caron" x="129" y="0" flags="0x0"/>
    </TTGlyph>
    <TTGlyph name="gcircumflex" xMin="22" yMin="-182" xMax="579" yMax="723">
      <contour>
        <pt x="243" y="723" on="1"/>
        <pt x="352" y="723" on="1"/>
        <pt x="454" y="588" on="1"/>
        <pt x="351" y="588" on="1"/>
        <pt x="298" y="660" on="1"/>
        <pt x="244" y="588" on="1"/>
        <pt x="140" y="588" on="1"/>
      </contour>
      <contour>
        <pt x="101" y="-182" on="0"/>
        <pt x="22" y="-117" on="0"/>
        <pt x="22" y="-59" on="1"/>
        <pt x="22" y="13" on="0"/>
        <pt x="104" y="50" on="1"/>
        <pt x="80" y="63" on="0"/>
        <pt x="52" y="103" on="0"/>
        <pt x="52" y="130" on="1"/>
        <pt x="52" y="165" on="0"/>
        <pt x="105" y="211" on="0"/>
        <pt x="143" y="220" on="1"/>
        <pt x="107" y="243" on="0"/>
        <pt x="68" y="315" on="0"/>
        <pt x="68" y="360" on="1"/>
        <pt x="68" y="443" on="0"/>
        <pt x="187" y="538" on="0"/>
        <pt x="294" y="538" on="1"/>
        <pt x="354" y="538" on="0"/>
        <pt x="398" y="522" on="1"/>
        <pt x="440" y="534" on="0"/>
        <pt x="479" y="588" on="0"/>
        <pt x="481" y="613" on="1"/>
        <pt x="578" y="613" on="1"/>
        <pt x="578" y="561" on="0"/>
        <pt x="520" y="493" on="0"/>
        <pt x="469" y="482" on="1"/>
        <pt x="521" y="433" on="0"/>
        <pt x="521" y="360" on="1"/>
        <pt x="521" y="277" on="0"/>
        <pt x="405" y="181" on="0"/>
        <pt x="300" y="181" on="1"/>
        <pt x="218" y="181" on="1"/>
        <pt x="197" y="181" on="0"/>
        <pt x="173" y="163" on="0"/>
        <pt x="173" y="147" on="1"/>
        <pt x="173" y="132" on="0"/>
        <pt x="195" y="113" on="0"/>
        <pt x="214" y="113" on="1"/>
        <pt x="444" y="113" on="1"/>
        <pt x="503" y="113" on="0"/>
        <pt x="579" y="36" on="0"/>
        <pt x="579" y="-23" on="1"/>
        <pt x="579" y="-67" on="0"/>
        <pt x="533" y="-140" on="0"/>
        <pt x="448" y="-182" on="0"/>
        <pt x="393" y="-182" on="1"/>
        <pt x="157" y="-182" on="1"/>
      </contour>
      <contour>
        <pt x="348" y="266" on="0"/>
        <pt x="402" y="315" on="0"/>
        <pt x="402" y="360" on="1"/>
        <pt x="402" y="405" on="0"/>
        <pt x="348" y="454" on="0"/>
        <pt x="295" y="454" on="1"/>
        <pt x="242" y="454" on="0"/>
        <pt x="188" y="405" on="0"/>
        <pt x="188" y="360" on="1"/>
        <pt x="188" y="314" on="0"/>
        <pt x="242" y="266" on="0"/>
        <pt x="295" y="266" on="1"/>
      </contour>
      <contour>
        <pt x="393" y="-95" on="1"/>
        <pt x="421" y="-95" on="0"/>
        <pt x="459" y="-66" on="0"/>
        <pt x="459" y="-42" on="1"/>
        <pt x="459" y="-17" on="0"/>
        <pt x="427" y="11" on="0"/>
        <pt x="401" y="11" on="1"/>
        <pt x="199" y="11" on="1"/>
        <pt x="174" y="11" on="0"/>
        <pt x="143" y="-19" on="0"/>
        <pt x="143" y="-42" on="1"/>
        <pt x="143" y="-66" on="0"/>
        <pt x="174" y="-95" on="0"/>
        <pt x="199" y="-95" on="1"/>
      </contour>
    </TTGlyph>
    <TTGlyph name="gcommaaccent" xMin="22" yMin="-182" xMax="579" yMax="780">
      <contour>
        <pt x="237" y="678" on="1"/>
        <pt x="295" y="780" on="1"/>
        <pt x="358" y="780" on="1"/>
        <pt x="309" y="689" on="1"/>
        <pt x="358" y="689" on="1"/>
        <pt x="358" y="593" on="1"/>
        <pt x="237" y="593" on="1"/>
      </contour>
      <contour>
        <pt x="101" y="-182" on="0"/>
        <pt x="22" y="-117" on="0"/>
        <pt x="22" y="-59" on="1"/>
        <pt x="22" y="13" on="0"/>
        <pt x="104" y="50" on="1"/>
        <pt x="80" y="63" on="0"/>
        <pt x="52" y="103" on="0"/>
        <pt x="52" y="130" on="1"/>
        <pt x="52" y="165" on="0"/>
        <pt x="105" y="211" on="0"/>
        <pt x="143" y="220" on="1"/>
        <pt x="107" y="243" on="0"/>
        <pt x="68" y="315" on="0"/>
        <pt x="68" y="360" on="1"/>
        <pt x="68" y="443" on="0"/>
        <pt x="187" y="538" on="0"/>
        <pt x="294" y="538" on="1"/>
        <pt x="354" y="538" on="0"/>
        <pt x="398" y="522" on="1"/>
        <pt x="430" y="541" on="0"/>
        <pt x="460" y="590" on="0"/>
        <pt x="462" y="613" on="1"/>
        <pt x="578" y="613" on="1"/>
        <pt x="578" y="561" on="0"/>
        <pt x="520" y="493" on="0"/>
        <pt x="469" y="482" on="1"/>
        <pt x="521" y="433" on="0"/>
        <pt x="521" y="360" on="1"/>
        <pt x="521" y="277" on="0"/>
        <pt x="405" y="181" on="0"/>
        <pt x="300" y="181" on="1"/>
        <pt x="218" y="181" on="1"/>
        <pt x="197" y="181" on="0"/>
        <pt x="173" y="163" on="0"/>
        <pt x="173" y="147" on="1"/>
        <pt x="173" y="132" on="0"/>
        <pt x="195" y="113" on="0"/>
        <pt x="214" y="113" on="1"/>
        <pt x="444" y="113" on="1"/>
        <pt x="503" y="113" on="0"/>
        <pt x="579" y="36" on="0"/>
        <pt x="579" y="-23" on="1"/>
        <pt x="579" y="-67" on="0"/>
        <pt x="533" y="-140" on="0"/>
        <pt x="448" y="-182" on="0"/>
        <pt x="393" y="-182" on="1"/>
        <pt x="157" y="-182" on="1"/>
      </contour>
      <contour>
        <pt x="348" y="266" on="0"/>
        <pt x="402" y="315" on="0"/>
        <pt x="402" y="360" on="1"/>
        <pt x="402" y="405" on="0"/>
        <pt x="348" y="454" on="0"/>
        <pt x="295" y="454" on="1"/>
        <pt x="242" y="454" on="0"/>
        <pt x="188" y="405" on="0"/>
        <pt x="188" y="360" on="1"/>
        <pt x="188" y="314" on="0"/>
        <pt x="242" y="266" on="0"/>
        <pt x="295" y="266" on="1"/>
      </contour>
      <contour>
        <pt x="393" y="-95" on="1"/>
        <pt x="421" y="-95" on="0"/>
        <pt x="459" y="-66" on="0"/>
        <pt x="459" y="-42" on="1"/>
        <pt x="459" y="-17" on="0"/>
        <pt x="427" y="11" on="0"/>
        <pt x="401" y="11" on="1"/>
        <pt x="199" y="11" on="1"/>
        <pt x="174" y="11" on="0"/>
        <pt x="143" y="-19" on="0"/>
        <pt x="143" y="-42" on="1"/>
        <pt x="143" y="-66" on="0"/>
        <pt x="174" y="-95" on="0"/>
        <pt x="199" y="-95" on="1"/>
      </contour>
    </TTGlyph>
    <TTGlyph name="gdotaccent" xMin="22" yMin="-182" xMax="579" yMax="724">
      <component glyphName=".ttfautohint" x="22" y="0" flags="0x0"/>
      <component glyphName="g" x="0" y="0" flags="0x0"/>
      <component glyphName="dotaccent" x="128" y="0" flags="0x0"/>
    </TTGlyph>
    <TTGlyph name="germandbls" xMin="65" yMin="0" xMax="574" yMax="735">
      <contour>
        <pt x="65" y="513" on="1"/>
        <pt x="65" y="626" on="0"/>
        <pt x="203" y="735" on="0"/>
        <pt x="315" y="735" on="1"/>
        <pt x="388" y="735" on="0"/>
        <pt x="494" y="690" on="0"/>
        <pt x="550" y="608" on="0"/>
        <pt x="550" y="555" on="1"/>
        <pt x="550" y="498" on="0"/>
        <pt x="487" y="414" on="0"/>
        <pt x="436" y="396" on="1"/>
        <pt x="436" y="392" on="1"/>
        <pt x="501" y="373" on="0"/>
        <pt x="574" y="274" on="0"/>
        <pt x="574" y="207" on="1"/>
        <pt x="574" y="148" on="0"/>
        <pt x="519" y="54" on="0"/>
        <pt x="418" y="0" on="0"/>
        <pt x="353" y="0" on="1"/>
        <pt x="253" y="0" on="1"/>
        <pt x="253" y="98" on="1"/>
        <pt x="341" y="98" on="1"/>
        <pt x="391" y="98" on="0"/>
        <pt x="453" y="166" on="0"/>
        <pt x="453" y="215" on="1"/>
        <pt x="453" y="265" on="0"/>
        <pt x="389" y="331" on="0"/>
        <pt x="337" y="331" on="1"/>
        <pt x="253" y="331" on="1"/>
        <pt x="253" y="435" on="1"/>
        <pt x="332" y="435" on="1"/>
        <pt x="374" y="435" on="0"/>
        <pt x="428" y="495" on="0"/>
        <pt x="428" y="538" on="1"/>
        <pt x="428" y="583" on="0"/>
        <pt x="368" y="638" on="0"/>
        <pt x="312" y="638" on="1"/>
        <pt x="253" y="638" on="0"/>
        <pt x="185" y="576" on="0"/>
        <pt x="185" y="519" on="1"/>
        <pt x="185" y="0" on="1"/>
        <pt x="65" y="0" on="1"/>
      </contour>
    </TTGlyph>
    <TTGlyph name="grave" xMin="75" yMin="591" xMax="278" yMax="723">
      <contour>
        <pt x="75" y="720" on="1"/>
        <pt x="76" y="723" on="1"/>
        <pt x="196" y="723" on="1"/>
        <pt x="278" y="591" on="1"/>
        <pt x="183" y="591" on="1"/>
      </contour>
    </TTGlyph>
    <TTGlyph name="greater" xMin="56" yMin="3" xMax="530" yMax="516">
      <contour>
        <pt x="56" y="111" on="1"/>
        <pt x="436" y="259" on="1"/>
        <pt x="56" y="407" on="1"/>
        <pt x="56" y="516" on="1"/>
        <pt x="530" y="319" on="1"/>
        <pt x="530" y="199" on="1"/>
        <pt x="56" y="3" on="1"/>
      </contour>
    </TTGlyph>
    <TTGlyph name="greaterequal" xMin="38" yMin="0" xMax="512" yMax="636">
      <contour>
        <pt x="38" y="232" on="1"/>
        <pt x="418" y="380" on="1"/>
        <pt x="38" y="528" on="1"/>
        <pt x="38" y="636" on="1"/>
        <pt x="512" y="439" on="1"/>
        <pt x="512" y="319" on="1"/>
        <pt x="38" y="123" on="1"/>
      </contour>
      <contour>
        <pt x="38" y="97" on="1"/>
        <pt x="511" y="97" on="1"/>
        <pt x="511" y="0" on="1"/>
        <pt x="38" y="0" on="1"/>
      </contour>
    </TTGlyph>
    <TTGlyph name="guillemotleft" xMin="61" yMin="126" xMax="507" yMax="526">
      <contour>
        <pt x="61" y="326" on="1"/>
        <pt x="204" y="526" on="1"/>
        <pt x="293" y="526" on="1"/>
        <pt x="178" y="326" on="1"/>
        <pt x="293" y="126" on="1"/>
        <pt x="204" y="126" on="1"/>
      </contour>
      <contour>
        <pt x="274" y="326" on="1"/>
        <pt x="417" y="526" on="1"/>
        <pt x="507" y="526" on="1"/>
        <pt x="391" y="326" on="1"/>
        <pt x="507" y="126" on="1"/>
        <pt x="417" y="126" on="1"/>
      </contour>
    </TTGlyph>
    <TTGlyph name="guillemotright" xMin="48" yMin="126" xMax="494" yMax="526">
      <contour>
        <pt x="163" y="326" on="1"/>
        <pt x="48" y="526" on="1"/>
        <pt x="137" y="526" on="1"/>
        <pt x="280" y="326" on="1"/>
        <pt x="137" y="126" on="1"/>
        <pt x="48" y="126" on="1"/>
      </contour>
      <contour>
        <pt x="376" y="326" on="1"/>
        <pt x="261" y="526" on="1"/>
        <pt x="350" y="526" on="1"/>
        <pt x="494" y="326" on="1"/>
        <pt x="350" y="126" on="1"/>
        <pt x="261" y="126" on="1"/>
      </contour>
    </TTGlyph>
    <TTGlyph name="guilsinglleft" xMin="58" yMin="126" xMax="290" yMax="526">
      <contour>
        <pt x="58" y="326" on="1"/>
        <pt x="201" y="526" on="1"/>
        <pt x="290" y="526" on="1"/>
        <pt x="175" y="326" on="1"/>
        <pt x="290" y="126" on="1"/>
        <pt x="201" y="126" on="1"/>
      </contour>
    </TTGlyph>
    <TTGlyph name="guilsinglright" xMin="43" yMin="126" xMax="275" yMax="526">
      <contour>
        <pt x="158" y="326" on="1"/>
        <pt x="43" y="526" on="1"/>
        <pt x="132" y="526" on="1"/>
        <pt x="275" y="326" on="1"/>
        <pt x="132" y="126" on="1"/>
        <pt x="43" y="126" on="1"/>
      </contour>
    </TTGlyph>
    <TTGlyph name="h" xMin="70" yMin="0" xMax="525" yMax="723">
      <contour>
        <pt x="70" y="723" on="1"/>
        <pt x="190" y="723" on="1"/>
        <pt x="190" y="466" on="1"/>
        <pt x="197" y="466" on="1"/>
        <pt x="223" y="499" on="0"/>
        <pt x="303" y="538" on="0"/>
        <pt x="355" y="538" on="1"/>
        <pt x="435" y="538" on="0"/>
        <pt x="525" y="451" on="0"/>
        <pt x="525" y="355" on="1"/>
        <pt x="525" y="0" on="1"/>
        <pt x="405" y="0" on="1"/>
        <pt x="405" y="334" on="1"/>
        <pt x="405" y="388" on="0"/>
        <pt x="356" y="434" on="0"/>
        <pt x="308" y="434" on="1"/>
        <pt x="258" y="434" on="0"/>
        <pt x="190" y="362" on="0"/>
        <pt x="190" y="306" on="1"/>
        <pt x="190" y="0" on="1"/>
        <pt x="70" y="0" on="1"/>
      </contour>
    </TTGlyph>
    <TTGlyph name="hbar" xMin="9" yMin="0" xMax="525" yMax="723">
      <contour>
        <pt x="70" y="590" on="1"/>
        <pt x="9" y="590" on="1"/>
        <pt x="9" y="658" on="1"/>
        <pt x="70" y="658" on="1"/>
        <pt x="70" y="723" on="1"/>
        <pt x="190" y="723" on="1"/>
        <pt x="190" y="658" on="1"/>
        <pt x="339" y="658" on="1"/>
        <pt x="339" y="590" on="1"/>
        <pt x="190" y="590" on="1"/>
        <pt x="190" y="466" on="1"/>
        <pt x="197" y="466" on="1"/>
        <pt x="223" y="499" on="0"/>
        <pt x="303" y="538" on="0"/>
        <pt x="355" y="538" on="1"/>
        <pt x="435" y="538" on="0"/>
        <pt x="525" y="451" on="0"/>
        <pt x="525" y="355" on="1"/>
        <pt x="525" y="0" on="1"/>
        <pt x="405" y="0" on="1"/>
        <pt x="405" y="334" on="1"/>
        <pt x="405" y="388" on="0"/>
        <pt x="356" y="434" on="0"/>
        <pt x="308" y="434" on="1"/>
        <pt x="258" y="434" on="0"/>
        <pt x="190" y="362" on="0"/>
        <pt x="190" y="306" on="1"/>
        <pt x="190" y="0" on="1"/>
        <pt x="70" y="0" on="1"/>
      </contour>
    </TTGlyph>
    <TTGlyph name="hcircumflex" xMin="-30" yMin="0" xMax="525" yMax="883">
      <component glyphName=".ttfautohint" x="0" y="0" flags="0x0"/>
      <component glyphName="h" x="0" y="0" flags="0x0"/>
      <component glyphName="circumflex" x="-37" y="160" flags="0x4"/>
    </TTGlyph>
    <TTGlyph name="hookabovecomb" xMin="-260" yMin="591" xMax="-73" yMax="735">
      <contour>
        <pt x="-213" y="647" on="1"/>
        <pt x="-199" y="647" on="1"/>
        <pt x="-182" y="647" on="0"/>
        <pt x="-168" y="656" on="0"/>
        <pt x="-168" y="666" on="1"/>
        <pt x="-168" y="677" on="0"/>
        <pt x="-185" y="685" on="0"/>
        <pt x="-202" y="685" on="1"/>
        <pt x="-260" y="685" on="1"/>
        <pt x="-260" y="727" on="1"/>
        <pt x="-223" y="735" on="0"/>
        <pt x="-181" y="735" on="1"/>
        <pt x="-138" y="735" on="0"/>
        <pt x="-73" y="708" on="0"/>
        <pt x="-73" y="674" on="1"/>
        <pt x="-73" y="647" on="0"/>
        <pt x="-116" y="619" on="0"/>
        <pt x="-149" y="617" on="1"/>
        <pt x="-149" y="591" on="1"/>
        <pt x="-213" y="591" on="1"/>
      </contour>
    </TTGlyph>
    <TTGlyph name="house" xMin="77" yMin="0" xMax="527" yMax="563">
      <contour>
        <pt x="77" y="310" on="1"/>
        <pt x="302" y="563" on="1"/>
        <pt x="527" y="310" on="1"/>
        <pt x="527" y="0" on="1"/>
        <pt x="77" y="0" on="1"/>
      </contour>
      <contour>
        <pt x="468" y="60" on="1"/>
        <pt x="468" y="286" on="1"/>
        <pt x="302" y="475" on="1"/>
        <pt x="136" y="286" on="1"/>
        <pt x="136" y="60" on="1"/>
      </contour>
    </TTGlyph>
    <TTGlyph name="hungarumlaut" xMin="14" yMin="591" xMax="371" yMax="723">
      <contour>
        <pt x="87" y="723" on="1"/>
        <pt x="208" y="723" on="1"/>
        <pt x="209" y="720" on="1"/>
        <pt x="109" y="591" on="1"/>
        <pt x="14" y="591" on="1"/>
      </contour>
      <contour>
        <pt x="250" y="723" on="1"/>
        <pt x="370" y="723" on="1"/>
        <pt x="371" y="720" on="1"/>
        <pt x="271" y="591" on="1"/>
        <pt x="176" y="591" on="1"/>
      </contour>
    </TTGlyph>
    <TTGlyph name="hyphen" xMin="41" yMin="214" xMax="292" yMax="326">
      <contour>
        <pt x="41" y="326" on="1"/>
        <pt x="292" y="326" on="1"/>
        <pt x="292" y="214" on="1"/>
        <pt x="41" y="214" on="1"/>
      </contour>
    </TTGlyph>
    <TTGlyph name="i" xMin="70" yMin="0" xMax="190" yMax="723">
      <contour>
        <pt x="70" y="723" on="1"/>
        <pt x="190" y="723" on="1"/>
        <pt x="190" y="608" on="1"/>
        <pt x="70" y="608" on="1"/>
      </contour>
      <contour>
        <pt x="70" y="526" on="1"/>
        <pt x="190" y="526" on="1"/>
        <pt x="190" y="0" on="1"/>
        <pt x="70" y="0" on="1"/>
      </contour>
    </TTGlyph>
    <TTGlyph name="i.loclTRK" xMin="79" yMin="0" xMax="199" yMax="724">
      <component glyphName=".ttfautohint" x="79" y="0" flags="0x0"/>
      <component glyphName="dotlessi" x="0" y="0" flags="0x0"/>
      <component glyphName="dotaccent" x="-29" y="0" flags="0x0"/>
    </TTGlyph>
    <TTGlyph name="iacute" xMin="76" yMin="0" xMax="278" yMax="723">
      <contour>
        <pt x="157" y="723" on="1"/>
        <pt x="277" y="723" on="1"/>
        <pt x="278" y="720" on="1"/>
        <pt x="170" y="591" on="1"/>
        <pt x="76" y="591" on="1"/>
      </contour>
      <contour>
        <pt x="79" y="526" on="1"/>
        <pt x="199" y="526" on="1"/>
        <pt x="199" y="0" on="1"/>
        <pt x="79" y="0" on="1"/>
      </contour>
    </TTGlyph>
    <TTGlyph name="iacute_j.loclNLD" xMin="76" yMin="-182" xMax="562" yMax="723">
      <component glyphName=".ttfautohint" x="76" y="0" flags="0x0"/>
      <component glyphName="iacute" x="0" y="0" flags="0x0"/>
      <component glyphName="uni0237" x="278" y="0" flags="0x0"/>
      <component glyphName="acute" x="284" y="0" flags="0x0"/>
    </TTGlyph>
    <TTGlyph name="ibreve" xMin="-15" yMin="0" xMax="297" yMax="723">
      <contour>
        <pt x="61" y="593" on="0"/>
        <pt x="-15" y="670" on="0"/>
        <pt x="-15" y="723" on="1"/>
        <pt x="65" y="723" on="1"/>
        <pt x="68" y="704" on="0"/>
        <pt x="104" y="673" on="0"/>
        <pt x="140" y="673" on="1"/>
        <pt x="176" y="673" on="0"/>
        <pt x="214" y="704" on="0"/>
        <pt x="217" y="723" on="1"/>
        <pt x="297" y="723" on="1"/>
        <pt x="297" y="671" on="0"/>
        <pt x="220" y="593" on="0"/>
        <pt x="140" y="593" on="1"/>
      </contour>
      <contour>
        <pt x="79" y="526" on="1"/>
        <pt x="199" y="526" on="1"/>
        <pt x="199" y="0" on="1"/>
        <pt x="79" y="0" on="1"/>
      </contour>
    </TTGlyph>
    <TTGlyph name="icircumflex" xMin="-20" yMin="0" xMax="299" yMax="723">
      <contour>
        <pt x="86" y="723" on="1"/>
        <pt x="194" y="723" on="1"/>
        <pt x="299" y="588" on="1"/>
        <pt x="196" y="588" on="1"/>
        <pt x="140" y="660" on="1"/>
        <pt x="83" y="588" on="1"/>
        <pt x="-20" y="588" on="1"/>
      </contour>
      <contour>
        <pt x="79" y="526" on="1"/>
        <pt x="199" y="526" on="1"/>
        <pt x="199" y="0" on="1"/>
        <pt x="79" y="0" on="1"/>
      </contour>
    </TTGlyph>
    <TTGlyph name="idieresis" xMin="-16" yMin="0" xMax="294" yMax="723">
      <contour>
        <pt x="-16" y="723" on="1"/>
        <pt x="92" y="723" on="1"/>
        <pt x="92" y="613" on="1"/>
        <pt x="-16" y="613" on="1"/>
      </contour>
      <contour>
        <pt x="186" y="723" on="1"/>
        <pt x="294" y="723" on="1"/>
        <pt x="294" y="613" on="1"/>
        <pt x="186" y="613" on="1"/>
      </contour>
      <contour>
        <pt x="79" y="526" on="1"/>
        <pt x="199" y="526" on="1"/>
        <pt x="199" y="0" on="1"/>
        <pt x="79" y="0" on="1"/>
      </contour>
    </TTGlyph>
    <TTGlyph name="igrave" xMin="2" yMin="0" xMax="205" yMax="723">
      <contour>
        <pt x="2" y="720" on="1"/>
        <pt x="3" y="723" on="1"/>
        <pt x="124" y="723" on="1"/>
        <pt x="205" y="591" on="1"/>
        <pt x="110" y="591" on="1"/>
      </contour>
      <contour>
        <pt x="79" y="526" on="1"/>
        <pt x="199" y="526" on="1"/>
        <pt x="199" y="0" on="1"/>
        <pt x="79" y="0" on="1"/>
      </contour>
    </TTGlyph>
    <TTGlyph name="ij" xMin="70" yMin="-182" xMax="449" yMax="723">
      <component glyphName=".ttfautohint" x="70" y="0" flags="0x0"/>
      <component glyphName="i" x="0" y="0" flags="0x0"/>
      <component glyphName="j" x="259" y="0" flags="0x0"/>
    </TTGlyph>
    <TTGlyph name="imacron" xMin="-4" yMin="0" xMax="283" yMax="721">
      <contour>
        <pt x="-4" y="721" on="1"/>
        <pt x="283" y="721" on="1"/>
        <pt x="283" y="639" on="1"/>
        <pt x="-4" y="639" on="1"/>
      </contour>
      <contour>
        <pt x="79" y="526" on="1"/>
        <pt x="199" y="526" on="1"/>
        <pt x="199" y="0" on="1"/>
        <pt x="79" y="0" on="1"/>
      </contour>
    </TTGlyph>
    <TTGlyph name="infinity" xMin="47" yMin="139" xMax="664" yMax="456">
      <contour>
        <pt x="154" y="139" on="0"/>
        <pt x="86" y="179" on="0"/>
        <pt x="47" y="250" on="0"/>
        <pt x="47" y="296" on="1"/>
        <pt x="47" y="366" on="0"/>
        <pt x="134" y="456" on="0"/>
        <pt x="201" y="456" on="1"/>
        <pt x="249" y="456" on="0"/>
        <pt x="325" y="408" on="0"/>
        <pt x="360" y="363" on="1"/>
        <pt x="385" y="392" on="0"/>
        <pt x="423" y="428" on="0"/>
        <pt x="479" y="456" on="0"/>
        <pt x="514" y="456" on="1"/>
        <pt x="579" y="456" on="0"/>
        <pt x="664" y="369" on="0"/>
        <pt x="664" y="300" on="1"/>
        <pt x="664" y="253" on="0"/>
        <pt x="624" y="179" on="0"/>
        <pt x="555" y="139" on="0"/>
        <pt x="514" y="139" on="1"/>
        <pt x="424" y="139" on="0"/>
        <pt x="355" y="234" on="1"/>
        <pt x="316" y="188" on="0"/>
        <pt x="243" y="139" on="0"/>
        <pt x="195" y="139" on="1"/>
      </contour>
      <contour>
        <pt x="233" y="219" on="0"/>
        <pt x="284" y="260" on="0"/>
        <pt x="309" y="294" on="1"/>
        <pt x="277" y="340" on="0"/>
        <pt x="233" y="376" on="0"/>
        <pt x="202" y="376" on="1"/>
        <pt x="173" y="376" on="0"/>
        <pt x="134" y="332" on="0"/>
        <pt x="134" y="296" on="1"/>
        <pt x="134" y="264" on="0"/>
        <pt x="174" y="219" on="0"/>
        <pt x="204" y="219" on="1"/>
      </contour>
      <contour>
        <pt x="540" y="219" on="0"/>
        <pt x="577" y="267" on="0"/>
        <pt x="577" y="296" on="1"/>
        <pt x="577" y="330" on="0"/>
        <pt x="538" y="376" on="0"/>
        <pt x="508" y="376" on="1"/>
        <pt x="481" y="376" on="0"/>
        <pt x="438" y="341" on="0"/>
        <pt x="403" y="298" on="1"/>
        <pt x="435" y="254" on="0"/>
        <pt x="483" y="219" on="0"/>
        <pt x="511" y="219" on="1"/>
      </contour>
    </TTGlyph>
    <TTGlyph name="integral" xMin="26" yMin="-141" xMax="256" yMax="859">
      <contour>
        <pt x="26" y="-78" on="1"/>
        <pt x="105" y="-78" on="0"/>
        <pt x="105" y="-20" on="1"/>
        <pt x="101" y="79" on="0"/>
        <pt x="78" y="653" on="0"/>
        <pt x="78" y="747" on="1"/>
        <pt x="78" y="812" on="0"/>
        <pt x="173" y="859" on="0"/>
        <pt x="256" y="859" on="1"/>
        <pt x="256" y="797" on="1"/>
        <pt x="175" y="797" on="0"/>
        <pt x="175" y="740" on="1"/>
        <pt x="180" y="641" on="0"/>
        <pt x="203" y="65" on="0"/>
        <pt x="203" y="-29" on="1"/>
        <pt x="203" y="-94" on="0"/>
        <pt x="110" y="-141" on="0"/>
        <pt x="26" y="-141" on="1"/>
      </contour>
    </TTGlyph>
    <TTGlyph name="integralbt" xMin="180" yMin="-250" xMax="358" yMax="859">
      <contour>
        <pt x="180" y="-188" on="1"/>
        <pt x="261" y="-188" on="0"/>
        <pt x="261" y="-131" on="1"/>
        <pt x="244" y="859" on="1"/>
        <pt x="344" y="859" on="1"/>
        <pt x="358" y="-21" on="0"/>
        <pt x="358" y="-138" on="1"/>
        <pt x="358" y="-203" on="0"/>
        <pt x="264" y="-250" on="0"/>
        <pt x="180" y="-250" on="1"/>
      </contour>
    </TTGlyph>
    <TTGlyph name="integraltp" xMin="246" yMin="-250" xMax="424" yMax="859">
      <contour>
        <pt x="246" y="630" on="0"/>
        <pt x="246" y="747" on="1"/>
        <pt x="246" y="812" on="0"/>
        <pt x="341" y="859" on="0"/>
        <pt x="424" y="859" on="1"/>
        <pt x="424" y="797" on="1"/>
        <pt x="343" y="797" on="0"/>
        <pt x="343" y="740" on="1"/>
        <pt x="360" y="-250" on="1"/>
        <pt x="260" y="-250" on="1"/>
      </contour>
    </TTGlyph>
    <TTGlyph name="intersection" xMin="94" yMin="0" xMax="626" yMax="676">
      <contour>
        <pt x="94" y="410" on="1"/>
        <pt x="94" y="484" on="0"/>
        <pt x="165" y="606" on="0"/>
        <pt x="287" y="676" on="0"/>
        <pt x="360" y="676" on="1"/>
        <pt x="433" y="676" on="0"/>
        <pt x="555" y="606" on="0"/>
        <pt x="626" y="484" on="0"/>
        <pt x="626" y="410" on="1"/>
        <pt x="626" y="0" on="1"/>
        <pt x="540" y="0" on="1"/>
        <pt x="540" y="410" on="1"/>
        <pt x="540" y="462" on="0"/>
        <pt x="492" y="546" on="0"/>
        <pt x="410" y="594" on="0"/>
        <pt x="360" y="594" on="1"/>
        <pt x="310" y="594" on="0"/>
        <pt x="227" y="546" on="0"/>
        <pt x="179" y="462" on="0"/>
        <pt x="179" y="410" on="1"/>
        <pt x="179" y="0" on="1"/>
        <pt x="94" y="0" on="1"/>
      </contour>
    </TTGlyph>
    <TTGlyph name="iogonek" xMin="27" yMin="-190" xMax="199" yMax="724">
      <contour>
        <pt x="197" y="606" on="1"/>
        <pt x="79" y="606" on="1"/>
        <pt x="79" y="724" on="1"/>
        <pt x="197" y="724" on="1"/>
      </contour>
      <contour>
        <pt x="156" y="0" on="1"/>
        <pt x="143" y="-14" on="0"/>
        <pt x="122" y="-51" on="0"/>
        <pt x="122" y="-70" on="1"/>
        <pt x="122" y="-92" on="0"/>
        <pt x="147" y="-122" on="0"/>
        <pt x="172" y="-122" on="1"/>
        <pt x="199" y="-122" on="1"/>
        <pt x="199" y="-176" on="1"/>
        <pt x="162" y="-190" on="0"/>
        <pt x="131" y="-190" on="1"/>
        <pt x="88" y="-190" on="0"/>
        <pt x="27" y="-148" on="0"/>
        <pt x="27" y="-101" on="1"/>
        <pt x="27" y="-68" on="0"/>
        <pt x="54" y="-20" on="0"/>
        <pt x="79" y="3" on="1"/>
        <pt x="79" y="526" on="1"/>
        <pt x="199" y="526" on="1"/>
        <pt x="199" y="0" on="1"/>
      </contour>
    </TTGlyph>
    <TTGlyph name="itilde" xMin="-27" yMin="0" xMax="306" yMax="723">
      <contour>
        <pt x="-27" y="657" on="0"/>
        <pt x="19" y="723" on="0"/>
        <pt x="66" y="723" on="1"/>
        <pt x="84" y="723" on="0"/>
        <pt x="116" y="714" on="0"/>
        <pt x="139" y="705" on="1"/>
        <pt x="160" y="697" on="0"/>
        <pt x="189" y="688" on="0"/>
        <pt x="205" y="688" on="1"/>
        <pt x="233" y="688" on="0"/>
        <pt x="237" y="723" on="1"/>
        <pt x="306" y="723" on="1"/>
        <pt x="306" y="672" on="0"/>
        <pt x="259" y="607" on="0"/>
        <pt x="211" y="607" on="1"/>
        <pt x="194" y="607" on="0"/>
        <pt x="161" y="616" on="0"/>
        <pt x="140" y="625" on="1"/>
        <pt x="119" y="633" on="0"/>
        <pt x="90" y="642" on="0"/>
        <pt x="74" y="642" on="1"/>
        <pt x="45" y="642" on="0"/>
        <pt x="41" y="607" on="1"/>
        <pt x="-27" y="607" on="1"/>
      </contour>
      <contour>
        <pt x="79" y="526" on="1"/>
        <pt x="199" y="526" on="1"/>
        <pt x="199" y="0" on="1"/>
        <pt x="79" y="0" on="1"/>
      </contour>
    </TTGlyph>
    <TTGlyph name="j" xMin="-24" yMin="-182" xMax="190" yMax="723">
      <contour>
        <pt x="70" y="723" on="1"/>
        <pt x="190" y="723" on="1"/>
        <pt x="190" y="608" on="1"/>
        <pt x="70" y="608" on="1"/>
      </contour>
      <contour>
        <pt x="40" y="-182" on="0"/>
        <pt x="-9" y="-173" on="0"/>
        <pt x="-24" y="-167" on="1"/>
        <pt x="-24" y="-85" on="1"/>
        <pt x="25" y="-85" on="1"/>
        <pt x="47" y="-85" on="0"/>
        <pt x="70" y="-62" on="0"/>
        <pt x="70" y="-40" on="1"/>
        <pt x="70" y="526" on="1"/>
        <pt x="190" y="526" on="1"/>
        <pt x="190" y="-48" on="1"/>
        <pt x="190" y="-105" on="0"/>
        <pt x="130" y="-182" on="0"/>
        <pt x="61" y="-182" on="1"/>
      </contour>
    </TTGlyph>
    <TTGlyph name="jcircumflex" xMin="-30" yMin="-182" xMax="290" yMax="723">
      <contour>
        <pt x="76" y="723" on="1"/>
        <pt x="185" y="723" on="1"/>
        <pt x="290" y="588" on="1"/>
        <pt x="186" y="588" on="1"/>
        <pt x="130" y="660" on="1"/>
        <pt x="74" y="588" on="1"/>
        <pt x="-30" y="588" on="1"/>
      </contour>
      <contour>
        <pt x="40" y="-182" on="0"/>
        <pt x="-9" y="-173" on="0"/>
        <pt x="-24" y="-167" on="1"/>
        <pt x="-24" y="-85" on="1"/>
        <pt x="25" y="-85" on="1"/>
        <pt x="47" y="-85" on="0"/>
        <pt x="70" y="-62" on="0"/>
        <pt x="70" y="-40" on="1"/>
        <pt x="70" y="526" on="1"/>
        <pt x="190" y="526" on="1"/>
        <pt x="190" y="-48" on="1"/>
        <pt x="190" y="-105" on="0"/>
        <pt x="130" y="-182" on="0"/>
        <pt x="61" y="-182" on="1"/>
      </contour>
    </TTGlyph>
    <TTGlyph name="k" xMin="70" yMin="0" xMax="532" yMax="723">
      <contour>
        <pt x="70" y="723" on="1"/>
        <pt x="190" y="723" on="1"/>
        <pt x="190" y="300" on="1"/>
        <pt x="381" y="526" on="1"/>
        <pt x="522" y="526" on="1"/>
        <pt x="345" y="322" on="1"/>
        <pt x="532" y="0" on="1"/>
        <pt x="394" y="0" on="1"/>
        <pt x="269" y="234" on="1"/>
        <pt x="190" y="158" on="1"/>
        <pt x="190" y="0" on="1"/>
        <pt x="70" y="0" on="1"/>
      </contour>
    </TTGlyph>
    <TTGlyph name="kcommaaccent" xMin="70" yMin="-230" xMax="532" yMax="723">
      <component glyphName=".ttfautohint" x="70" y="0" flags="0x0"/>
      <component glyphName="k" x="0" y="0" flags="0x0"/>
      <component glyphName="uni0326" x="439" y="0" flags="0x0"/>
    </TTGlyph>
    <TTGlyph name="kgreenlandic" xMin="70" yMin="0" xMax="532" yMax="526">
      <contour>
        <pt x="70" y="526" on="1"/>
        <pt x="190" y="526" on="1"/>
        <pt x="190" y="300" on="1"/>
        <pt x="381" y="526" on="1"/>
        <pt x="522" y="526" on="1"/>
        <pt x="345" y="322" on="1"/>
        <pt x="532" y="0" on="1"/>
        <pt x="394" y="0" on="1"/>
        <pt x="269" y="234" on="1"/>
        <pt x="190" y="158" on="1"/>
        <pt x="190" y="0" on="1"/>
        <pt x="70" y="0" on="1"/>
      </contour>
    </TTGlyph>
    <TTGlyph name="l" xMin="70" yMin="0" xMax="190" yMax="723">
      <contour>
        <pt x="70" y="723" on="1"/>
        <pt x="190" y="723" on="1"/>
        <pt x="190" y="0" on="1"/>
        <pt x="70" y="0" on="1"/>
      </contour>
    </TTGlyph>
    <TTGlyph name="lacute" xMin="70" yMin="0" xMax="284" yMax="883">
      <component glyphName=".ttfautohint" x="70" y="0" flags="0x0"/>
      <component glyphName="l" x="0" y="0" flags="0x0"/>
      <component glyphName="acute" x="6" y="160" flags="0x4"/>
    </TTGlyph>
    <TTGlyph name="lcaron" xMin="70" yMin="0" xMax="362" yMax="723">
      <contour>
        <pt x="70" y="723" on="1"/>
        <pt x="190" y="723" on="1"/>
        <pt x="190" y="0" on="1"/>
        <pt x="70" y="0" on="1"/>
      </contour>
      <contour>
        <pt x="290" y="571" on="1"/>
        <pt x="242" y="571" on="1"/>
        <pt x="242" y="686" on="1"/>
        <pt x="362" y="686" on="1"/>
        <pt x="362" y="582" on="1"/>
        <pt x="305" y="459" on="1"/>
        <pt x="242" y="459" on="1"/>
      </contour>
    </TTGlyph>
    <TTGlyph name="lcommaaccent" xMin="69" yMin="-230" xMax="190" yMax="723">
      <component glyphName=".ttfautohint" x="69" y="0" flags="0x0"/>
      <component glyphName="l" x="0" y="0" flags="0x0"/>
      <component glyphName="uni0326" x="276" y="0" flags="0x0"/>
    </TTGlyph>
    <TTGlyph name="ldot" xMin="70" yMin="0" xMax="364" yMax="723">
      <component glyphName=".ttfautohint" x="70" y="0" flags="0x0"/>
      <component glyphName="l" x="0" y="0" flags="0x0"/>
      <component glyphName="periodcentered" x="136" y="0" flags="0x0"/>
    </TTGlyph>
    <TTGlyph name="less" xMin="54" yMin="3" xMax="528" yMax="516">
      <contour>
        <pt x="54" y="199" on="1"/>
        <pt x="54" y="319" on="1"/>
        <pt x="528" y="516" on="1"/>
        <pt x="528" y="407" on="1"/>
        <pt x="148" y="259" on="1"/>
        <pt x="528" y="111" on="1"/>
        <pt x="528" y="3" on="1"/>
      </contour>
    </TTGlyph>
    <TTGlyph name="lessequal" xMin="38" yMin="0" xMax="512" yMax="636">
      <contour>
        <pt x="38" y="319" on="1"/>
        <pt x="38" y="439" on="1"/>
        <pt x="512" y="636" on="1"/>
        <pt x="512" y="528" on="1"/>
        <pt x="132" y="380" on="1"/>
        <pt x="512" y="232" on="1"/>
        <pt x="512" y="123" on="1"/>
      </contour>
      <contour>
        <pt x="39" y="97" on="1"/>
        <pt x="512" y="97" on="1"/>
        <pt x="512" y="0" on="1"/>
        <pt x="39" y="0" on="1"/>
      </contour>
    </TTGlyph>
    <TTGlyph name="lira" xMin="14" yMin="0" xMax="519" yMax="698">
      <contour>
        <pt x="28" y="101" on="1"/>
        <pt x="95" y="101" on="1"/>
        <pt x="95" y="197" on="1"/>
        <pt x="14" y="197" on="1"/>
        <pt x="14" y="282" on="1"/>
        <pt x="95" y="282" on="1"/>
        <pt x="95" y="343" on="1"/>
        <pt x="14" y="343" on="1"/>
        <pt x="14" y="428" on="1"/>
        <pt x="95" y="428" on="1"/>
        <pt x="95" y="499" on="1"/>
        <pt x="95" y="597" on="0"/>
        <pt x="206" y="698" on="0"/>
        <pt x="307" y="698" on="1"/>
        <pt x="407" y="698" on="0"/>
        <pt x="519" y="602" on="0"/>
        <pt x="519" y="504" on="1"/>
        <pt x="519" y="491" on="1"/>
        <pt x="400" y="491" on="1"/>
        <pt x="400" y="508" on="1"/>
        <pt x="400" y="553" on="0"/>
        <pt x="351" y="600" on="0"/>
        <pt x="307" y="600" on="1"/>
        <pt x="263" y="600" on="0"/>
        <pt x="215" y="554" on="0"/>
        <pt x="215" y="513" on="1"/>
        <pt x="215" y="428" on="1"/>
        <pt x="374" y="428" on="1"/>
        <pt x="374" y="343" on="1"/>
        <pt x="214" y="343" on="1"/>
        <pt x="214" y="282" on="1"/>
        <pt x="374" y="282" on="1"/>
        <pt x="374" y="197" on="1"/>
        <pt x="214" y="197" on="1"/>
        <pt x="202" y="101" on="1"/>
        <pt x="514" y="101" on="1"/>
        <pt x="514" y="0" on="1"/>
        <pt x="28" y="0" on="1"/>
      </contour>
    </TTGlyph>
    <TTGlyph name="logicalnot" xMin="47" yMin="194" xMax="537" yMax="454">
      <contour>
        <pt x="444" y="358" on="1"/>
        <pt x="47" y="358" on="1"/>
        <pt x="47" y="454" on="1"/>
        <pt x="537" y="454" on="1"/>
        <pt x="537" y="194" on="1"/>
        <pt x="444" y="194" on="1"/>
      </contour>
    </TTGlyph>
    <TTGlyph name="longs" xMin="9" yMin="0" xMax="300" yMax="731">
      <contour>
        <pt x="85" y="428" on="1"/>
        <pt x="9" y="428" on="1"/>
        <pt x="9" y="526" on="1"/>
        <pt x="85" y="526" on="1"/>
        <pt x="85" y="594" on="1"/>
        <pt x="85" y="653" on="0"/>
        <pt x="146" y="731" on="0"/>
        <pt x="217" y="731" on="1"/>
        <pt x="238" y="731" on="0"/>
        <pt x="285" y="722" on="0"/>
        <pt x="300" y="716" on="1"/>
        <pt x="300" y="633" on="1"/>
        <pt x="250" y="633" on="1"/>
        <pt x="205" y="633" on="0"/>
        <pt x="205" y="588" on="1"/>
        <pt x="205" y="0" on="1"/>
        <pt x="85" y="0" on="1"/>
      </contour>
    </TTGlyph>
    <TTGlyph name="lozenge" xMin="48" yMin="-133" xMax="525" yMax="728">
      <contour>
        <pt x="48" y="298" on="1"/>
        <pt x="227" y="728" on="1"/>
        <pt x="347" y="728" on="1"/>
        <pt x="525" y="298" on="1"/>
        <pt x="347" y="-133" on="1"/>
        <pt x="227" y="-133" on="1"/>
      </contour>
      <contour>
        <pt x="412" y="298" on="1"/>
        <pt x="287" y="617" on="1"/>
        <pt x="162" y="298" on="1"/>
        <pt x="287" y="-22" on="1"/>
      </contour>
    </TTGlyph>
</ttFont>
